<?xml version="1.0" encoding="UTF-8" standalone="no"?>
<!-- Created with Inkscape (http://www.inkscape.org/) -->

<svg
   version="1.1"
   id="svg1"
   width="666.66669"
   height="666.66669"
   viewBox="0 0 666.66669 666.66669"
   sodipodi:docname="9276435.eps"
   xmlns:inkscape="http://www.inkscape.org/namespaces/inkscape"
   xmlns:sodipodi="http://sodipodi.sourceforge.net/DTD/sodipodi-0.dtd"
   xmlns="http://www.w3.org/2000/svg"
   xmlns:svg="http://www.w3.org/2000/svg">
  <defs
     id="defs1" />
  <sodipodi:namedview
     id="namedview1"
     pagecolor="#ffffff"
     bordercolor="#000000"
     borderopacity="0.25"
     inkscape:showpageshadow="2"
     inkscape:pageopacity="0.0"
     inkscape:pagecheckerboard="0"
     inkscape:deskcolor="#d1d1d1">
    <inkscape:page
       x="0"
       y="0"
       inkscape:label="1"
       id="page1"
       width="666.66669"
       height="666.66669"
       margin="0"
       bleed="0" />
  </sodipodi:namedview>
  <g
     id="g1"
     inkscape:groupmode="layer"
     inkscape:label="1">
    <g
       id="group-R5">

      <path
         id="path3"
         d="m 3787.37,966.801 v 0 c -430.46,1.16 -807.16,1.789 -1090.48,2.14 V 2887.72 H 1278.6 V 973.488 l -499.639,2.383 c 0,0 -471.582,283.849 -299.078,663.559 101.426,223.27 541.677,140.14 495.367,511.7 -60.723,487.19 -544.535,815.33 -265.332,1231.97 102.789,153.39 260.594,186.51 452.992,186.51 73.12,0 151.23,-4.78 233.22,-9.57 81.99,-4.78 167.87,-9.56 256.49,-9.56 241.75,0 503.99,35.58 764.03,203.85 248.79,160.98 604.19,283 922.39,283 260.94,0 496.85,-82.04 628.46,-291.92 279.06,-445.03 -278.77,-940.03 126.21,-1272.53 404.99,-332.49 868.86,-834.16 -155.01,-1425.38 -50.97,-29.43 -95.78,-80.699 -151.33,-80.699 M 730.34,1383.31 c -43.453,0 -45,-64.58 -19.168,-129.17 25.824,-64.58 79.047,-129.16 145.133,-129.16 8.785,-0.01 17.781,1.13 26.984,3.57 151.751,40.08 -55.891,239.84 -144.937,254.09 -2.813,0.45 -5.489,0.67 -8.012,0.67 m -36.336,178.08 c -5.055,0 -10.078,-0.82 -14.965,-2.58 -54.914,-19.79 -43.184,-129.67 26.066,-129.68 7.282,0 15.192,1.22 23.739,3.88 82.437,25.68 21.82,128.38 -34.84,128.38 M 3226.72,3893.06 c -1.94,0 -3.86,-0.3 -5.73,-0.92 -13.45,-4.46 -19.09,-23.92 -12.6,-43.45 5.6,-16.81 18.34,-28.21 30.35,-28.21 1.94,0 3.86,0.3 5.73,0.92 5.03,1.67 8.96,5.43 11.58,10.51 3.75,-6.34 9.26,-10.44 15.58,-10.75 0.26,-0.02 0.53,-0.02 0.79,-0.02 11.96,0 22.21,13.79 23.06,31.29 0.87,17.87 -8.4,32.85 -20.68,33.45 -0.25,0.01 -0.51,0.02 -0.76,0.02 -7.93,0 -15.11,-6.05 -19.29,-15.22 -6.34,13.57 -17.47,22.38 -28.03,22.38 M 3787.37,966.801 c -426.41,0 -836.14,0.64 -1139.26,1.281 h 48.78 v 0.418 l 1090.48,-1.699"
         style="fill:#0261e6;fill-opacity:1;fill-rule:nonzero;stroke:none"
         transform="matrix(0.13333333,0,0,-0.13333333,0,666.66667)" />
      <path
         id="path4"
         d="m 1513.45,3625.4 c -140.93,0 -271.38,18.23 -288.24,68.09 -36.74,108.61 214.58,160.92 418.09,160.92 99.75,0 188.04,-12.57 225.25,-37.25 113.14,-75.01 95.86,-139.21 -84.65,-170.56 -73.22,-12.71 -174.27,-21.2 -270.45,-21.2"
         style="fill:#0261e6;fill-opacity:1;fill-rule:nonzero;stroke:none"
         transform="matrix(0.13333333,0,0,-0.13333333,0,666.66667)" />
      <path
         id="path5"
         d="m 2088.06,3693.49 c -62.65,0 -70.16,27.86 -51.96,55.71 18.21,27.86 62.13,55.71 102.31,55.71 14.4,0 28.32,-3.58 40.41,-12.01 54.86,-38.28 57.5,-99.27 -90.58,-99.41 -0.06,0 -0.12,0 -0.18,0"
         style="fill:#0261e6;fill-opacity:1;fill-rule:nonzero;stroke:none"
         transform="matrix(0.13333333,0,0,-0.13333333,0,666.66667)" />
      <path
         id="path6"
         d="m 856.305,1124.98 c -66.086,0 -119.309,64.58 -145.133,129.16 -25.832,64.59 -24.285,129.17 19.168,129.17 2.523,0 5.199,-0.22 8.012,-0.67 89.046,-14.25 296.688,-214.01 144.937,-254.09 -9.203,-2.44 -18.199,-3.58 -26.984,-3.57"
         style="fill:#ffffff;fill-opacity:1;fill-rule:nonzero;stroke:none"
         transform="matrix(0.13333333,0,0,-0.13333333,0,666.66667)" />
      <path
         id="path7"
         d="m 705.105,1429.13 c -69.25,0.01 -80.98,109.89 -26.066,129.68 4.887,1.76 9.91,2.58 14.965,2.58 56.66,0 117.277,-102.7 34.84,-128.38 -8.547,-2.66 -16.457,-3.88 -23.739,-3.88"
         style="fill:#ffffff;fill-opacity:1;fill-rule:nonzero;stroke:none"
         transform="matrix(0.13333333,0,0,-0.13333333,0,666.66667)" />
      <path
         id="path8"
         d="m 3787.37,966.801 v 0 L 2696.89,968.5 v 0.441 c 283.32,-0.351 660.02,-0.98 1090.48,-2.14 v 0"
         style="fill:#ced0cd;fill-opacity:1;fill-rule:nonzero;stroke:none"
         transform="matrix(0.13333333,0,0,-0.13333333,0,666.66667)" />
      <path
         id="path9"
         d="m 3250.97,3854.6 c -0.89,-17.87 8.37,-32.84 20.66,-33.44 12.3,-0.62 22.98,13.39 23.85,31.27 0.87,17.87 -8.4,32.85 -20.68,33.45 -12.3,0.6 -22.96,-13.4 -23.83,-31.28"
         style="fill:#1f2b34;fill-opacity:1;fill-rule:nonzero;stroke:none"
         transform="matrix(0.13333333,0,0,-0.13333333,0,666.66667)" />
      <path
         id="path10"
         d="m 3238.74,3820.48 c -12.01,0 -24.75,11.4 -30.35,28.21 -6.49,19.53 -0.85,38.99 12.6,43.45 1.87,0.62 3.79,0.92 5.73,0.92 10.56,0 21.69,-8.81 28.03,-22.38 -2.14,-4.68 -3.5,-10.17 -3.78,-16.08 -0.44,-8.69 1.53,-16.69 5.08,-22.69 -2.62,-5.08 -6.55,-8.84 -11.58,-10.51 -1.87,-0.62 -3.79,-0.92 -5.73,-0.92"
         style="fill:#6c767c;fill-opacity:1;fill-rule:nonzero;stroke:none"
         transform="matrix(0.13333333,0,0,-0.13333333,0,666.66667)" />
      <path
         id="path11"
         d="m 3256.05,3831.91 c -3.55,6 -5.52,14 -5.08,22.69 0.28,5.91 1.64,11.4 3.78,16.08 0.86,-1.86 1.64,-3.81 2.31,-5.83 4.07,-12.23 3.38,-24.43 -1.01,-32.94"
         style="fill:#1f2b34;fill-opacity:1;fill-rule:nonzero;stroke:none"
         transform="matrix(0.13333333,0,0,-0.13333333,0,666.66667)" />
      <path
         id="path12"
         d="m 3174.22,3814.93 c -9.84,-26.9 11.08,-59.26 46.72,-72.26 35.62,-13.01 72.46,-1.72 82.28,25.2 9.84,26.91 -11.1,59.27 -46.73,72.26 -35.62,13.01 -72.47,1.72 -82.27,-25.2"
         style="fill:#0e1726;fill-opacity:1;fill-rule:nonzero;stroke:none"
         transform="matrix(0.13333333,0,0,-0.13333333,0,666.66667)" />
      <path
         id="path13"
         d="m 3137.17,3823 c -17.34,2.66 -35.4,3.96 -53.9,3.96 h -1.66 l 0.04,-7.5 h 1.62 c 18.14,0 35.84,-1.28 52.76,-3.87 z m -111.06,0.01 c -18.15,-2.47 -36.41,-6.08 -54.51,-10.79 l 1.89,-7.26 c 17.81,4.64 35.78,8.19 53.63,10.61 z m -107.4,-27.95 c -17.32,-6.77 -34.23,-14.59 -50.47,-23.42 l 3.58,-6.59 c 15.95,8.67 32.58,16.36 49.62,23.03 z m -97.44,-53.3 c -15.07,-11.18 -29.16,-23.4 -41.97,-36.63 l 5.38,-5.22 c 12.51,12.92 26.29,24.88 41.06,35.83 z m -76.86,-80.18 c -10.14,-15.61 -18.63,-32.23 -25.16,-49.83 l 7.03,-2.61 c 6.33,17.05 14.56,33.18 24.42,48.36 z m -38.37,-104.09 c -1.21,-9.9 -1.84,-20.03 -1.84,-30.39 0,-8.34 0.4,-16.82 1.24,-25.45 l 7.46,0.73 c -0.81,8.39 -1.2,16.63 -1.2,24.72 0,10.06 0.61,19.88 1.79,29.48 z m 12.7,-110.27 c 7.32,-17.75 17.2,-33.85 28.95,-48.03 l 5.78,4.78 c -11.29,13.63 -20.78,29.09 -27.8,46.11 z m 70.62,-85.56 c 15.86,-10.57 33.04,-18.65 50.73,-23.9 l 2.14,7.19 c -16.95,5.03 -33.46,12.79 -48.71,22.95 z m 106.5,-30.71 c 18.85,1.06 37.34,5.68 54.44,14.29 l -3.37,6.7 c -16.12,-8.12 -33.58,-12.5 -51.49,-13.5 z m 98.25,49.65 c 9.3,11.31 17.47,24.66 24.19,40.13 1.26,2.89 2.45,5.75 3.57,8.59 l -6.97,2.76 c -1.09,-2.76 -2.25,-5.54 -3.48,-8.36 -6.46,-14.88 -14.27,-27.61 -23.11,-38.36 z m 41.73,102.96 c 0.56,5.38 0.83,10.62 0.83,15.73 0,14.43 -2.18,27.83 -6.26,40.21 l -7.13,-2.35 c 3.83,-11.6 5.89,-24.18 5.89,-37.86 0,-4.84 -0.26,-9.83 -0.79,-14.95 z m -34.59,104.02 c -12.41,13.18 -27.51,24.49 -44.43,34.17 l -3.72,-6.51 c 16.4,-9.39 30.89,-20.28 42.68,-32.8 z m -95.34,57 c -17.21,6.03 -35.26,10.96 -53.59,14.93 l -1.59,-7.33 c 18.07,-3.91 35.83,-8.77 52.7,-14.68 z m -108.39,24.02 c -18.93,2.26 -37.58,3.63 -55.36,4.26 l -0.26,-7.5 c 17.58,-0.62 36.02,-1.97 54.73,-4.21 z m -110.88,3.75 c -1.98,-0.12 -3.94,-0.25 -5.88,-0.38 -16.94,-1.19 -33.29,-2.31 -49.19,-3.61 l 0.61,-7.47 c 15.83,1.29 32.15,2.41 49.11,3.6 1.9,0.13 3.83,0.25 5.79,0.37 z m -110.09,-9.8 c -18.46,-2.56 -36.54,-5.85 -54.52,-10.34 l 1.82,-7.28 c 17.67,4.42 35.48,7.66 53.73,10.19 z m -107.39,-27.45 c -16.44,-6.64 -33.01,-14.66 -49.93,-24.39 l 3.74,-6.5 c 16.63,9.56 32.88,17.42 49,23.93 z m -96.31,-54.86 c -13.97,-10.31 -28.28,-21.89 -43.04,-34.9 l 4.96,-5.62 c 14.61,12.87 28.75,24.31 42.54,34.49 z m -83.31,-72.87 c -12.33,-12.36 -25,-25.7 -38.06,-40.12 l 5.55,-5.03 c 12.99,14.33 25.58,27.59 37.82,39.85 z m -72.76,-83.87 c -8.27,-14.53 -15.47,-32.06 -21.4,-51.65 l 7.18,-2.17 c 5.8,19.16 12.82,36.21 20.73,50.11 z m -33.68,-105.92 c -2.83,-17.83 -4.71,-36.43 -5.52,-55.3 l 7.49,-0.32 c 0.8,18.58 2.65,36.9 5.44,54.44 z m -4.65,-110.9 c 1.43,-18.74 4.04,-37.26 8,-55.09 l 7.32,1.62 c -3.87,17.44 -6.44,35.62 -7.84,54.04 z m 24.97,-108.26 c 7.72,-17.72 17.32,-33.94 29,-47.94 l 5.76,4.8 c -11.15,13.37 -20.4,28.96 -27.89,46.13 z m 72.47,-83.59 c 14.74,-7.77 31.34,-13.04 49.85,-15.28 l 0.9,7.44 c -17.65,2.14 -33.33,7.14 -47.26,14.48 l -3.49,-6.64"
         style="fill:#0e1726;fill-opacity:1;fill-rule:nonzero;stroke:none"
         transform="matrix(0.13333333,0,0,-0.13333333,0,666.66667)" />
      <path
         id="path14"
         d="m 1086.78,3804.43 c -11.57,-17 -17.46,-35.05 -18.75,-53.25 l 7.48,-0.54 c 1.22,16.96 6.63,33.62 17.47,49.58 z m -9.77,-108.85 c 6.41,-17.01 15.8,-33.53 27.12,-49.02 l 6.06,4.42 c -11,15.04 -20.04,31 -26.16,47.24 z m 64.43,-90.57 c 14.12,-13.03 29.22,-24.53 44.31,-33.95 l 3.97,6.37 c -14.67,9.15 -29.41,20.38 -43.2,33.09 z m 94.89,-57.79 c 18.75,-6.33 36.94,-10.09 54.65,-11.76 l 0.71,7.47 c -17.15,1.61 -34.75,5.25 -52.96,11.4 z m 110.52,-10.44 c 18.5,2.53 36.53,6.96 54.26,12.65 l -2.3,7.14 c -17.39,-5.58 -34.99,-9.9 -52.97,-12.36 z m 106.06,32.58 c 16.82,7.36 33.5,15.3 50.17,23.26 l -3.23,6.77 c -16.67,-7.96 -33.27,-15.86 -49.95,-23.15 l 3.01,-6.87 z m 100.1,46.48 c 16.83,7.41 33.79,14.25 51.03,19.95 l -2.36,7.12 c -17.54,-5.8 -34.72,-12.74 -51.69,-20.21 z m 103.89,33.1 c 13.34,2.12 26.9,3.29 40.76,3.29 4.44,0 8.9,-0.12 13.4,-0.37 l 0.41,7.49 c -4.64,0.26 -9.24,0.38 -13.81,0.38 -14.28,0 -28.25,-1.21 -41.93,-3.38 z m 108.07,-4.88 c 18.51,-4.21 35.81,-9.87 51.64,-16.92 l 3.05,6.85 c -16.33,7.27 -34.09,13.07 -53.02,17.38 z m 97.88,-44.83 c 14.32,-11.59 26.31,-24.96 35.64,-40.05 l 6.38,3.94 c -9.8,15.86 -22.38,29.86 -37.3,41.94 z m 55.12,-89.87 c 2.14,-10.75 3.25,-22.09 3.25,-34.01 0,-6.42 -0.32,-13.02 -0.98,-19.78 l 7.46,-0.73 c 0.69,7 1.02,13.83 1.02,20.51 0,12.39 -1.16,24.22 -3.4,35.48 z m -8.99,-106.88 c -4.6,-14.48 -10.55,-29.55 -17.95,-45.19 -0.82,-1.74 -1.7,-3.46 -2.62,-5.16 l 6.58,-3.59 c 1,1.83 1.94,3.67 2.82,5.54 7.53,15.92 13.61,31.3 18.32,46.12 z m -55.66,-90.41 c -13.71,-10.73 -29.69,-19.79 -46.82,-26.88 l 2.87,-6.93 c 17.69,7.32 34.25,16.7 48.57,27.9 z m -98.96,-41.69 c -11.7,-1.91 -23.41,-2.9 -34.84,-2.9 -6.49,0 -12.9,0.32 -19.15,0.97 l -0.78,-7.46 c 6.53,-0.68 13.19,-1.01 19.93,-1.01 11.86,0 23.97,1.03 36.05,3 z m -105.04,13.27 c -15.58,8.77 -27.95,21.15 -35.66,37.72 l -6.8,-3.17 c 8.4,-18.09 22.04,-31.69 38.78,-41.09 l 3.68,6.54"
         style="fill:#0e1726;fill-opacity:1;fill-rule:nonzero;stroke:none"
         transform="matrix(0.13333333,0,0,-0.13333333,0,666.66667)" />
      <path
         id="path15"
         d="m 1081.92,3936.28 c -8.69,-15.64 -24.46,-23.46 -35.21,-17.47 -10.77,5.97 -12.44,23.5 -3.73,39.14 8.71,15.63 24.49,23.46 35.23,17.48 10.76,-5.99 12.42,-23.51 3.71,-39.15"
         style="fill:#1f2b34;fill-opacity:1;fill-rule:nonzero;stroke:none"
         transform="matrix(0.13333333,0,0,-0.13333333,0,666.66667)" />
      <path
         id="path16"
         d="m 1086.9,3897.56 c -6.94,0 -13.05,2.33 -17.01,7.1 -3.39,4.07 -4.74,9.35 -4.28,15.04 6.19,3.22 12.09,8.97 16.31,16.58 2.88,5.17 4.63,10.54 5.29,15.64 7.59,4.95 15.75,7.49 22.99,7.49 6.94,0 13.05,-2.33 17.02,-7.1 9.05,-10.89 3.56,-30.39 -12.28,-43.55 -8.89,-7.38 -19.15,-11.2 -28.04,-11.2"
         style="fill:#818c8f;fill-opacity:1;fill-rule:nonzero;stroke:none"
         transform="matrix(0.13333333,0,0,-0.13333333,0,666.66667)" />
      <path
         id="path17"
         d="m 1065.61,3919.7 c 0.78,9.54 6.64,20.27 16.56,28.5 1.64,1.36 3.32,2.6 5.04,3.72 -0.66,-5.1 -2.41,-10.47 -5.29,-15.64 -4.22,-7.61 -10.12,-13.36 -16.31,-16.58"
         style="fill:#1f2b34;fill-opacity:1;fill-rule:nonzero;stroke:none"
         transform="matrix(0.13333333,0,0,-0.13333333,0,666.66667)" />
      <path
         id="path18"
         d="m 1126.12,3862.04 c -5.87,-28.03 -40.73,-44.45 -77.85,-36.66 -37.12,7.79 -62.426,36.83 -56.547,64.88 5.875,28.04 40.747,44.45 77.857,36.66 37.12,-7.78 62.44,-36.84 56.54,-64.88"
         style="fill:#0e1726;fill-opacity:1;fill-rule:nonzero;stroke:none"
         transform="matrix(0.13333333,0,0,-0.13333333,0,666.66667)" />
      <path
         id="path19"
         d="M 3222.47,968.082 H 2959.68 V 2741.94 h 262.79 V 968.082"
         style="fill:#4d5051;fill-opacity:1;fill-rule:nonzero;stroke:none"
         transform="matrix(0.13333333,0,0,-0.13333333,0,666.66667)" />
      <path
         id="path20"
         d="m 3194.9,1719.96 h -207.64 v 956.28 h 207.64 v -956.28"
         style="fill:#ffffff;fill-opacity:1;fill-rule:nonzero;stroke:none"
         transform="matrix(0.13333333,0,0,-0.13333333,0,666.66667)" />
      <path
         id="path21"
         d="m 3181.73,2629.25 h -181.31 v 21.44 h 181.31 v -21.44"
         style="fill:#4d5051;fill-opacity:1;fill-rule:nonzero;stroke:none"
         transform="matrix(0.13333333,0,0,-0.13333333,0,666.66667)" />
      <path
         id="path22"
         d="m 3181.73,1760.57 h -181.31 v 21.44 h 181.31 v -21.44"
         style="fill:#4d5051;fill-opacity:1;fill-rule:nonzero;stroke:none"
         transform="matrix(0.13333333,0,0,-0.13333333,0,666.66667)" />
      <path
         id="path23"
         d="m 3185.98,1300.22 c 0,-52.41 -42.49,-94.9 -94.91,-94.9 -52.41,0 -94.89,42.49 -94.89,94.9 0,52.41 42.48,94.9 94.89,94.9 52.42,0 94.91,-42.49 94.91,-94.9"
         style="fill:#898b8c;fill-opacity:1;fill-rule:nonzero;stroke:none"
         transform="matrix(0.13333333,0,0,-0.13333333,0,666.66667)" />
      <path
         id="path24"
         d="m 3171.6,1300.22 c 0,-44.47 -36.05,-80.52 -80.53,-80.52 -44.46,0 -80.51,36.05 -80.51,80.52 0,44.47 36.05,80.52 80.51,80.52 44.48,0 80.53,-36.05 80.53,-80.52"
         style="fill:#d7d9d6;fill-opacity:1;fill-rule:nonzero;stroke:none"
         transform="matrix(0.13333333,0,0,-0.13333333,0,666.66667)" />
      <path
         id="path25"
         d="m 2982.57,993.531 h 43.9492 v 7.5 H 2982.57 Z"
         style="fill:#0e1726;fill-opacity:1;fill-rule:nonzero;stroke:none"
         transform="matrix(0.13333333,0,0,-0.13333333,0,666.66667)" />
      <path
         id="path26"
         d="m 2982.57,1026.38 h 25.5586 v 7.5 H 2982.57 Z"
         style="fill:#0e1726;fill-opacity:1;fill-rule:nonzero;stroke:none"
         transform="matrix(0.13333333,0,0,-0.13333333,0,666.66667)" />
      <path
         id="path27"
         d="m 2959.68,968.082 h -262.8 V 2741.94 h 262.8 V 968.082"
         style="fill:#f9af24;fill-opacity:1;fill-rule:nonzero;stroke:none"
         transform="matrix(0.13333333,0,0,-0.13333333,0,666.66667)" />
      <path
         id="path28"
         d="m 2932.1,1719.96 h -207.64 v 956.28 h 207.64 v -956.28"
         style="fill:#ffffff;fill-opacity:1;fill-rule:nonzero;stroke:none"
         transform="matrix(0.13333333,0,0,-0.13333333,0,666.66667)" />
      <path
         id="path29"
         d="m 2918.94,2629.25 h -181.31 v 21.44 h 181.31 v -21.44"
         style="fill:#d7d9d6;fill-opacity:1;fill-rule:nonzero;stroke:none"
         transform="matrix(0.13333333,0,0,-0.13333333,0,666.66667)" />
      <path
         id="path30"
         d="m 2918.94,1760.57 h -181.31 v 21.44 h 181.31 v -21.44"
         style="fill:#d7d9d6;fill-opacity:1;fill-rule:nonzero;stroke:none"
         transform="matrix(0.13333333,0,0,-0.13333333,0,666.66667)" />
      <path
         id="path31"
         d="m 2923.18,1300.22 c 0,-52.41 -42.49,-94.9 -94.9,-94.9 -52.41,0 -94.89,42.49 -94.89,94.9 0,52.41 42.48,94.9 94.89,94.9 52.41,0 94.9,-42.49 94.9,-94.9"
         style="fill:#4d5051;fill-opacity:1;fill-rule:nonzero;stroke:none"
         transform="matrix(0.13333333,0,0,-0.13333333,0,666.66667)" />
      <path
         id="path32"
         d="m 2908.81,1300.22 c 0,-44.47 -36.06,-80.52 -80.53,-80.52 -44.46,0 -80.52,36.05 -80.52,80.52 0,44.47 36.06,80.52 80.52,80.52 44.47,0 80.53,-36.05 80.53,-80.52"
         style="fill:#d7d9d6;fill-opacity:1;fill-rule:nonzero;stroke:none"
         transform="matrix(0.13333333,0,0,-0.13333333,0,666.66667)" />
      <path
         id="path33"
         d="m 2873.08,1022.72 h 22.1875 v 7.5 H 2873.08 Z"
         style="fill:#0e1726;fill-opacity:1;fill-rule:nonzero;stroke:none"
         transform="matrix(0.13333333,0,0,-0.13333333,0,666.66667)" />
      <path
         id="path34"
         d="m 2829.28,989.871 h 58.5078 v 7.5 H 2829.28 Z"
         style="fill:#0e1726;fill-opacity:1;fill-rule:nonzero;stroke:none"
         transform="matrix(0.13333333,0,0,-0.13333333,0,666.66667)" />
      <path
         id="path35"
         d="m 3873.67,1027.72 -256.11,-58.868 -397.45,1728.748 256.11,58.88 397.45,-1728.76"
         style="fill:#898b8c;fill-opacity:1;fill-rule:nonzero;stroke:none"
         transform="matrix(0.13333333,0,0,-0.13333333,0,666.66667)" />
      <path
         id="path36"
         d="m 3678.33,1754.32 -202.36,-46.53 -214.26,931.97 202.35,46.52 214.27,-931.96"
         style="fill:#ffffff;fill-opacity:1;fill-rule:nonzero;stroke:none"
         transform="matrix(0.13333333,0,0,-0.13333333,0,666.66667)" />
      <path
         id="path37"
         d="m 3461.77,2637.53 -176.7,-40.62 -4.81,20.89 176.69,40.63 4.82,-20.9"
         style="fill:#898b8c;fill-opacity:1;fill-rule:nonzero;stroke:none"
         transform="matrix(0.13333333,0,0,-0.13333333,0,666.66667)" />
      <path
         id="path38"
         d="m 3656.4,1790.94 -176.7,-40.63 -4.81,20.9 176.7,40.63 4.81,-20.9"
         style="fill:#898b8c;fill-opacity:1;fill-rule:nonzero;stroke:none"
         transform="matrix(0.13333333,0,0,-0.13333333,0,666.66667)" />
      <path
         id="path39"
         d="m 3763.68,1343.24 c 11.74,-51.07 -20.14,-102 -71.22,-113.74 -51.08,-11.75 -102.01,20.14 -113.75,71.22 -11.75,51.08 20.15,102 71.22,113.75 51.09,11.74 102,-20.14 113.75,-71.23"
         style="fill:#4d5051;fill-opacity:1;fill-rule:nonzero;stroke:none"
         transform="matrix(0.13333333,0,0,-0.13333333,0,666.66667)" />
      <path
         id="path40"
         d="m 3749.67,1340.03 c 9.96,-43.34 -17.09,-86.55 -60.43,-96.51 -43.34,-9.98 -86.55,17.09 -96.52,60.43 -9.96,43.34 17.09,86.54 60.43,96.51 43.34,9.96 86.56,-17.1 96.52,-60.43"
         style="fill:#d7d9d6;fill-opacity:1;fill-rule:nonzero;stroke:none"
         transform="matrix(0.13333333,0,0,-0.13333333,0,666.66667)" />
      <path
         id="path41"
         d="m 3636.9,1004.61 c 26.76,7.3 53.53,14.59 80.29,21.9 l -1.98,7.23 c -26.75,-7.3 -53.52,-14.59 -80.29,-21.9 l 1.98,-7.24"
         style="fill:#0e1726;fill-opacity:1;fill-rule:nonzero;stroke:none"
         transform="matrix(0.13333333,0,0,-0.13333333,0,666.66667)" />
      <path
         id="path42"
         d="m 1278.6,968.082 h 1418.29 v 1919.64 H 1278.6 Z"
         style="fill:#ffffff;fill-opacity:1;fill-rule:nonzero;stroke:none"
         transform="matrix(0.13333333,0,0,-0.13333333,0,666.66667)" />
      <path
         id="path43"
         d="M 1346.79,1060.36 H 2628.72 V 2795.43 H 1346.79 Z"
         style="fill:#d7d9d6;fill-opacity:1;fill-rule:nonzero;stroke:none"
         transform="matrix(0.13333333,0,0,-0.13333333,0,666.66667)" />
      <path
         id="path44"
         d="m 2148.26,1715.7 h -321.04 v 105.55 h 321.04 V 1715.7"
         style="fill:#ffffff;fill-opacity:1;fill-rule:nonzero;stroke:none"
         transform="matrix(0.13333333,0,0,-0.13333333,0,666.66667)" />
      <path
         id="path45"
         d="m 2188.57,1619.5 h -401.66 v 43.43 h 401.66 v -43.43"
         style="fill:#4d5051;fill-opacity:1;fill-rule:nonzero;stroke:none"
         transform="matrix(0.13333333,0,0,-0.13333333,0,666.66667)" />
      <path
         id="path46"
         d="m 1493.24,1093.42 c -9.07,-0.96 -18.14,-1.77 -27.21,-2.19 -9.08,-0.39 -18.14,-1.04 -27.22,-1.17 -18.14,-0.5 -36.28,-0.49 -54.42,-0.03 v 6.78 c 9.21,-0.14 18.43,-0.76 27.65,-1.19 9.21,-0.4 18.42,-1.25 27.64,-2.2 -9.22,-0.97 -18.43,-1.82 -27.64,-2.22 -9.22,-0.42 -18.44,-1.03 -27.65,-1.17 v 6.78 c 18.14,0.46 36.28,0.46 54.42,-0.03 9.08,-0.14 18.14,-0.79 27.22,-1.18 9.07,-0.42 18.14,-1.23 27.21,-2.18"
         style="fill:#0e1726;fill-opacity:1;fill-rule:nonzero;stroke:none"
         transform="matrix(0.13333333,0,0,-0.13333333,0,666.66667)" />
      <path
         id="path47"
         d="m 1384.39,1129.7 c 6.62,2.95 13.24,3.62 19.86,3.75 6.62,-0.11 13.24,-0.78 19.86,-3.75 -6.62,-2.97 -13.24,-3.65 -19.86,-3.75 -6.62,0.12 -13.24,0.8 -19.86,3.75"
         style="fill:#0e1726;fill-opacity:1;fill-rule:nonzero;stroke:none"
         transform="matrix(0.13333333,0,0,-0.13333333,0,666.66667)" />
      <path
         id="path48"
         d="m 1951.16,1800.46 h 80.9609 v 7.5 H 1951.16 Z"
         style="fill:#0e1726;fill-opacity:1;fill-rule:nonzero;stroke:none"
         transform="matrix(0.13333333,0,0,-0.13333333,0,666.66667)" />
      <path
         id="path49"
         d="m 1900.93,1770.77 h 181.422 v 7.5 H 1900.93 Z"
         style="fill:#0e1726;fill-opacity:1;fill-rule:nonzero;stroke:none"
         transform="matrix(0.13333333,0,0,-0.13333333,0,666.66667)" />
      <path
         id="path50"
         d="m 1956.03,1736.14 h 71.2188 v 7.5 H 1956.03 Z"
         style="fill:#0e1726;fill-opacity:1;fill-rule:nonzero;stroke:none"
         transform="matrix(0.13333333,0,0,-0.13333333,0,666.66667)" />
      <path
         id="path51"
         d="m 2868.24,1540.19 -111.42,-235.61 -127.53,60.32 v 288.29 l 151.17,-71.49 87.78,-41.51"
         style="fill:#898b8c;fill-opacity:1;fill-rule:nonzero;stroke:none"
         transform="matrix(0.13333333,0,0,-0.13333333,0,666.66667)" />
      <path
         id="path52"
         d="m 2875.69,1650.59 -95.23,-68.89 -151.17,71.49 v 140.84 l 93.65,67.77 152.75,-211.21"
         style="fill:#4d5051;fill-opacity:1;fill-rule:nonzero;stroke:none"
         transform="matrix(0.13333333,0,0,-0.13333333,0,666.66667)" />
      <path
         id="path53"
         d="m 2699.64,1795.96 c 7.62,4.88 15.23,9.75 22.85,14.63 l -4.04,6.32 c -7.62,-4.88 -15.24,-9.76 -22.85,-14.63 l 4.04,-6.32"
         style="fill:#0e1726;fill-opacity:1;fill-rule:nonzero;stroke:none"
         transform="matrix(0.13333333,0,0,-0.13333333,0,666.66667)" />
      <path
         id="path54"
         d="m 2764.53,1548.66 c 15.49,-7.8 30.99,-15.59 46.49,-23.39 l 3.37,6.7 c -15.5,7.8 -31,15.59 -46.48,23.39 l -3.38,-6.7"
         style="fill:#0e1726;fill-opacity:1;fill-rule:nonzero;stroke:none"
         transform="matrix(0.13333333,0,0,-0.13333333,0,666.66667)" />
      <path
         id="path55"
         d="m 2774.94,1503.17 c 12.27,-5.28 24.54,-10.54 36.79,-15.8 l 2.96,6.89 c -12.25,5.26 -24.52,10.52 -36.78,15.8 l -2.97,-6.89"
         style="fill:#0e1726;fill-opacity:1;fill-rule:nonzero;stroke:none"
         transform="matrix(0.13333333,0,0,-0.13333333,0,666.66667)" />
      <path
         id="path56"
         d="m 1347.38,1647.16 v -342.79 l -364.142,240.47 157.552,238.73 206.59,-136.41"
         style="fill:#f9af24;fill-opacity:1;fill-rule:nonzero;stroke:none"
         transform="matrix(0.13333333,0,0,-0.13333333,0,666.66667)" />
      <path
         id="path57"
         d="m 1055.81,1570.4 c 8.91,11.03 17.83,22.06 26.75,33.09 l -5.84,4.72 c -8.91,-11.04 -17.83,-22.06 -26.75,-33.1 l 5.84,-4.71"
         style="fill:#0e1726;fill-opacity:1;fill-rule:nonzero;stroke:none"
         transform="matrix(0.13333333,0,0,-0.13333333,0,666.66667)" />
      <path
         id="path58"
         d="m 1770.96,2389.88 -393.45,-42.36 c -5.9,-0.64 -11.21,3.64 -11.85,9.55 l -72.55,673.83 c -0.63,5.91 3.64,11.21 9.55,11.85 l 393.44,42.36 c 5.91,0.64 11.22,-3.64 11.85,-9.54 l 72.56,-673.83 c 0.63,-5.92 -3.64,-11.22 -9.55,-11.86"
         style="fill:#898b8c;fill-opacity:1;fill-rule:nonzero;stroke:none"
         transform="matrix(0.13333333,0,0,-0.13333333,0,666.66667)" />
      <path
         id="path59"
         d="m 1909.59,2478.53 -380.86,-170.4 -285.57,638.28 380.86,170.4 285.57,-638.28"
         style="fill:#ffffff;fill-opacity:1;fill-rule:nonzero;stroke:none"
         transform="matrix(0.13333333,0,0,-0.13333333,0,666.66667)" />
      <path
         id="path60"
         d="m 2307.99,2984.54 -37.93,-72.81 h -390.27 c -11.21,0 -20.3,-9.09 -20.3,-20.3 v -512.54 c 0,-11.2 9.09,-20.3 20.3,-20.3 h 748.51 c 11.21,0 20.3,9.1 20.3,20.3 v 494.78 38.06 63.43 c 0,11.21 -9.09,20.3 -20.3,20.3 h -302.31 c -7.57,0 -14.51,-4.21 -18,-10.92"
         style="fill:#4d5051;fill-opacity:1;fill-rule:nonzero;stroke:none"
         transform="matrix(0.13333333,0,0,-0.13333333,0,666.66667)" />
      <path
         id="path61"
         d="m 2629.57,2401.09 h -749.78 v 577.24 h 749.78 v -577.24"
         style="fill:#ffffff;fill-opacity:1;fill-rule:nonzero;stroke:none"
         transform="matrix(0.13333333,0,0,-0.13333333,0,666.66667)" />
      <path
         id="path62"
         d="m 2307.99,2948.38 -37.93,-72.81 h -390.27 c -11.21,0 -20.3,-9.09 -20.3,-20.3 v -512.54 c 0,-11.21 9.09,-20.3 20.3,-20.3 h 748.51 c 11.21,0 20.3,9.09 20.3,20.3 v 494.78 38.06 63.43 c 0,11.21 -9.09,20.3 -20.3,20.3 h -302.31 c -7.57,0 -14.51,-4.21 -18,-10.92"
         style="fill:#898b8c;fill-opacity:1;fill-rule:nonzero;stroke:none"
         transform="matrix(0.13333333,0,0,-0.13333333,0,666.66667)" />
      <path
         id="path63"
         d="m 2198.14,3348.24 -78.13,-101.39 -599.06,106.76 c -17.21,3.07 -33.65,-8.4 -36.71,-25.6 l -140.21,-786.75 c -3.07,-17.2 8.4,-33.64 25.6,-36.71 l 1148.96,-204.76 c 17.21,-3.06 33.65,8.4 36.71,25.61 l 135.35,759.48 10.41,58.42 17.36,97.37 c 3.06,17.21 -8.4,33.65 -25.61,36.71 l -464.05,82.7 c -11.62,2.07 -23.42,-2.49 -30.62,-11.84"
         style="fill:#f68428;fill-opacity:1;fill-rule:nonzero;stroke:none"
         transform="matrix(0.13333333,0,0,-0.13333333,0,666.66667)" />
      <path
         id="path64"
         d="m 2532.17,2364.69 -1150.91,205.1 135.35,759.48 123.82,108.54 1049.65,-187.06 -157.91,-886.06"
         style="fill:#ffffff;fill-opacity:1;fill-rule:nonzero;stroke:none"
         transform="matrix(0.13333333,0,0,-0.13333333,0,666.66667)" />
      <path
         id="path65"
         d="m 1516.61,3329.27 123.82,108.54 32.6,-138.42 z"
         style="fill:#d7d9d6;fill-opacity:1;fill-rule:nonzero;stroke:none"
         transform="matrix(0.13333333,0,0,-0.13333333,0,666.66667)" />
      <path
         id="path66"
         d="m 2188.25,3292.74 -78.13,-101.39 -599.07,106.77 c -17.2,3.06 -33.64,-8.4 -36.7,-25.61 l -140.21,-786.75 c -3.07,-17.21 8.39,-33.64 25.6,-36.71 L 2508.7,2244.3 c 17.21,-3.07 33.64,8.39 36.71,25.59 l 135.35,759.49 10.41,58.42 17.36,97.37 c 3.06,17.21 -8.4,33.64 -25.61,36.71 l -464.05,82.7 c -11.61,2.07 -23.42,-2.49 -30.62,-11.84"
         style="fill:#f9af24;fill-opacity:1;fill-rule:nonzero;stroke:none"
         transform="matrix(0.13333333,0,0,-0.13333333,0,666.66667)" />
      <path
         id="path67"
         d="m 2342.82,3061.89 c -7.31,-41.82 -31.61,-72.28 -54.49,-68.29 -22.9,4.01 -35.69,40.95 -28.38,82.77 5.88,33.68 23.26,60.19 41.75,66.72 l 0.26,-0.04 42.91,-53.86 c 0.15,-8.43 -0.4,-17.82 -2.05,-27.3"
         style="fill:#0e1726;fill-opacity:1;fill-rule:nonzero;stroke:none"
         transform="matrix(0.13333333,0,0,-0.13333333,0,666.66667)" />
      <path
         id="path68"
         d="m 1907.69,3137.92 c -7.31,-41.83 -31.62,-72.29 -54.5,-68.29 -23.16,4.05 -35.69,40.94 -28.38,82.77 2.12,12.1 5.67,23.14 10.31,32.63 l 63.57,20.89 c 10.06,-15.32 13.78,-40.64 9,-68"
         style="fill:#0e1726;fill-opacity:1;fill-rule:nonzero;stroke:none"
         transform="matrix(0.13333333,0,0,-0.13333333,0,666.66667)" />
      <path
         id="path69"
         d="m 1877.21,2801 c 52.61,50.09 103.62,69.46 148.1,69.47 77.08,0.08 135.68,-58.56 148.75,-120.49 l 7.34,1.55 c -13.81,65.22 -75.02,126.37 -156.09,126.44 -46.72,0.01 -99.66,-20.44 -153.28,-71.54 l 5.18,-5.43"
         style="fill:#0e1726;fill-opacity:1;fill-rule:nonzero;stroke:none"
         transform="matrix(0.13333333,0,0,-0.13333333,0,666.66667)" />
      <path
         id="path70"
         d="m 2652.91,1872.92 h -24.19 v 39.53 h 24.19 v -39.53 m -1306.12,0 h -24.21 v 39.53 h 24.21 v -39.53"
         style="fill:#cdcecc;fill-opacity:1;fill-rule:nonzero;stroke:none"
         transform="matrix(0.13333333,0,0,-0.13333333,0,666.66667)" />
      <path
         id="path71"
         d="m 1346.79,1872.92 h 1281.93 v 39.5273 H 1346.79 Z"
         style="fill:#adb0ae;fill-opacity:1;fill-rule:nonzero;stroke:none"
         transform="matrix(0.13333333,0,0,-0.13333333,0,666.66667)" />
      <path
         id="path72"
         d="M 2652.91,1912.65 H 1322.58 v 899.15 h 1330.33 v -899.15"
         style="fill:#d7d9d6;fill-opacity:1;fill-rule:nonzero;stroke:none"
         transform="matrix(0.13333333,0,0,-0.13333333,0,666.66667)" />
      <path
         id="path73"
         d="m 2148.26,2612.85 h -321.04 v 105.55 h 321.04 v -105.55"
         style="fill:#ffffff;fill-opacity:1;fill-rule:nonzero;stroke:none"
         transform="matrix(0.13333333,0,0,-0.13333333,0,666.66667)" />
      <path
         id="path74"
         d="m 2188.57,2516.65 h -401.66 v 43.43 h 401.66 v -43.43"
         style="fill:#4d5051;fill-opacity:1;fill-rule:nonzero;stroke:none"
         transform="matrix(0.13333333,0,0,-0.13333333,0,666.66667)" />
      <path
         id="path75"
         d="m 2429.97,1943.94 h 161.75 v 7.5 h -161.75 z"
         style="fill:#0e1726;fill-opacity:1;fill-rule:nonzero;stroke:none"
         transform="matrix(0.13333333,0,0,-0.13333333,0,666.66667)" />
      <path
         id="path76"
         d="m 2561.31,1970.32 h 30.4102 v 7.5 H 2561.31 Z"
         style="fill:#0e1726;fill-opacity:1;fill-rule:nonzero;stroke:none"
         transform="matrix(0.13333333,0,0,-0.13333333,0,666.66667)" />
      <path
         id="path77"
         d="m 1899.03,2694.86 h 184.777 v 7.5 H 1899.03 Z"
         style="fill:#0e1726;fill-opacity:1;fill-rule:nonzero;stroke:none"
         transform="matrix(0.13333333,0,0,-0.13333333,0,666.66667)" />
      <path
         id="path78"
         d="m 1862.55,2664.08 h 257.738 v 7.5 H 1862.55 Z"
         style="fill:#0e1726;fill-opacity:1;fill-rule:nonzero;stroke:none"
         transform="matrix(0.13333333,0,0,-0.13333333,0,666.66667)" />
      <path
         id="path79"
         d="m 1338.21,2768.53 h 64.0508 v 7.5 H 1338.21 Z"
         style="fill:#0e1726;fill-opacity:1;fill-rule:nonzero;stroke:none"
         transform="matrix(0.13333333,0,0,-0.13333333,0,666.66667)" />
      <path
         id="path80"
         d="m 1338.21,2725.64 h 198.02 v 7.5 h -198.02 z"
         style="fill:#0e1726;fill-opacity:1;fill-rule:nonzero;stroke:none"
         transform="matrix(0.13333333,0,0,-0.13333333,0,666.66667)" />
      <path
         id="path81"
         d="m 4021.59,3694.25 -1.61,6.99 c 8.67,1.99 17.63,3.01 26.59,3.01 h 0.05 c 8.74,0 17.47,-0.96 25.94,-2.86 l -1.56,-6.99 c -7.95,1.78 -16.17,2.68 -24.38,2.68 h -0.05 c -8.43,0 -16.83,-0.95 -24.98,-2.83 z m 124.93,-59.66 c -7.24,14.88 -17.95,28.19 -30.96,38.51 l 4.45,5.61 c 13.85,-10.98 25.24,-25.15 32.95,-40.98 z m -200.1,-0.6 -6.47,3.1 c 7.62,15.89 18.93,30.13 32.72,41.18 l 4.47,-5.59 c -12.94,-10.39 -23.58,-23.76 -30.72,-38.69 z m 206.74,-99.25 -6.45,3.12 c 7.27,15.08 10.97,31.28 10.97,48.17 l 5.12,0.33 2.03,-0.17 c 0.01,-18.13 -3.91,-35.38 -11.67,-51.45 z m -212.99,-0.21 c -7.78,16.05 -11.74,33.29 -11.77,51.25 l 7.16,0.02 c 0.04,-16.88 3.76,-33.07 11.06,-48.14 z m 132.86,-63.78 -1.6,6.99 c 16.13,3.68 31.51,11.11 44.47,21.48 l 4.48,-5.6 c -13.81,-11.03 -30.18,-18.94 -47.35,-22.87 z m -52.59,-0.04 c -17.18,3.89 -33.57,11.77 -47.4,22.78 l 4.46,5.61 c 12.99,-10.35 28.39,-17.75 44.52,-21.4 l -1.58,-6.99"
         style="fill:#1f2b34;fill-opacity:1;fill-rule:nonzero;stroke:none"
         transform="matrix(0.13333333,0,0,-0.13333333,0,666.66667)" />
      <path
         id="path82"
         d="m 4525.3,1871.58 6.71,-2.5 c -5.18,-13.87 -11.8,-27.33 -19.66,-40.02 -1.12,-1.83 -2.22,-3.55 -3.38,-5.3 l -5.98,3.95 c 1.11,1.68 2.37,3.42 3.27,5.12 7.62,12.3 14.02,25.33 19.04,38.75 z m -93,-111.5 c 14.15,8.41 27.33,18.43 39.2,29.78 l 4.96,-5.17 c -12.26,-11.73 -25.89,-22.09 -40.5,-30.77 z m 105.74,208.47 7.13,0.69 c 1.61,-16.92 1.31,-34.01 -0.88,-50.81 l -7.1,0.93 c 2.13,16.26 2.41,32.82 0.85,49.19 z m -198.9,-238.41 c 16.38,1.41 32.62,4.68 48.26,9.71 l 2.2,-6.82 c -16.16,-5.19 -32.93,-8.57 -49.84,-10.03 z m 168.1,331.3 6.12,3.72 c 8.8,-14.51 15.97,-30.04 21.32,-46.18 l -6.81,-2.25 c -5.16,15.62 -12.12,30.66 -20.63,44.71 z m -264.95,-317.67 c 15.34,-5.9 31.37,-10.05 47.65,-12.33 l -0.99,-7.09 c -16.82,2.36 -33.38,6.65 -49.23,12.73 z m 196.68,387.72 3.88,6.03 c 14.32,-9.23 27.57,-20.05 39.38,-32.16 l -5.14,-5 c -11.43,11.72 -24.26,22.2 -38.12,31.13 z m -277.32,-344.03 5.03,5.09 c 11.64,-11.5 24.65,-21.74 38.69,-30.43 l -3.77,-6.09 c -14.5,8.98 -27.94,19.55 -39.95,31.43 z m 186.23,384.5 c 16.86,-2.04 33.5,-6.02 49.44,-11.81 l -2.44,-6.74 c -15.44,5.6 -31.55,9.46 -47.87,11.44 z m -240.28,-299.11 6.76,2.38 c 5.46,-15.53 12.68,-30.44 21.45,-44.32 l -6.04,-3.83 c -9.08,14.34 -16.53,29.74 -22.17,45.77 z m 139.8,288.59 c 16.07,5.48 32.77,9.17 49.65,10.93 l 0.74,-7.12 c -16.33,-1.71 -32.52,-5.28 -48.07,-10.59 z m -151.25,-188.22 7.12,-0.8 c -1.83,-16.29 -1.81,-32.85 0.06,-49.21 l -7.13,-0.82 c -1.92,16.91 -1.94,34.01 -0.05,50.83 z m 65.35,134.96 c 12.05,11.97 25.48,22.57 39.93,31.52 l 3.78,-6.1 c -13.99,-8.66 -26.99,-18.92 -38.66,-30.5 z m -32.92,-41.47 0.03,0.05 1.11,1.76 6.05,-3.83 -1.07,-1.71 -0.02,-0.04 c -8.33,-13.44 -15.2,-27.74 -20.41,-42.54 l -6.76,2.38 c 5.39,15.28 12.48,30.05 21.07,43.93"
         style="fill:#1f2b34;fill-opacity:1;fill-rule:nonzero;stroke:none"
         transform="matrix(0.13333333,0,0,-0.13333333,0,666.66667)" />
      <path
         id="path83"
         d="m 4066.71,1776.39 c -31.95,19.79 -41.82,61.74 -22.01,93.71 19.79,31.95 61.76,41.8 93.71,22.01 31.95,-19.81 41.8,-61.76 22.01,-93.71 -19.79,-31.96 -61.76,-41.82 -93.71,-22.01"
         style="fill:#1f2b34;fill-opacity:1;fill-rule:nonzero;stroke:none"
         transform="matrix(0.13333333,0,0,-0.13333333,0,666.66667)" />
      <path
         id="path84"
         d="m 3975.78,3637.09 c 0,-19.79 -16.04,-35.83 -35.83,-35.83 -19.78,0 -35.82,16.04 -35.82,35.83 0,19.78 16.04,35.83 35.82,35.83 19.79,0 35.83,-16.05 35.83,-35.83"
         style="fill:#1f2b34;fill-opacity:1;fill-rule:nonzero;stroke:none"
         transform="matrix(0.13333333,0,0,-0.13333333,0,666.66667)" />
      <path
         id="path85"
         d="m 793.035,2476.76 c 0,-29.68 -24.055,-53.74 -53.734,-53.74 -29.676,0 -53.738,24.06 -53.738,53.74 0,29.68 24.062,53.74 53.738,53.74 29.679,0 53.734,-24.06 53.734,-53.74"
         style="fill:#1f2b34;fill-opacity:1;fill-rule:nonzero;stroke:none"
         transform="matrix(0.13333333,0,0,-0.13333333,0,666.66667)" />
      <path
         id="path86"
         d="m 793.535,2487.55 -3.406,6.31 c 15.246,8.23 32.934,12.23 50.148,11.47 l -0.316,-7.16 c -15.914,0.68 -32.309,-2.99 -46.426,-10.62 z m 123.145,-39.87 c -7.039,14.53 -17.903,26.92 -31.407,35.83 l 3.946,5.98 c 14.582,-9.62 26.304,-23 33.91,-38.68 z m -170.215,-38.99 h -7.164 c 0,17.5 4.726,34.65 13.664,49.59 l 6.152,-3.67 c -8.277,-13.84 -12.652,-29.71 -12.652,-45.92 z M 914.41,2352 l -5.801,4.21 c 9.489,13.1 15.239,28.53 16.645,44.62 l 7.133,-0.62 c -1.508,-17.39 -7.723,-34.06 -17.977,-48.21 z m -138.453,-19.13 c -13.695,10.87 -24.211,25.23 -30.387,41.5 l 6.696,2.54 c 5.722,-15.06 15.461,-28.36 28.148,-38.43 z m 60.074,-20.91 c -4.258,0 -8.531,0.28 -12.707,0.82 l 0.934,7.11 c 15.922,-2.09 32.402,0.14 47.191,6.51 l 2.832,-6.58 c -12.097,-5.21 -24.968,-7.86 -38.25,-7.86"
         style="fill:#1f2b34;fill-opacity:1;fill-rule:nonzero;stroke:none"
         transform="matrix(0.13333333,0,0,-0.13333333,0,666.66667)" />
      <path
         id="path87"
         d="m 3482.94,3632.38 c 0,0 -76.9,112.17 -173.06,56.24 -120.37,-70 25.01,-236.77 -63.96,-285.03 -88.99,-48.26 -180.98,-52.01 -206.61,-185.49 -33.53,-174.53 282.15,-419.88 549.08,-264.54 266.94,155.33 171.98,446.05 46.62,503.92 -150.83,69.62 -152.07,174.9 -152.07,174.9"
         style="fill:#0e1726;fill-opacity:1;fill-rule:nonzero;stroke:none"
         transform="matrix(0.13333333,0,0,-0.13333333,0,666.66667)" />
      <path
         id="path88"
         d="m 3430.22,3369.12 v -154.06 c 0,-19.95 8.12,-38.01 21.21,-51.09 13,-13.09 31.06,-21.2 51.01,-21.2 39.91,0 72.22,32.38 72.22,72.29 v 154.06 h -144.44"
         style="fill:#e97570;fill-opacity:1;fill-rule:nonzero;stroke:none"
         transform="matrix(0.13333333,0,0,-0.13333333,0,666.66667)" />
      <path
         id="path89"
         d="m 3684.77,3416.73 c -5.99,-29.28 -34.58,-48.15 -63.86,-42.15 -29.28,5.99 -48.16,34.58 -42.16,63.86 5.99,29.27 34.58,48.15 63.86,42.16 29.27,-6 48.15,-34.59 42.16,-63.87"
         style="fill:#e97570;fill-opacity:1;fill-rule:nonzero;stroke:none"
         transform="matrix(0.13333333,0,0,-0.13333333,0,666.66667)" />
      <path
         id="path90"
         d="m 3667.84,3440.35 -42.88,-29.01 4.2,-6.21 42.88,29.01"
         style="fill:#0e1726;fill-opacity:1;fill-rule:nonzero;stroke:none"
         transform="matrix(0.13333333,0,0,-0.13333333,0,666.66667)" />
      <path
         id="path91"
         d="m 3378.48,3427.59 c -6,-29.28 -34.59,-48.16 -63.87,-42.16 -29.28,6 -48.15,34.59 -42.16,63.86 6,29.28 34.59,48.16 63.87,42.17 29.28,-6 48.15,-34.59 42.16,-63.87"
         style="fill:#e97570;fill-opacity:1;fill-rule:nonzero;stroke:none"
         transform="matrix(0.13333333,0,0,-0.13333333,0,666.66667)" />
      <path
         id="path92"
         d="m 3330.54,3438.44 c 0,0 -30.95,33.85 -20.08,114.1 h 43.39 l -23.31,-114.1"
         style="fill:#0e1726;fill-opacity:1;fill-rule:nonzero;stroke:none"
         transform="matrix(0.13333333,0,0,-0.13333333,0,666.66667)" />
      <path
         id="path93"
         d="m 3336.98,3417.26 -41.97,40.66 -5.22,-5.38 41.98,-40.66"
         style="fill:#0e1726;fill-opacity:1;fill-rule:nonzero;stroke:none"
         transform="matrix(0.13333333,0,0,-0.13333333,0,666.66667)" />
      <path
         id="path94"
         d="m 3466.17,3649.92 c -77.71,0 -140.71,-63 -140.71,-140.71 V 3393.6 c 0,-2.88 0.23,-5.68 0.6,-8.48 2.06,-13.63 9.02,-26.2 19.85,-35.13 l 57,-47.4 c 17.27,-14.38 41.49,-17.18 61.71,-7.04 l 111.06,55.72 c 19.15,9.7 31.2,29.31 31.2,50.65 v 107.29 c 0,77.71 -63,140.71 -140.71,140.71"
         style="fill:#e97570;fill-opacity:1;fill-rule:nonzero;stroke:none"
         transform="matrix(0.13333333,0,0,-0.13333333,0,666.66667)" />
      <path
         id="path95"
         d="m 3530.48,3333.61 -64.61,-32.42 c -10.41,-5.21 -21.88,-7.93 -33.53,-7.93 h -4.8 v -7.5 h 4.8 c 12.81,0 25.44,2.99 36.89,8.73 l 64.61,32.42 -3.36,6.7"
         style="fill:#0e1726;fill-opacity:1;fill-rule:nonzero;stroke:none"
         transform="matrix(0.13333333,0,0,-0.13333333,0,666.66667)" />
      <path
         id="path96"
         d="M 3440.4,3650.46 3404,3399.8 h 49.23 v 7.5 h -40.57 l 35.16,242.08 -7.42,1.08"
         style="fill:#0e1726;fill-opacity:1;fill-rule:nonzero;stroke:none"
         transform="matrix(0.13333333,0,0,-0.13333333,0,666.66667)" />
      <path
         id="path97"
         d="m 3325.46,3470.97 v -72.15 c 1.67,-0.23 3.41,-0.38 5.22,-0.38 20.14,0 36.5,16.28 36.5,36.49 0,20.14 -16.36,36.42 -36.5,36.42 -1.81,0 -3.55,-0.15 -5.22,-0.38"
         style="fill:#e75d55;fill-opacity:1;fill-rule:nonzero;stroke:none"
         transform="matrix(0.13333333,0,0,-0.13333333,0,666.66667)" />
      <path
         id="path98"
         d="m 3496.88,3434.9 c 0,-20.15 16.32,-36.48 36.47,-36.48 20.16,0 36.48,16.33 36.48,36.48 0,20.15 -16.32,36.48 -36.48,36.48 -20.15,0 -36.47,-16.33 -36.47,-36.48"
         style="fill:#e75d55;fill-opacity:1;fill-rule:nonzero;stroke:none"
         transform="matrix(0.13333333,0,0,-0.13333333,0,666.66667)" />
      <path
         id="path99"
         d="m 3606.88,3522.44 v -91.22 c 0,0 -36.23,32.18 -35.22,95.52 l 35.22,-4.3"
         style="fill:#0e1726;fill-opacity:1;fill-rule:nonzero;stroke:none"
         transform="matrix(0.13333333,0,0,-0.13333333,0,666.66667)" />
      <path
         id="path100"
         d="m 3285.15,3669.31 c 96.18,55.91 197.82,-36.9 197.82,-36.9 0,0 -49.11,-105.67 152.03,-174.91 33.12,-11.4 74.39,-66.97 94.36,-98.76 0,0 -44.08,127.12 -57.96,209.35 -13.97,82.3 -87.05,69.58 -87.05,69.58 0,0 -44.3,108.25 -166.8,107.74 -84.85,-0.37 -132.4,-76.1 -132.4,-76.1"
         style="fill:#0e1726;fill-opacity:1;fill-rule:nonzero;stroke:none"
         transform="matrix(0.13333333,0,0,-0.13333333,0,666.66667)" />
      <path
         id="path101"
         d="m 3353.38,3463.18 c 0,-12.71 5.59,-22.94 12.55,-22.94 7.03,0 12.62,10.23 12.62,22.94 0,3.68 -0.47,7.11 -1.35,10.15 l -17.67,9.43 c -3.76,-4 -6.15,-11.27 -6.15,-19.58"
         style="fill:#0e1726;fill-opacity:1;fill-rule:nonzero;stroke:none"
         transform="matrix(0.13333333,0,0,-0.13333333,0,666.66667)" />
      <path
         id="path102"
         d="m 3370.23,3539.61 c 0.26,20.86 -7.77,28.82 -26.88,13.63 l 26.88,-13.63"
         style="fill:#0e1726;fill-opacity:1;fill-rule:nonzero;stroke:none"
         transform="matrix(0.13333333,0,0,-0.13333333,0,666.66667)" />
      <path
         id="path103"
         d="m 3525.24,3545.94 c -14.02,15.45 -25.32,15.8 -28.96,-8.33 l 28.96,8.33"
         style="fill:#0e1726;fill-opacity:1;fill-rule:nonzero;stroke:none"
         transform="matrix(0.13333333,0,0,-0.13333333,0,666.66667)" />
      <path
         id="path104"
         d="m 3485.57,3463.18 c 0,-12.71 5.59,-22.94 12.55,-22.94 6.95,0 12.63,10.23 12.63,22.94 0,10.23 -3.76,18.94 -8.87,21.82 h -0.08 l -15.43,-13.67 c -0.48,-2.47 -0.8,-5.28 -0.8,-8.15"
         style="fill:#0e1726;fill-opacity:1;fill-rule:nonzero;stroke:none"
         transform="matrix(0.13333333,0,0,-0.13333333,0,666.66667)" />
      <path
         id="path105"
         d="m 3437.86,3333.05 c 10.7,1.14 13.59,15.19 10.61,29.08 -1.76,8.09 -5.41,15.8 -10.61,19.7 -6.41,4.81 -14.12,-6.64 -17.32,-19.7 -3.74,-15.42 -1.47,-31.08 17.32,-29.08"
         style="fill:#0e1726;fill-opacity:1;fill-rule:nonzero;stroke:none"
         transform="matrix(0.13333333,0,0,-0.13333333,0,666.66667)" />
      <path
         id="path106"
         d="m 3421.6,3365.95 h 25.88 c -1.98,6.64 -5.27,12.59 -9.62,15.88 -5.8,4.35 -12.6,-4.51 -16.26,-15.88"
         style="fill:#ffffff;fill-opacity:1;fill-rule:nonzero;stroke:none"
         transform="matrix(0.13333333,0,0,-0.13333333,0,666.66667)" />
      <path
         id="path107"
         d="m 3189.29,2986.88 130.59,8.6 137.51,-44.73 -137.5,-5.35 -130.6,41.48"
         style="fill:#f9af24;fill-opacity:1;fill-rule:nonzero;stroke:none"
         transform="matrix(0.13333333,0,0,-0.13333333,0,666.66667)" />
      <path
         id="path108"
         d="m 3232.11,3108.82 -21.43,-171.2 206.1,-28.44 -30.15,306.57 -56.35,-7.67 c -51.43,-7.01 -91.73,-47.74 -98.17,-99.26"
         style="fill:#f9af24;fill-opacity:1;fill-rule:nonzero;stroke:none"
         transform="matrix(0.13333333,0,0,-0.13333333,0,666.66667)" />
      <path
         id="path109"
         d="m 3189.29,2986.88 130.6,-41.48 137.5,5.35 -26.35,-77.05 -120.76,6.28 -128.02,40.04 7.03,66.86"
         style="fill:#ffffff;fill-opacity:1;fill-rule:nonzero;stroke:none"
         transform="matrix(0.13333333,0,0,-0.13333333,0,666.66667)" />
      <path
         id="path110"
         d="m 3336.53,2672.34 h 272.46 l 175.1,339.67 c 28.85,55.95 4.79,124.65 -52.65,150.38 l -180.91,81.05 -163.9,-27.69 c -56.75,-9.58 -96.43,-61.38 -90.93,-118.67 l 40.83,-424.74"
         style="fill:#f9af24;fill-opacity:1;fill-rule:nonzero;stroke:none"
         transform="matrix(0.13333333,0,0,-0.13333333,0,666.66667)" />
      <path
         id="path111"
         d="m 3409.81,3120.79 -20.27,133.65 229.32,22.25 -21.31,-155.9 h -187.74"
         style="fill:#f9af24;fill-opacity:1;fill-rule:nonzero;stroke:none"
         transform="matrix(0.13333333,0,0,-0.13333333,0,666.66667)" />
      <path
         id="path112"
         d="m 3610.63,3216.51 c -40.09,-68.61 -89.68,-100.31 -132.24,-100.31 -44.85,0 -81.9,35.23 -91.76,99.55 0,0 -4.76,-259.82 71.51,-259.82 3.76,0 7.73,0.63 11.89,1.96 88.63,28.2 140.6,258.62 140.6,258.62 z m -18.52,-40.61 c -6.16,-21.16 -14.77,-48.08 -25.59,-75.54 -30.62,-77.71 -64.77,-124.51 -98.77,-135.33 -3.34,-1.06 -6.57,-1.6 -9.61,-1.6 -7.31,0 -13.89,3.09 -20.13,9.44 -19.07,19.42 -32.74,67.26 -39.51,138.35 -1.78,18.7 -2.86,36.76 -3.5,52.46 17.79,-34.8 47.32,-54.98 83.39,-54.98 39.43,0 79.52,24.03 113.72,67.2"
         style="fill:#ffffff;fill-opacity:1;fill-rule:nonzero;stroke:none"
         transform="matrix(0.13333333,0,0,-0.13333333,0,666.66667)" />
      <path
         id="path113"
         d="M 3276.32,1088.16 H 3139 l 55.94,424.77 h 137.32 l -55.94,-424.77"
         style="fill:#ef8c88;fill-opacity:1;fill-rule:nonzero;stroke:none"
         transform="matrix(0.13333333,0,0,-0.13333333,0,666.66667)" />
      <path
         id="path114"
         d="m 3289.39,1088.81 h -154.62 l 24.75,202.11 153.19,-11.72 -23.32,-190.39"
         style="fill:#f9af24;fill-opacity:1;fill-rule:nonzero;stroke:none"
         transform="matrix(0.13333333,0,0,-0.13333333,0,666.66667)" />
      <path
         id="path115"
         d="m 3301.47,962.68 h -350.83 l 9.17,31.3 c 3.03,10.22 7.53,19.71 13.29,28.29 12.19,18.24 30.05,32.28 51.28,39.76 l 9.51,3.34 c 9.31,3.29 18.06,7.61 26.17,12.83 6.97,4.51 13.44,9.61 19.28,15.39 12.74,12.41 22.78,27.61 29.23,44.76 h 197.13 l -3.27,-116.08 -0.96,-59.59"
         style="fill:#1f2b34;fill-opacity:1;fill-rule:nonzero;stroke:none"
         transform="matrix(0.13333333,0,0,-0.13333333,0,666.66667)" />
      <path
         id="path116"
         d="m 3097.42,1114.79 h 69.2969 v 7.5 H 3097.42 Z"
         style="fill:#ffffff;fill-opacity:1;fill-rule:nonzero;stroke:none"
         transform="matrix(0.13333333,0,0,-0.13333333,0,666.66667)" />
      <path
         id="path117"
         d="m 3079.54,1090.66 h 69.3008 v 7.5 H 3079.54 Z"
         style="fill:#ffffff;fill-opacity:1;fill-rule:nonzero;stroke:none"
         transform="matrix(0.13333333,0,0,-0.13333333,0,666.66667)" />
      <path
         id="path118"
         d="m 3235.63,1047.07 -3.75,-0.11 v -0.16 c -0.02,-2.56 -1.96,-4.51 -4.54,-4.53 -2.66,-0.03 -5.01,2.25 -5.08,4.92 v 0.15 c 0.02,2.56 1.95,4.51 4.55,4.54 2.66,0.02 5.01,-2.25 5.07,-4.93 l 3.75,0.12 3.74,0.12 c -0.23,6.78 -5.78,12.16 -12.56,12.18 -3.32,0.01 -6.37,-1.33 -8.54,-3.51 -2.18,-2.17 -3.51,-5.22 -3.51,-8.52 l 0.01,-0.4 c 0.25,-6.77 5.79,-12.15 12.57,-12.17 3.32,-0.01 6.37,1.33 8.54,3.51 2.17,2.18 3.5,5.22 3.5,8.52 l -0.01,0.38 -3.74,-0.11"
         style="fill:#ffffff;fill-opacity:1;fill-rule:nonzero;stroke:none"
         transform="matrix(0.13333333,0,0,-0.13333333,0,666.66667)" />
      <path
         id="path119"
         d="m 3193.77,1047.07 -3.75,-0.11 v -0.16 c -0.02,-2.57 -1.94,-4.51 -4.53,-4.53 -2.67,-0.03 -5.01,2.24 -5.07,4.92 l -0.01,0.15 c 0.03,2.57 1.95,4.51 4.54,4.54 2.67,0.02 5.01,-2.25 5.07,-4.93 l 3.75,0.12 3.75,0.12 c -0.24,6.78 -5.78,12.16 -12.57,12.18 -3.32,0.01 -6.37,-1.33 -8.54,-3.51 -2.17,-2.18 -3.5,-5.22 -3.49,-8.52 v -0.4 c 0.24,-6.77 5.78,-12.15 12.57,-12.17 3.32,-0.01 6.37,1.33 8.53,3.51 2.18,2.18 3.51,5.22 3.5,8.52 v 0.38 l -3.75,-0.11"
         style="fill:#ffffff;fill-opacity:1;fill-rule:nonzero;stroke:none"
         transform="matrix(0.13333333,0,0,-0.13333333,0,666.66667)" />
      <path
         id="path120"
         d="m 3301.47,962.68 h -350.83 l 9.17,31.3 c 3.03,10.22 7.53,19.71 13.29,28.29 h 329.33 l -0.96,-59.59"
         style="fill:#ffffff;fill-opacity:1;fill-rule:nonzero;stroke:none"
         transform="matrix(0.13333333,0,0,-0.13333333,0,666.66667)" />
      <path
         id="path121"
         d="m 3082.74,988.719 h 220.621 v 7.5 H 3082.74 Z"
         style="fill:#0e1726;fill-opacity:1;fill-rule:nonzero;stroke:none"
         transform="matrix(0.13333333,0,0,-0.13333333,0,666.66667)" />
      <path
         id="path122"
         d="m 3147.54,962.68 h -196.9 l 9.17,31.3 c 3.03,10.22 7.53,19.71 13.29,28.29 12.19,18.24 30.05,32.28 51.28,39.76 l 9.51,3.34 c 9.31,3.29 18.06,7.61 26.17,12.83 45.65,-21.09 79.67,-64.21 87.48,-115.52"
         style="fill:#ffffff;fill-opacity:1;fill-rule:nonzero;stroke:none"
         transform="matrix(0.13333333,0,0,-0.13333333,0,666.66667)" />
      <path
         id="path123"
         d="m 3108.57,1138.35 -4.5,17.45 c -3.16,12.29 5.81,23.99 18.41,23.99 h 17.58 c 13.88,0 27.02,-7.06 34.9,-18.73 l 15.35,-22.71 h -81.74"
         style="fill:#1f2b34;fill-opacity:1;fill-rule:nonzero;stroke:none"
         transform="matrix(0.13333333,0,0,-0.13333333,0,666.66667)" />
      <path
         id="path124"
         d="m 3683.76,2739.86 -378.74,20.53 33.18,-95.96 315.31,3.41 30.25,72.02"
         style="fill:#1f2b34;fill-opacity:1;fill-rule:nonzero;stroke:none"
         transform="matrix(0.13333333,0,0,-0.13333333,0,666.66667)" />
      <path
         id="path125"
         d="m 3338.2,2664.43 c 0,0 -129.73,-119.94 -137.42,-333.87 h 580.16 c 0,201.05 -127.43,337.28 -127.43,337.28 l -315.31,-3.41"
         style="fill:#1f2b34;fill-opacity:1;fill-rule:nonzero;stroke:none"
         transform="matrix(0.13333333,0,0,-0.13333333,0,666.66667)" />
      <path
         id="path126"
         d="m 3672.07,2587.75 h -96.69 l 2.27,-5.24 c 0.1,-0.2 11.44,-26.37 34.21,-53.56 22.75,-27.13 57.15,-55.53 103.36,-59.07 l 0.57,7.48 c -43.28,3.27 -76.1,30.06 -98.18,56.41 -11.02,13.15 -19.32,26.13 -24.84,35.8 -2.77,4.83 -4.84,8.84 -6.21,11.62 -0.68,1.4 -1.2,2.48 -1.54,3.22 l -0.49,1.08 -3.44,-1.49 v -3.75 h 90.98 v 7.5"
         style="fill:#0e1726;fill-opacity:1;fill-rule:nonzero;stroke:none"
         transform="matrix(0.13333333,0,0,-0.13333333,0,666.66667)" />
      <path
         id="path127"
         d="m 3276.14,2580.25 h 50.15 v 3.75 l -3.68,0.72 -0.22,-1.01 c -1.14,-5.16 -7.07,-29.25 -21.97,-53.19 -14.95,-23.99 -38.53,-47.62 -75.28,-53.19 l 1.12,-7.41 c 42.23,6.39 68.28,35.06 83.52,61.64 15.29,26.64 20.13,51.48 20.19,51.72 l 0.87,4.47 h -54.7 v -7.5"
         style="fill:#0e1726;fill-opacity:1;fill-rule:nonzero;stroke:none"
         transform="matrix(0.13333333,0,0,-0.13333333,0,666.66667)" />
      <path
         id="path128"
         d="m 3442.41,2657.74 9.08,-164.6 5.18,2.75 c 0.37,0.19 6.87,3.72 13.32,12.7 6.45,8.97 12.75,23.41 12.73,44.87 0,4.57 -0.28,9.46 -0.9,14.69 l -7.45,-0.89 c 0.59,-4.94 0.85,-9.53 0.85,-13.8 -0.01,-20.01 -5.75,-32.71 -11.33,-40.5 -2.79,-3.89 -5.56,-6.55 -7.59,-8.21 -1.02,-0.84 -1.85,-1.42 -2.41,-1.78 l -0.61,-0.39 -0.13,-0.07 0.04,-0.07 -0.04,0.07 v 0 l 0.04,-0.07 -0.04,0.07 1.76,-3.31 3.75,0.21 -8.76,158.75 -7.49,-0.42"
         style="fill:#0e1726;fill-opacity:1;fill-rule:nonzero;stroke:none"
         transform="matrix(0.13333333,0,0,-0.13333333,0,666.66667)" />
      <path
         id="path129"
         d="m 3552.09,2647.99 h 82.61 v 32.82 h -82.61 v -32.82"
         style="fill:#0e1726;fill-opacity:1;fill-rule:nonzero;stroke:none"
         transform="matrix(0.13333333,0,0,-0.13333333,0,666.66667)" />
      <path
         id="path130"
         d="m 3351.31,2647.99 h 28.75 v 32.82 h -28.75 v -32.82"
         style="fill:#0e1726;fill-opacity:1;fill-rule:nonzero;stroke:none"
         transform="matrix(0.13333333,0,0,-0.13333333,0,666.66667)" />
      <path
         id="path131"
         d="m 3399,2647.99 h 130.13 v 32.82 H 3399 v -32.82"
         style="fill:#0e1726;fill-opacity:1;fill-rule:nonzero;stroke:none"
         transform="matrix(0.13333333,0,0,-0.13333333,0,666.66667)" />
      <path
         id="path132"
         d="m 3423.37,2641.39 h 55.67 v 46.01 h -55.67 v -46.01"
         style="fill:#ffffff;fill-opacity:1;fill-rule:nonzero;stroke:none"
         transform="matrix(0.13333333,0,0,-0.13333333,0,666.66667)" />
      <path
         id="path133"
         d="m 3807.92,1088.45 -137.33,-6.17 -70.24,460.95 137.34,6.17 70.23,-460.95"
         style="fill:#ef8c88;fill-opacity:1;fill-rule:nonzero;stroke:none"
         transform="matrix(0.13333333,0,0,-0.13333333,0,666.66667)" />
      <path
         id="path134"
         d="m 3815.83,1088.81 -154.47,-6.95 -26.68,210.01 154.21,-9.27 26.94,-193.79"
         style="fill:#f9af24;fill-opacity:1;fill-rule:nonzero;stroke:none"
         transform="matrix(0.13333333,0,0,-0.13333333,0,666.66667)" />
      <path
         id="path135"
         d="m 3845.94,962.68 h -350.83 l 3.08,31.3 c 1.04,10.22 3.69,19.71 7.79,28.29 8.64,18.24 23.77,32.28 43.54,39.76 l 8.86,3.34 c 8.68,3.29 16.58,7.61 23.67,12.83 6.1,4.51 11.57,9.61 16.29,15.39 10.33,12.41 17.42,27.61 20.54,44.76 h 197.13 l 19.29,-116.08 10.64,-59.59"
         style="fill:#1f2b34;fill-opacity:1;fill-rule:nonzero;stroke:none"
         transform="matrix(0.13333333,0,0,-0.13333333,0,666.66667)" />
      <path
         id="path136"
         d="m 3611.57,1114.79 h 69.3008 v 7.5 H 3611.57 Z"
         style="fill:#ffffff;fill-opacity:1;fill-rule:nonzero;stroke:none"
         transform="matrix(0.13333333,0,0,-0.13333333,0,666.66667)" />
      <path
         id="path137"
         d="m 3598.38,1090.66 h 69.3125 v 7.5 H 3598.38 Z"
         style="fill:#ffffff;fill-opacity:1;fill-rule:nonzero;stroke:none"
         transform="matrix(0.13333333,0,0,-0.13333333,0,666.66667)" />
      <path
         id="path138"
         d="m 3763.68,1047.07 -3.66,-0.82 0.13,-1.07 c -0.01,-1 -0.33,-1.63 -0.78,-2.1 -0.47,-0.45 -1.15,-0.8 -2.31,-0.81 -1.34,-0.02 -2.94,0.58 -4.25,1.66 -1.32,1.06 -2.27,2.55 -2.58,3.96 l -0.13,1.07 c 0.02,1.01 0.33,1.64 0.78,2.1 0.47,0.45 1.14,0.8 2.31,0.82 1.34,0.01 2.93,-0.59 4.25,-1.67 1.31,-1.06 2.27,-2.55 2.58,-3.97 l 3.66,0.83 3.66,0.83 c -0.76,3.31 -2.69,6.1 -5.16,8.13 -2.48,2.01 -5.6,3.33 -8.99,3.34 -2.9,0.02 -5.65,-1.05 -7.58,-2.98 -1.95,-1.92 -3.02,-4.62 -3.01,-7.43 0,-0.9 0.11,-1.81 0.31,-2.71 0.76,-3.31 2.69,-6.11 5.16,-8.14 2.49,-2.01 5.6,-3.33 8.99,-3.34 2.91,-0.02 5.65,1.06 7.58,2.98 1.95,1.92 3.02,4.62 3.01,7.43 0,0.9 -0.11,1.81 -0.31,2.71 l -3.66,-0.82"
         style="fill:#ffffff;fill-opacity:1;fill-rule:nonzero;stroke:none"
         transform="matrix(0.13333333,0,0,-0.13333333,0,666.66667)" />
      <path
         id="path139"
         d="m 3721.83,1047.07 -3.66,-0.82 0.12,-1.07 c -0.01,-1.01 -0.32,-1.64 -0.78,-2.1 -0.46,-0.45 -1.14,-0.8 -2.3,-0.81 -1.34,-0.02 -2.94,0.58 -4.25,1.66 -1.32,1.06 -2.28,2.55 -2.59,3.96 l -0.12,1.07 c 0.01,1 0.33,1.64 0.78,2.1 0.47,0.45 1.14,0.8 2.31,0.82 1.34,0.01 2.93,-0.59 4.25,-1.67 1.31,-1.06 2.27,-2.55 2.58,-3.96 l 3.66,0.82 3.65,0.82 c -0.75,3.32 -2.68,6.11 -5.15,8.14 -2.49,2.01 -5.61,3.33 -8.99,3.34 -2.91,0.02 -5.65,-1.05 -7.59,-2.98 -1.94,-1.92 -3.01,-4.62 -3,-7.43 0,-0.9 0.1,-1.81 0.31,-2.71 0.75,-3.31 2.68,-6.11 5.16,-8.14 2.48,-2.01 5.6,-3.33 8.99,-3.34 2.9,-0.02 5.65,1.05 7.58,2.98 1.95,1.92 3.01,4.62 3,7.43 0,0.9 -0.1,1.81 -0.31,2.71 l -3.65,-0.82"
         style="fill:#ffffff;fill-opacity:1;fill-rule:nonzero;stroke:none"
         transform="matrix(0.13333333,0,0,-0.13333333,0,666.66667)" />
      <path
         id="path140"
         d="m 3845.94,962.68 h -350.83 l 3.08,31.3 c 1.04,10.22 3.69,19.71 7.79,28.29 h 329.32 l 10.64,-59.59"
         style="fill:#ffffff;fill-opacity:1;fill-rule:nonzero;stroke:none"
         transform="matrix(0.13333333,0,0,-0.13333333,0,666.66667)" />
      <path
         id="path141"
         d="m 3618.85,988.719 h 220.609 v 7.5 H 3618.85 Z"
         style="fill:#0e1726;fill-opacity:1;fill-rule:nonzero;stroke:none"
         transform="matrix(0.13333333,0,0,-0.13333333,0,666.66667)" />
      <path
         id="path142"
         d="m 3692,962.68 h -196.89 l 3.08,31.3 c 1.04,10.22 3.69,19.71 7.79,28.29 8.64,18.24 23.77,32.28 43.54,39.76 l 8.86,3.34 c 8.68,3.29 16.58,7.61 23.67,12.83 49.77,-21.09 92.16,-64.21 109.95,-115.52"
         style="fill:#ffffff;fill-opacity:1;fill-rule:nonzero;stroke:none"
         transform="matrix(0.13333333,0,0,-0.13333333,0,666.66667)" />
      <path
         id="path143"
         d="m 3618.88,1138.35 -7.89,17.45 c -5.57,12.29 1.14,23.99 13.74,23.99 h 17.57 c 13.87,0 28.39,-7.06 38.54,-18.73 l 19.78,-22.71 h -81.74"
         style="fill:#1f2b34;fill-opacity:1;fill-rule:nonzero;stroke:none"
         transform="matrix(0.13333333,0,0,-0.13333333,0,666.66667)" />
      <path
         id="path144"
         d="m 3477.96,2340.85 -82.68,-1005.34 h -287.23 l 93.55,1001.25 276.36,4.09"
         style="fill:#1f2b34;fill-opacity:1;fill-rule:nonzero;stroke:none"
         transform="matrix(0.13333333,0,0,-0.13333333,0,666.66667)" />
      <path
         id="path145"
         d="m 3735.49,1880.12 101.13,-544.61 h -287.23 l -90.25,540.52 276.35,4.09"
         style="fill:#1f2b34;fill-opacity:1;fill-rule:nonzero;stroke:none"
         transform="matrix(0.13333333,0,0,-0.13333333,0,666.66667)" />
      <path
         id="path146"
         d="m 3735.49,1880.12 c 0,0 45.45,298.51 45.24,451.97 H 3493.5 l -34.36,-456.06 276.35,4.09"
         style="fill:#1f2b34;fill-opacity:1;fill-rule:nonzero;stroke:none"
         transform="matrix(0.13333333,0,0,-0.13333333,0,666.66667)" />
      <path
         id="path147"
         d="m 3334.86,3065.62 c -97.34,-144.07 -92.3,-213.09 27.24,-265.86 l -27.24,265.86"
         style="fill:#f9af24;fill-opacity:1;fill-rule:nonzero;stroke:none"
         transform="matrix(0.13333333,0,0,-0.13333333,0,666.66667)" />
      <path
         id="path148"
         d="m 3269.99,2943.6 54.6,99.75 -25.48,55.3 -6.81,-3.13 23.89,-51.88 -52.78,-96.44 6.58,-3.6"
         style="fill:#0e1726;fill-opacity:1;fill-rule:nonzero;stroke:none"
         transform="matrix(0.13333333,0,0,-0.13333333,0,666.66667)" />
      <path
         id="path149"
         d="m 3355.04,1335.14 99.56,1024.08 h 46.95 v 7.5 h -53.75 l -100.22,-1030.85 7.46,-0.73"
         style="fill:#0e1726;fill-opacity:1;fill-rule:nonzero;stroke:none"
         transform="matrix(0.13333333,0,0,-0.13333333,0,666.66667)" />
      <path
         id="path150"
         d="m 3631.65,2645.81 c 0,-0.01 0.36,-0.51 1.08,-1.56 10.82,-15.62 98.21,-147.55 98.14,-300.48 0,-16.82 -1.05,-33.9 -3.38,-51.12 -25.1,-186.07 -47.46,-412.14 -47.46,-412.16 l -0.06,-0.57 112.68,-545.17 7.34,1.52 -112.56,544.61 -3.67,-0.76 3.73,-0.37 c 0.01,0.04 1.4,14.12 3.89,38.21 7.46,72.27 24.74,234.28 43.55,373.69 2.37,17.57 3.44,34.98 3.44,52.12 -0.08,166.16 -100.47,306.09 -100.62,306.4 l -6.1,-4.36"
         style="fill:#0e1726;fill-opacity:1;fill-rule:nonzero;stroke:none"
         transform="matrix(0.13333333,0,0,-0.13333333,0,666.66667)" />
      <path
         id="path151"
         d="m 3693.55,3080.77 46.86,-78.23 6.43,3.85 -46.86,78.24"
         style="fill:#0e1726;fill-opacity:1;fill-rule:nonzero;stroke:none"
         transform="matrix(0.13333333,0,0,-0.13333333,0,666.66667)" />
      <path
         id="path152"
         d="m 3794.47,1247.23 -154.25,5.89 -0.29,-7.49 154.25,-5.89"
         style="fill:#0e1726;fill-opacity:1;fill-rule:nonzero;stroke:none"
         transform="matrix(0.13333333,0,0,-0.13333333,0,666.66667)" />
      <path
         id="path153"
         d="m 3312.71,1246.43 -157.08,12.79"
         style="fill:#f9af24;fill-opacity:1;fill-rule:nonzero;stroke:none"
         transform="matrix(0.13333333,0,0,-0.13333333,0,666.66667)" />
      <path
         id="path154"
         d="m 3313.02,1250.16 -157.08,12.8 -0.61,-7.48 157.08,-12.79"
         style="fill:#1f2b34;fill-opacity:1;fill-rule:nonzero;stroke:none"
         transform="matrix(0.13333333,0,0,-0.13333333,0,666.66667)" />
      <path
         id="path155"
         d="m 3448.52,2912.35 v 0 c 14.71,-34.62 42.19,-56.07 61.36,-47.91 l 180.13,71.96 c 19.18,8.15 22.78,42.82 8.07,77.44 -14.73,34.61 -42.2,56.06 -61.38,47.91 l -172.71,-71.85 c -13.8,-6.13 -22.45,-23.12 -21.85,-46.97 0.24,-9.66 1.96,-20.2 6.38,-30.58"
         style="fill:#ef8c88;fill-opacity:1;fill-rule:nonzero;stroke:none"
         transform="matrix(0.13333333,0,0,-0.13333333,0,666.66667)" />
      <path
         id="path156"
         d="m 3807.66,3081.58 v 0 c -10.97,40.3 -44.05,70.76 -85.11,78.37 l -0.52,0.09 c -30.61,5.68 -62.05,-4.13 -84.01,-26.19 l -71.06,-71.39 157.38,-144.06 64.74,77.16 c 20.01,23.85 26.96,56.04 18.58,86.02"
         style="fill:#f9af24;fill-opacity:1;fill-rule:nonzero;stroke:none"
         transform="matrix(0.13333333,0,0,-0.13333333,0,666.66667)" />
      <path
         id="path157"
         d="m 3758.01,2929.62 -177.78,163.14 -40.02,-50.13 188.01,-145.97 29.79,32.96"
         style="fill:#ffffff;fill-opacity:1;fill-rule:nonzero;stroke:none"
         transform="matrix(0.13333333,0,0,-0.13333333,0,666.66667)" />
      <path
         id="path158"
         d="m 3534.26,3267.85 c 33.19,55.11 90.84,88.47 90.84,88.47 l -78.48,88.93 c -88.74,-70.37 -93.47,-129.93 -90.77,-164.42 l 78.41,-12.98"
         style="fill:#ef8c88;fill-opacity:1;fill-rule:nonzero;stroke:none"
         transform="matrix(0.13333333,0,0,-0.13333333,0,666.66667)" />
      <path
         id="path159"
         d="m 3625.1,3356.32 c 0,0 34.91,48.22 32.59,98.92 l -56.65,42.7 c 0,0 -11.46,-50.76 -36.94,-72.5 0,0 19.13,52.34 10.22,82.35 l -20.71,-5.13 c 0,0 -6.29,-51.38 -38.77,-91.67 l 110.26,-54.67"
         style="fill:#ef8c88;fill-opacity:1;fill-rule:nonzero;stroke:none"
         transform="matrix(0.13333333,0,0,-0.13333333,0,666.66667)" />
      <path
         id="path160"
         d="m 3639.36,3466.58 c 0,-0.01 -0.71,-3.1 -2.06,-8.31 -4.06,-15.61 -13.99,-50.05 -27.26,-73.76 l 6.54,-3.66 c 18.52,33.21 30.03,83.89 30.09,84.06 l -7.31,1.67"
         style="fill:#0e1726;fill-opacity:1;fill-rule:nonzero;stroke:none"
         transform="matrix(0.13333333,0,0,-0.13333333,0,666.66667)" />
      <path
         id="path161"
         d="m 3617.4,3483.39 c 0,0 -0.1,-0.66 -0.35,-1.96 -1.66,-9.11 -10.03,-48.3 -32.25,-79.97 l 6.14,-4.3 c 26.61,38.07 33.79,84.8 33.87,85.08 l -7.41,1.15"
         style="fill:#0e1726;fill-opacity:1;fill-rule:nonzero;stroke:none"
         transform="matrix(0.13333333,0,0,-0.13333333,0,666.66667)" />
      <path
         id="path162"
         d="m 3580.23,2988.63 -40.02,288.51 -84.85,14.75 c -43.73,-124.55 -51.96,-257.23 -7.6,-377.66 l 132.47,74.4"
         style="fill:#ef8c88;fill-opacity:1;fill-rule:nonzero;stroke:none"
         transform="matrix(0.13333333,0,0,-0.13333333,0,666.66667)" />
      <path
         id="path163"
         d="m 3312.27,3241.85 c -20.58,60.96 -69.71,105.93 -69.71,105.93 l 95.75,69.98 c 71.55,-87.8 63.37,-146.98 53.32,-180.08 l -79.36,4.17"
         style="fill:#ef8c88;fill-opacity:1;fill-rule:nonzero;stroke:none"
         transform="matrix(0.13333333,0,0,-0.13333333,0,666.66667)" />
      <path
         id="path164"
         d="m 3242.56,3347.78 c 0,0 -23.73,54.59 -10.56,103.61 l 64.5,29.53 c 0,0 0.28,-52.04 20.49,-78.74 0,0 -7.44,55.22 7.72,82.62 l 19.11,-9.47 c 0,0 -4.89,-51.53 18.17,-97.85 l -119.43,-29.7"
         style="fill:#ef8c88;fill-opacity:1;fill-rule:nonzero;stroke:none"
         transform="matrix(0.13333333,0,0,-0.13333333,0,666.66667)" />
      <path
         id="path165"
         d="m 3244.83,3458.46 c 0.03,-0.17 0.37,-52.14 11.32,-88.56 l 7.18,2.17 c -5.24,17.32 -8.03,39.03 -9.46,56.32 -0.72,8.64 -1.1,16.19 -1.31,21.57 -0.2,5.38 -0.23,8.55 -0.23,8.56 l -7.5,-0.06"
         style="fill:#0e1726;fill-opacity:1;fill-rule:nonzero;stroke:none"
         transform="matrix(0.13333333,0,0,-0.13333333,0,666.66667)" />
      <path
         id="path166"
         d="m 3269.9,3470.69 c 0,-0.07 -0.19,-3.07 -0.19,-8.2 0.02,-15.41 1.61,-49.98 14.98,-82.17 l 6.93,2.88 c -12.76,30.61 -14.42,64.43 -14.41,79.29 0,2.47 0.05,4.42 0.09,5.75 0.04,1.32 0.09,1.98 0.09,1.98 l -7.49,0.47"
         style="fill:#0e1726;fill-opacity:1;fill-rule:nonzero;stroke:none"
         transform="matrix(0.13333333,0,0,-0.13333333,0,666.66667)" />
      <path
         id="path167"
         d="m 3394.3,3247.55 -82.03,-5.7 c 0,0 -122.86,-295.14 -122.86,-314.54 0,-41.58 33.72,-75.28 75.3,-75.28 31.11,0 57.54,19 68.97,45.95 0.79,1.86 75.3,228.77 60.62,349.57"
         style="fill:#ef8c88;fill-opacity:1;fill-rule:nonzero;stroke:none"
         transform="matrix(0.13333333,0,0,-0.13333333,0,666.66667)" />
      <path
         id="path168"
         d="m 495.906,964.359 h 3959.79 v 10 H 495.906 Z"
         style="fill:#0e1726;fill-opacity:1;fill-rule:nonzero;stroke:none"
         transform="matrix(0.13333333,0,0,-0.13333333,0,666.66667)" />
    </g>
  </g>
</svg>
