<?xml version="1.0" encoding="UTF-8" standalone="no"?>
<!-- Created with Inkscape (http://www.inkscape.org/) -->

<svg
   version="1.1"
   id="svg1"
   width="666.66669"
   height="666.66669"
   viewBox="0 0 666.66669 666.66669"
   sodipodi:docname="6908857.eps"
   xmlns:inkscape="http://www.inkscape.org/namespaces/inkscape"
   xmlns:sodipodi="http://sodipodi.sourceforge.net/DTD/sodipodi-0.dtd"
   xmlns="http://www.w3.org/2000/svg"
   xmlns:svg="http://www.w3.org/2000/svg">
  <defs
     id="defs1" />
  <sodipodi:namedview
     id="namedview1"
     pagecolor="#ffffff"
     bordercolor="#000000"
     borderopacity="0.25"
     inkscape:showpageshadow="2"
     inkscape:pageopacity="0.0"
     inkscape:pagecheckerboard="0"
     inkscape:deskcolor="#d1d1d1">
    <inkscape:page
       x="0"
       y="0"
       inkscape:label="1"
       id="page1"
       width="666.66669"
       height="666.66669"
       margin="0"
       bleed="0" />
  </sodipodi:namedview>
  <g
     id="g1"
     inkscape:groupmode="layer"
     inkscape:label="1">
    <g
       id="group-R5">

      <path
         id="path3"
         d="m 814.66,1476.31 -424.394,194.85 374.945,309.95 -130.426,579.7 594.055,226.61 106.44,682.49 713.78,-255.39 581.88,402.29 581.48,-266.46 533.1,-106.92 105.7,-614.84 637.57,-204.55 -357.94,-466.98 308.18,-440.91 -283.76,-414.77 H 700.895 l 113.765,374.93"
         style="fill:#0261e6;fill-opacity:1;fill-rule:nonzero;stroke:none"
         transform="matrix(0.13333333,0,0,-0.13333333,0,666.66667)" />
      <path
         id="path4"
         d="m 3433.72,2615.63 -47.77,38.14 c -10.74,8.58 -12.49,24.23 -3.92,34.96 l 375.79,470.64 c 8.57,10.74 24.22,12.49 34.96,3.92 l 47.77,-38.14 c 10.73,-8.57 12.49,-24.23 3.91,-34.96 l -375.78,-470.64 c -8.57,-10.74 -24.23,-12.49 -34.96,-3.92"
         style="fill:#fac318;fill-opacity:1;fill-rule:nonzero;stroke:none"
         transform="matrix(0.13333333,0,0,-0.13333333,0,666.66667)" />
      <path
         id="path5"
         d="m 3777.29,2341.31 -353.07,281.91 406.83,509.51 353.07,-281.91 -406.83,-509.51"
         style="fill:#51b6e0;fill-opacity:1;fill-rule:nonzero;stroke:none"
         transform="matrix(0.13333333,0,0,-0.13333333,0,666.66667)" />
      <path
         id="path6"
         d="m 3460.55,2491.33 -3.69,54.39 -53.86,-8.43 50.16,62.82 57.56,-45.96 -50.17,-62.82"
         style="fill:#ee1f95;fill-opacity:1;fill-rule:nonzero;stroke:none"
         transform="matrix(0.13333333,0,0,-0.13333333,0,666.66667)" />
      <path
         id="path7"
         d="m 3917.54,3063.67 -57.56,45.96 8.39,10.5 57.56,-45.96 -8.39,-10.5"
         style="fill:#ee1f95;fill-opacity:1;fill-rule:nonzero;stroke:none"
         transform="matrix(0.13333333,0,0,-0.13333333,0,666.66667)" />
      <path
         id="path8"
         d="m 3857.46,2857.11 h 0.09 z m 57.64,92.9 c -14.93,0 -39.41,-36.98 -52.78,-94.04 v 0 c -6.51,-27.79 -8.97,-54.69 -6.92,-75.76 1.81,-18.75 7.14,-30.93 14.26,-32.59 7.17,-1.63 17.32,6.88 27.27,22.86 11.18,17.98 20.93,43.18 27.43,70.96 13.95,59.57 7.33,104.92 -7.34,108.36 -0.62,0.14 -1.26,0.21 -1.92,0.21 z m -43.52,-212.61 c -1.41,-0.01 -2.81,0.16 -4.2,0.48 -12,2.81 -19.59,17.11 -21.94,41.36 -2.14,22.13 0.4,50.19 7.15,79.01 12.58,53.73 40.25,107.39 66.71,101.28 26.47,-6.2 27.38,-66.64 14.8,-120.37 -6.75,-28.82 -16.94,-55.09 -28.69,-73.96 -11.38,-18.3 -22.99,-27.8 -33.83,-27.8"
         style="fill:#151520;fill-opacity:1;fill-rule:nonzero;stroke:none"
         transform="matrix(0.13333333,0,0,-0.13333333,0,666.66667)" />
      <path
         id="path9"
         d="m 3882.45,2878.64 v 0 c -57.49,-20.93 -91.82,-51.29 -86.67,-65.45 2.51,-6.87 15.28,-10.74 34.06,-10.3 21.16,0.48 47.59,6.12 74.4,15.88 26.82,9.76 50.68,22.43 67.2,35.67 14.69,11.78 21.97,22.91 19.46,29.78 -5.15,14.16 -50.97,15.34 -108.45,-5.58 z m -55.49,-85.78 c -22.54,0 -36.54,5.82 -40.57,16.91 -9.3,25.55 40.79,59.39 92.64,78.27 v 0 c 51.84,18.87 111.97,25.14 121.27,-0.4 4.22,-11.59 -3.6,-25.77 -22.61,-41 -17.34,-13.91 -42.21,-27.14 -70.03,-37.27 -27.81,-10.12 -55.37,-15.98 -77.6,-16.48 -1.05,-0.02 -2.08,-0.03 -3.1,-0.03"
         style="fill:#151520;fill-opacity:1;fill-rule:nonzero;stroke:none"
         transform="matrix(0.13333333,0,0,-0.13333333,0,666.66667)" />
      <path
         id="path10"
         d="m 3828.43,2924.51 c -4.01,0 -7.1,-0.96 -9.05,-2.94 -10.57,-10.73 8.02,-52.61 51.61,-95.56 20.32,-20.02 42.01,-36.14 61.06,-45.37 16.95,-8.22 30.12,-10.02 35.25,-4.8 10.58,10.73 -8.01,52.62 -51.6,95.56 -20.32,20.03 -42.01,36.14 -61.06,45.38 -10.54,5.11 -19.62,7.73 -26.21,7.73 z m 129.85,-161.63 c -8.27,0 -18.56,2.92 -30.59,8.76 -20.01,9.69 -42.64,26.48 -63.73,47.25 -39.3,38.73 -70.78,90.33 -51.69,109.7 8.63,8.8 24.8,7.82 46.73,-2.81 20.01,-9.7 42.64,-26.48 63.72,-47.26 39.31,-38.72 70.79,-90.33 51.7,-109.7 -3.9,-3.97 -9.34,-5.94 -16.14,-5.94"
         style="fill:#151520;fill-opacity:1;fill-rule:nonzero;stroke:none"
         transform="matrix(0.13333333,0,0,-0.13333333,0,666.66667)" />
      <path
         id="path11"
         d="m 3793.11,2847.99 c -2.17,-9.29 3.59,-18.58 12.88,-20.76 9.29,-2.17 18.59,3.6 20.76,12.88 2.18,9.29 -3.59,18.59 -12.88,20.76 -9.29,2.18 -18.58,-3.59 -20.76,-12.88"
         style="fill:#fac318;fill-opacity:1;fill-rule:nonzero;stroke:none"
         transform="matrix(0.13333333,0,0,-0.13333333,0,666.66667)" />
      <path
         id="path12"
         d="m 3919.69,2929.44 c -2.18,-9.29 3.59,-18.58 12.88,-20.76 9.29,-2.17 18.58,3.59 20.76,12.88 2.17,9.29 -3.6,18.58 -12.88,20.76 -9.29,2.18 -18.59,-3.59 -20.76,-12.88"
         style="fill:#fac318;fill-opacity:1;fill-rule:nonzero;stroke:none"
         transform="matrix(0.13333333,0,0,-0.13333333,0,666.66667)" />
      <path
         id="path13"
         d="m 3918.8,2774.14 c -2.18,-9.28 3.59,-18.58 12.88,-20.75 9.29,-2.18 18.58,3.59 20.76,12.87 2.17,9.29 -3.59,18.59 -12.88,20.76 -9.29,2.18 -18.59,-3.59 -20.76,-12.88"
         style="fill:#fac318;fill-opacity:1;fill-rule:nonzero;stroke:none"
         transform="matrix(0.13333333,0,0,-0.13333333,0,666.66667)" />
      <path
         id="path14"
         d="m 3740.65,2487.28 -165.97,132.52 c -6.3,5.02 -7.33,14.21 -2.3,20.51 l 31.17,39.04 c 5.03,6.29 14.21,7.32 20.51,2.3 l 165.97,-132.52 c 6.3,-5.03 7.33,-14.22 2.3,-20.52 l -31.17,-39.04 c -5.03,-6.3 -14.21,-7.32 -20.51,-2.29"
         style="fill:#ffffff;fill-opacity:1;fill-rule:nonzero;stroke:none"
         transform="matrix(0.13333333,0,0,-0.13333333,0,666.66667)" />
      <path
         id="path15"
         d="m 3806.73,2561.66 c -1.1,0 -2.19,0.36 -3.12,1.09 l -174.67,139.47 c -2.16,1.73 -2.51,4.87 -0.79,7.03 1.73,2.16 4.88,2.51 7.03,0.78 l 174.67,-139.46 c 2.16,-1.73 2.51,-4.87 0.79,-7.03 -0.99,-1.24 -2.44,-1.88 -3.91,-1.88"
         style="fill:#151520;fill-opacity:1;fill-rule:nonzero;stroke:none"
         transform="matrix(0.13333333,0,0,-0.13333333,0,666.66667)" />
      <path
         id="path16"
         d="m 3826.34,2586.22 c -1.1,0 -2.19,0.36 -3.12,1.09 l -174.67,139.47 c -2.16,1.73 -2.51,4.87 -0.79,7.03 1.73,2.15 4.87,2.51 7.03,0.79 l 174.67,-139.47 c 2.16,-1.73 2.51,-4.87 0.79,-7.03 -0.99,-1.23 -2.44,-1.88 -3.91,-1.88"
         style="fill:#151520;fill-opacity:1;fill-rule:nonzero;stroke:none"
         transform="matrix(0.13333333,0,0,-0.13333333,0,666.66667)" />
      <path
         id="path17"
         d="m 2206.62,2046.22 -257.75,-102.44 c -27.3,-10.85 -58.23,2.49 -69.08,29.79 l -48.89,123.01 c -10.85,27.3 2.48,58.22 29.79,69.08 l 257.75,102.44 c 27.3,10.85 58.23,-2.49 69.08,-29.79 l 48.89,-123.01 c 10.85,-27.3 -2.49,-58.23 -29.79,-69.08"
         style="fill:#202b44;fill-opacity:1;fill-rule:nonzero;stroke:none"
         transform="matrix(0.13333333,0,0,-0.13333333,0,666.66667)" />
      <path
         id="path18"
         d="m 1946.58,1964.39 c -19.85,-7.89 -42.34,1.81 -50.23,21.66 l -44.84,112.81 c -7.89,19.86 1.81,42.35 21.66,50.24 l 32.98,13.11 114.37,-168.43 -73.94,-29.39"
         style="fill:#ef2b57;fill-opacity:1;fill-rule:nonzero;stroke:none"
         transform="matrix(0.13333333,0,0,-0.13333333,0,666.66667)" />
      <path
         id="path19"
         d="m 2116.47,2245.8 c 19.85,7.88 42.34,-1.81 50.23,-21.66 l 44.84,-112.82 c 7.89,-19.85 -1.81,-42.34 -21.66,-50.23 l -32.98,-13.11 -114.37,168.43 73.94,29.39"
         style="fill:#314370;fill-opacity:1;fill-rule:nonzero;stroke:none"
         transform="matrix(0.13333333,0,0,-0.13333333,0,666.66667)" />
      <path
         id="path20"
         d="m 2256.85,2120.68 -19.5,-7.75 -50.77,127.76 19.49,7.75 c 13.17,5.23 28.1,-1.2 33.33,-14.37 l 31.82,-80.06 c 5.23,-13.18 -1.2,-28.1 -14.37,-33.33"
         style="fill:#202b44;fill-opacity:1;fill-rule:nonzero;stroke:none"
         transform="matrix(0.13333333,0,0,-0.13333333,0,666.66667)" />
      <path
         id="path21"
         d="m 2135.87,2038.94 -89.59,-35.61 -114.61,169.02 89.6,35.61 114.6,-169.02"
         style="fill:#314370;fill-opacity:1;fill-rule:nonzero;stroke:none"
         transform="matrix(0.13333333,0,0,-0.13333333,0,666.66667)" />
      <path
         id="path22"
         d="m 795.23,2112.44 c -25.8,38.82 -78.187,49.38 -117.011,23.58 -38.821,-25.8 -49.375,-78.19 -23.571,-117.01 l 140.582,93.43"
         style="fill:#f8a00e;fill-opacity:1;fill-rule:nonzero;stroke:none"
         transform="matrix(0.13333333,0,0,-0.13333333,0,666.66667)" />
      <path
         id="path23"
         d="m 1395.69,2002.98 c 0,0 -216.68,326.04 -234.43,352.73 -25.8,38.82 -78.19,49.38 -117.01,23.58 L 678.219,2136.02 c 38.824,25.8 91.211,15.24 117.011,-23.58 45.036,-67.76 208.34,-313.47 234.44,-352.73 25.8,-38.82 78.18,-49.38 117,-23.58 62.07,41.25 366.03,243.28 366.03,243.28"
         style="fill:#fac318;fill-opacity:1;fill-rule:nonzero;stroke:none"
         transform="matrix(0.13333333,0,0,-0.13333333,0,666.66667)" />
      <path
         id="path24"
         d="m 1146.67,1736.13 c 38.82,25.81 49.38,78.19 23.58,117.01 l 366.03,243.28 c 25.8,-38.82 15.25,-91.21 -23.58,-117.01 l -366.03,-243.28"
         style="fill:#f8a00e;fill-opacity:1;fill-rule:nonzero;stroke:none"
         transform="matrix(0.13333333,0,0,-0.13333333,0,666.66667)" />
      <path
         id="path25"
         d="m 964.859,2004.71 c -1.617,0 -3.211,0.78 -4.171,2.23 -1.528,2.3 -0.903,5.4 1.398,6.93 l 236.844,157.41 c 2.3,1.53 5.4,0.92 6.93,-1.4 1.53,-2.29 0.91,-5.4 -1.39,-6.92 L 967.621,2005.55 c -0.851,-0.57 -1.808,-0.84 -2.762,-0.84"
         style="fill:#151520;fill-opacity:1;fill-rule:nonzero;stroke:none"
         transform="matrix(0.13333333,0,0,-0.13333333,0,666.66667)" />
      <path
         id="path26"
         d="m 1014.52,1929.98 c -1.62,0 -3.21,0.78 -4.17,2.24 -1.53,2.29 -0.9,5.4 1.4,6.92 l 236.84,157.41 c 2.31,1.54 5.4,0.92 6.94,-1.39 1.53,-2.3 0.9,-5.4 -1.4,-6.93 l -236.85,-157.41 c -0.85,-0.57 -1.81,-0.84 -2.76,-0.84"
         style="fill:#151520;fill-opacity:1;fill-rule:nonzero;stroke:none"
         transform="matrix(0.13333333,0,0,-0.13333333,0,666.66667)" />
      <path
         id="path27"
         d="m 1064.18,1855.25 c -1.61,0 -3.2,0.79 -4.17,2.24 -1.52,2.3 -0.9,5.4 1.4,6.92 l 236.85,157.42 c 2.29,1.53 5.4,0.91 6.93,-1.4 1.53,-2.29 0.9,-5.4 -1.4,-6.92 l -236.84,-157.42 c -0.86,-0.56 -1.81,-0.84 -2.77,-0.84"
         style="fill:#151520;fill-opacity:1;fill-rule:nonzero;stroke:none"
         transform="matrix(0.13333333,0,0,-0.13333333,0,666.66667)" />
      <path
         id="path28"
         d="m 998.344,2145.14 c -0.34,0 -0.684,0.03 -1.031,0.1 -2.704,0.57 -4.43,3.22 -3.868,5.92 l 24.955,119 c 0.56,2.69 3.25,4.46 5.92,3.86 2.71,-0.56 4.43,-3.21 3.87,-5.91 l -24.96,-119 c -0.49,-2.35 -2.57,-3.97 -4.886,-3.97"
         style="fill:#ef2b57;fill-opacity:1;fill-rule:nonzero;stroke:none"
         transform="matrix(0.13333333,0,0,-0.13333333,0,666.66667)" />
      <path
         id="path29"
         d="m 1070.32,2192.16 c -0.34,0 -0.68,0.03 -1.03,0.11 l -118.997,24.95 c -2.703,0.56 -4.434,3.21 -3.867,5.92 0.566,2.7 3.238,4.46 5.918,3.86 l 118.996,-24.95 c 2.71,-0.57 4.44,-3.21 3.87,-5.92 -0.49,-2.35 -2.57,-3.97 -4.89,-3.97"
         style="fill:#ef2b57;fill-opacity:1;fill-rule:nonzero;stroke:none"
         transform="matrix(0.13333333,0,0,-0.13333333,0,666.66667)" />
      <path
         id="path30"
         d="m 1782.25,2600.14 -479.38,210.29 106.53,242.84 479.38,-210.29 -106.53,-242.84"
         style="fill:#2094d4;fill-opacity:1;fill-rule:nonzero;stroke:none"
         transform="matrix(0.13333333,0,0,-0.13333333,0,666.66667)" />
      <path
         id="path31"
         d="m 1671.72,2793.41 c -18.39,-41.91 -67.27,-60.98 -109.18,-42.59 -41.92,18.38 -60.99,67.27 -42.6,109.18 18.39,41.91 67.27,60.98 109.18,42.6 41.91,-18.39 60.99,-67.27 42.6,-109.19"
         style="fill:#7ed6f7;fill-opacity:1;fill-rule:nonzero;stroke:none"
         transform="matrix(0.13333333,0,0,-0.13333333,0,666.66667)" />
      <path
         id="path32"
         d="m 1395.03,2953.61 c 34.44,-15.11 74.61,0.56 89.71,35 l -62.35,27.36 -27.36,-62.36"
         style="fill:#7ed6f7;fill-opacity:1;fill-rule:nonzero;stroke:none"
         transform="matrix(0.13333333,0,0,-0.13333333,0,666.66667)" />
      <path
         id="path33"
         d="m 1825.19,2764.91 c -34.44,15.11 -50.11,55.27 -35,89.71 l 62.35,-27.35 -27.35,-62.36"
         style="fill:#7ed6f7;fill-opacity:1;fill-rule:nonzero;stroke:none"
         transform="matrix(0.13333333,0,0,-0.13333333,0,666.66667)" />
      <path
         id="path34"
         d="m 1366.47,2888.5 c 34.44,-15.1 50.11,-55.27 35,-89.71 l -62.35,27.36 27.35,62.35"
         style="fill:#7ed6f7;fill-opacity:1;fill-rule:nonzero;stroke:none"
         transform="matrix(0.13333333,0,0,-0.13333333,0,666.66667)" />
      <path
         id="path35"
         d="m 1796.63,2699.8 c -34.44,15.11 -74.61,-0.56 -89.72,-35 l 62.36,-27.35 27.36,62.35"
         style="fill:#7ed6f7;fill-opacity:1;fill-rule:nonzero;stroke:none"
         transform="matrix(0.13333333,0,0,-0.13333333,0,666.66667)" />
      <path
         id="path36"
         d="m 1800.03,2596.73 -446.64,273.03 138.32,226.25 446.63,-273.03 -138.31,-226.25"
         style="fill:#35abe1;fill-opacity:1;fill-rule:nonzero;stroke:none"
         transform="matrix(0.13333333,0,0,-0.13333333,0,666.66667)" />
      <path
         id="path37"
         d="m 1716.57,2803.15 c -23.87,-39.05 -74.88,-51.36 -113.93,-27.49 -39.05,23.88 -51.35,74.89 -27.48,113.94 23.87,39.05 74.88,51.35 113.93,27.48 39.05,-23.87 51.35,-74.88 27.48,-113.93"
         style="fill:#7ed6f7;fill-opacity:1;fill-rule:nonzero;stroke:none"
         transform="matrix(0.13333333,0,0,-0.13333333,0,666.66667)" />
      <path
         id="path38"
         d="m 1464.02,2999.2 c 32.09,-19.61 74,-9.5 93.61,22.58 l -58.09,35.52 -35.52,-58.1"
         style="fill:#7ed6f7;fill-opacity:1;fill-rule:nonzero;stroke:none"
         transform="matrix(0.13333333,0,0,-0.13333333,0,666.66667)" />
      <path
         id="path39"
         d="m 1864.79,2754.2 c -32.08,19.62 -42.19,61.53 -22.58,93.62 l 58.1,-35.52 -35.52,-58.1"
         style="fill:#7ed6f7;fill-opacity:1;fill-rule:nonzero;stroke:none"
         transform="matrix(0.13333333,0,0,-0.13333333,0,666.66667)" />
      <path
         id="path40"
         d="m 1426.94,2938.54 c 32.09,-19.61 42.2,-61.53 22.58,-93.61 l -58.1,35.51 35.52,58.1"
         style="fill:#7ed6f7;fill-opacity:1;fill-rule:nonzero;stroke:none"
         transform="matrix(0.13333333,0,0,-0.13333333,0,666.66667)" />
      <path
         id="path41"
         d="m 1827.71,2693.54 c -32.08,19.62 -74,9.51 -93.61,-22.58 l 58.1,-35.51 35.51,58.09"
         style="fill:#7ed6f7;fill-opacity:1;fill-rule:nonzero;stroke:none"
         transform="matrix(0.13333333,0,0,-0.13333333,0,666.66667)" />
      <path
         id="path42"
         d="m 1832.06,2626.46 -407.49,328.61 166.46,206.42 407.49,-328.6 -166.46,-206.43"
         style="fill:#51b6e0;fill-opacity:1;fill-rule:nonzero;stroke:none"
         transform="matrix(0.13333333,0,0,-0.13333333,0,666.66667)" />
      <path
         id="path43"
         d="m 1776.06,2841.95 c -28.73,-35.62 -80.91,-41.21 -116.53,-12.48 -35.63,28.73 -41.22,80.9 -12.49,116.53 28.73,35.62 80.9,41.21 116.53,12.48 35.62,-28.72 41.22,-80.9 12.49,-116.53"
         style="fill:#7ed6f7;fill-opacity:1;fill-rule:nonzero;stroke:none"
         transform="matrix(0.13333333,0,0,-0.13333333,0,666.66667)" />
      <path
         id="path44"
         d="m 1551.04,3069.08 c 29.27,-23.61 72.14,-19.01 95.75,10.26 l -53.01,42.74 -42.74,-53"
         style="fill:#7ed6f7;fill-opacity:1;fill-rule:nonzero;stroke:none"
         transform="matrix(0.13333333,0,0,-0.13333333,0,666.66667)" />
      <path
         id="path45"
         d="m 1916.69,2774.22 c -29.28,23.6 -33.87,66.47 -10.27,95.75 l 53.01,-42.75 -42.74,-53"
         style="fill:#7ed6f7;fill-opacity:1;fill-rule:nonzero;stroke:none"
         transform="matrix(0.13333333,0,0,-0.13333333,0,666.66667)" />
      <path
         id="path46"
         d="m 1506.41,3013.73 c 29.27,-23.6 33.86,-66.47 10.26,-95.75 l -53.01,42.75 42.75,53"
         style="fill:#7ed6f7;fill-opacity:1;fill-rule:nonzero;stroke:none"
         transform="matrix(0.13333333,0,0,-0.13333333,0,666.66667)" />
      <path
         id="path47"
         d="m 1872.06,2718.87 c -29.28,23.61 -72.15,19.01 -95.75,-10.26 l 53,-42.74 42.75,53"
         style="fill:#7ed6f7;fill-opacity:1;fill-rule:nonzero;stroke:none"
         transform="matrix(0.13333333,0,0,-0.13333333,0,666.66667)" />
      <path
         id="path48"
         d="m 2051.77,2626.23 h -209.98 c -12.14,0 -21.98,9.84 -21.98,21.97 v 12.48 c 0,12.14 9.84,21.98 21.98,21.98 h 209.98 c 12.14,0 21.98,-9.84 21.98,-21.98 v -12.48 c 0,-12.13 -9.84,-21.97 -21.98,-21.97"
         style="fill:#fac318;fill-opacity:1;fill-rule:nonzero;stroke:none"
         transform="matrix(0.13333333,0,0,-0.13333333,0,666.66667)" />
      <path
         id="path49"
         d="m 2076.77,2569.79 h -209.99 c -12.14,0 -21.98,9.84 -21.98,21.98 v 12.48 c 0,12.14 9.84,21.98 21.98,21.98 h 209.99 c 12.13,0 21.97,-9.84 21.97,-21.98 v -12.48 c 0,-12.14 -9.84,-21.98 -21.97,-21.98"
         style="fill:#f8a00e;fill-opacity:1;fill-rule:nonzero;stroke:none"
         transform="matrix(0.13333333,0,0,-0.13333333,0,666.66667)" />
      <path
         id="path50"
         d="m 2067.24,2682.66 h -209.99 c -12.14,0 -21.98,9.84 -21.98,21.98 v 12.48 c 0,12.14 9.84,21.98 21.98,21.98 h 209.99 c 12.13,0 21.97,-9.84 21.97,-21.98 v -12.48 c 0,-12.14 -9.84,-21.98 -21.97,-21.98"
         style="fill:#f8a00e;fill-opacity:1;fill-rule:nonzero;stroke:none"
         transform="matrix(0.13333333,0,0,-0.13333333,0,666.66667)" />
      <path
         id="path51"
         d="m 2039.32,2513.35 h -209.99 c -12.14,0 -21.98,9.84 -21.98,21.98 v 12.48 c 0,12.14 9.84,21.98 21.98,21.98 h 209.99 c 12.14,0 21.98,-9.84 21.98,-21.98 v -12.48 c 0,-12.14 -9.84,-21.98 -21.98,-21.98"
         style="fill:#fac318;fill-opacity:1;fill-rule:nonzero;stroke:none"
         transform="matrix(0.13333333,0,0,-0.13333333,0,666.66667)" />
      <path
         id="path52"
         d="m 1873.11,2588.11 c -6.89,-53.05 -56.12,-96.05 -109.96,-96.05 -53.85,0 -91.92,43 -85.04,96.05 6.88,53.04 56.11,96.04 109.96,96.04 53.85,0 91.92,-43 85.04,-96.04"
         style="fill:#f79510;fill-opacity:1;fill-rule:nonzero;stroke:none"
         transform="matrix(0.13333333,0,0,-0.13333333,0,666.66667)" />
      <path
         id="path53"
         d="m 1851.85,2588.11 c -6.88,-53.05 -56.12,-96.05 -109.96,-96.05 -53.85,0 -91.92,43 -85.04,96.05 6.88,53.04 56.11,96.04 109.96,96.04 53.85,0 91.92,-43 85.04,-96.04"
         style="fill:#f8a00e;fill-opacity:1;fill-rule:nonzero;stroke:none"
         transform="matrix(0.13333333,0,0,-0.13333333,0,666.66667)" />
      <path
         id="path54"
         d="m 1812.24,2588.11 c -4.08,-31.5 -33.32,-57.03 -65.29,-57.03 -31.98,0 -54.58,25.53 -50.5,57.03 4.09,31.49 33.32,57.03 65.3,57.03 31.97,0 54.58,-25.54 50.49,-57.03"
         style="fill:#fac318;fill-opacity:1;fill-rule:nonzero;stroke:none"
         transform="matrix(0.13333333,0,0,-0.13333333,0,666.66667)" />
      <path
         id="path55"
         d="m 3574.53,3265.49 c -5.82,-0.17 -13.34,0.84 -22.57,2.99 -9.25,2.15 -16.45,4.57 -21.59,7.29 -5.14,2.72 -8.35,6.22 -9.64,10.49 -1.3,4.24 -1.83,7.85 -1.58,10.84 0.23,2.99 1.06,7.52 2.47,13.58 l 31.96,137.23 c 1.41,6.06 2.68,10.55 3.83,13.48 1.13,2.93 3.29,5.99 6.46,9.19 3.19,3.23 7.71,5 13.57,5.31 5.85,0.31 13.39,-0.63 22.62,-2.78 9.23,-2.15 16.41,-4.64 21.53,-7.5 5.11,-2.86 8.29,-6.5 9.55,-10.92 1.26,-4.38 1.74,-8.16 1.47,-11.29 -0.26,-3.14 -1.11,-7.73 -2.52,-13.79 l -31.95,-137.2 c -1.41,-6.06 -2.67,-10.48 -3.78,-13.27 -1.11,-2.79 -3.24,-5.7 -6.37,-8.76 -3.17,-3.09 -7.65,-4.72 -13.46,-4.89 z m -69.74,-36.9 c 4.18,4.97 9.47,7.75 15.87,8.41 6.38,0.63 15.87,-0.5 28.41,-3.42 12.55,-2.93 21,-7.79 25.36,-14.6 4.34,-6.8 5.15,-16.09 2.39,-27.92 l -1.62,-6.94 c -1.6,-6.91 -3.03,-12 -4.23,-15.21 -1.21,-3.21 -3.51,-6.87 -6.89,-10.94 -6.57,-7.31 -18.58,-8.9 -36.03,-4.83 -17.45,4.06 -28.33,9.57 -32.67,16.48 -4.3,6.94 -4.59,18.48 -0.82,34.65 2.62,11.27 6.03,19.36 10.23,24.32"
         style="fill:#ef2b57;fill-opacity:1;fill-rule:nonzero;stroke:none"
         transform="matrix(0.13333333,0,0,-0.13333333,0,666.66667)" />
      <path
         id="path56"
         d="m 1323.52,2410.37 c -3.77,-4.43 -9.56,-9.34 -17.34,-14.75 -7.8,-5.42 -14.42,-9.14 -19.88,-11.13 -5.47,-1.99 -10.22,-2.04 -14.25,-0.13 -4.02,1.88 -7.06,3.9 -9.11,6.09 -2.06,2.18 -4.86,5.83 -8.41,10.93 l -80.44,115.69 c -3.56,5.11 -6.04,9.06 -7.45,11.88 -1.42,2.8 -2.24,6.45 -2.48,10.95 -0.27,4.53 1.44,9.07 5.15,13.63 3.69,4.55 9.44,9.52 17.22,14.92 7.78,5.41 14.44,9.08 20,10.96 5.55,1.88 10.38,1.8 14.5,-0.23 4.09,-1.99 7.22,-4.18 9.37,-6.47 2.15,-2.3 4.99,-6.01 8.54,-11.11 l 80.42,-115.66 c 3.55,-5.11 6,-9.01 7.32,-11.7 1.32,-2.69 2.06,-6.23 2.24,-10.6 0.17,-4.42 -1.63,-8.84 -5.4,-13.27 z m -19.34,-76.49 c -0.89,6.43 0.59,12.22 4.38,17.41 3.82,5.17 11.01,11.45 21.58,18.8 10.59,7.36 19.86,10.37 27.83,9.04 7.96,-1.34 15.39,-6.96 22.33,-16.94 l 4.07,-5.85 c 4.05,-5.82 6.87,-10.29 8.45,-13.33 1.57,-3.05 2.75,-7.21 3.51,-12.45 1.02,-9.77 -5.85,-19.75 -20.56,-29.98 -14.72,-10.23 -26.09,-14.62 -34.13,-13.2 -8.04,1.46 -16.79,8.98 -26.27,22.61 -6.61,9.5 -10.33,17.45 -11.19,23.89"
         style="fill:#ef2b57;fill-opacity:1;fill-rule:nonzero;stroke:none"
         transform="matrix(0.13333333,0,0,-0.13333333,0,666.66667)" />
      <path
         id="path57"
         d="m 3296.27,2674.49 c -1.28,0 -2.55,0.48 -3.53,1.45 -1.95,1.95 -1.96,5.11 -0.02,7.07 l 92.32,92.8 -104.13,19 c -1.68,0.31 -3.08,1.45 -3.73,3.03 -0.64,1.58 -0.44,3.39 0.55,4.78 l 81.64,115.37 -184.89,-9.77 c -1.38,-0.1 -2.79,0.45 -3.79,1.44 -1,1 -1.54,2.37 -1.47,3.78 l 7.88,175.4 -126.63,-127.17 c -1.94,-1.95 -5.1,-1.97 -7.07,-0.02 -1.96,1.95 -1.96,5.12 -0.02,7.08 l 135.76,136.33 c 1.46,1.46 3.65,1.88 5.55,1.04 1.89,-0.83 3.08,-2.73 2.99,-4.8 l -8.22,-182.8 189.69,10.03 c 1.9,0.1 3.72,-0.91 4.65,-2.59 0.92,-1.67 0.81,-3.73 -0.3,-5.3 l -83.08,-117.4 105.77,-19.3 c 1.82,-0.34 3.31,-1.65 3.87,-3.43 0.55,-1.77 0.08,-3.7 -1.23,-5.02 l -99.02,-99.53 c -0.97,-0.98 -2.26,-1.47 -3.54,-1.47"
         style="fill:#2b263c;fill-opacity:1;fill-rule:nonzero;stroke:none"
         transform="matrix(0.13333333,0,0,-0.13333333,0,666.66667)" />
      <path
         id="path58"
         d="m 2412.18,2547.69 c -0.82,0 -1.65,0.2 -2.41,0.62 l -107.05,59.1 c -1.69,0.92 -2.69,2.74 -2.57,4.65 0.1,1.92 1.3,3.61 3.08,4.35 l 133.49,54.99 -118.7,90.79 c -1.47,1.12 -2.21,2.97 -1.9,4.8 0.31,1.82 1.6,3.33 3.36,3.91 l 122.87,40.72 c 2.61,0.85 5.46,-0.56 6.32,-3.18 0.87,-2.62 -0.55,-5.45 -3.17,-6.32 l -113.9,-37.73 118.11,-90.33 c 1.42,-1.08 2.15,-2.84 1.92,-4.62 -0.24,-1.77 -1.4,-3.29 -3.06,-3.97 l -131.9,-54.34 97.93,-54.07 c 2.42,-1.33 3.3,-4.37 1.96,-6.79 -0.91,-1.65 -2.62,-2.58 -4.38,-2.58"
         style="fill:#2b263c;fill-opacity:1;fill-rule:nonzero;stroke:none"
         transform="matrix(0.13333333,0,0,-0.13333333,0,666.66667)" />
      <path
         id="path59"
         d="m 3128.86,3438.09 c -13.15,-60.11 -50.12,-117.6 -96.37,-163.84 -45.18,-45.19 -104.49,-77.19 -160.87,-100.05 -66.54,-26.98 -134.09,-38.85 -185.62,-21.13 -45.93,15.81 -90.15,47.23 -126.08,86.47 -34.6,37.78 -65.02,83.15 -84.73,128.26 -23.26,53.22 -31.45,108.76 -25.62,150.7 7.04,50.68 43.8,110.34 96.92,159.85 45,41.95 103.58,76.05 159.2,100.86 66.43,29.63 132.37,38.37 181.72,20.17 43.08,-15.88 86.05,-46.03 122.11,-86.87 33.69,-38.15 61.76,-83.5 82.39,-127.21 26.55,-56.26 44.77,-111.47 36.95,-147.21"
         style="fill:#ef2b57;fill-opacity:1;fill-rule:nonzero;stroke:none"
         transform="matrix(0.13333333,0,0,-0.13333333,0,666.66667)" />
      <path
         id="path60"
         d="m 2925.55,3068.59 c 0,-34.38 -27.88,-62.26 -62.26,-62.26 -34.39,0 -62.26,27.88 -62.26,62.26 0,34.39 27.87,62.26 62.26,62.26 34.38,0 62.26,-27.87 62.26,-62.26"
         style="fill:#ef2b57;fill-opacity:1;fill-rule:nonzero;stroke:none"
         transform="matrix(0.13333333,0,0,-0.13333333,0,666.66667)" />
      <path
         id="path61"
         d="m 2834.81,2922.98 c 0,-26.2 -21.24,-47.44 -47.44,-47.44 -26.21,0 -47.45,21.24 -47.45,47.44 0,26.2 21.24,47.44 47.45,47.44 26.2,0 47.44,-21.24 47.44,-47.44"
         style="fill:#ef2b57;fill-opacity:1;fill-rule:nonzero;stroke:none"
         transform="matrix(0.13333333,0,0,-0.13333333,0,666.66667)" />
      <path
         id="path62"
         d="m 2992.74,3405.37 c -2.8,-16.52 -12.93,-31.24 -25.68,-41.78 -13.49,-11.15 -29.95,-18.14 -46.41,-23.63 -9.07,-3.02 -18.25,-5.76 -27.49,-8.29 14.3,15.83 25.41,34.17 30.41,55.04 24.66,8.83 48.74,21.2 68.14,38.85 1.7,-6.44 2.22,-13.18 1.03,-20.19 z m -416.63,-54.77 c -12.51,25.07 -17.51,52.84 -16.04,80.4 4.47,-16.38 13.09,-31.91 23.5,-45.55 0.47,-1.51 0.84,-3.04 1.36,-4.53 12.16,-35.27 37.62,-62.84 73.7,-73.88 1.75,-0.54 3.52,-0.84 5.27,-1.29 17.88,-20.99 41.26,-36.73 67.89,-44.37 -1.94,-0.16 -3.88,-0.43 -5.83,-0.53 -63.03,-3.26 -121.86,33.7 -149.85,89.75 z m 34.04,195.96 c -5.79,-8.6 -10.9,-17.67 -15.31,-27.09 -3.96,-2.51 -7.71,-5.29 -11.24,-8.32 4,7.06 8.46,13.84 13.38,20.27 4.09,5.35 8.55,10.33 13.17,15.14 z m 156.03,60.9 c -7.38,2.95 -14.88,5.37 -22.48,7.18 12.13,2.58 24.28,4.51 36.28,5.88 -5.14,-3.66 -9.74,-8.04 -13.8,-13.06 z m 135.18,33.48 c -0.05,-0.01 -0.11,-0.01 -0.16,-0.02 -3.45,-0.66 -6.79,-1.63 -10.08,-2.75 -5.26,0.61 -10.55,0.8 -15.88,0.52 4.36,1.39 8.88,2.35 13.56,2.66 4.23,0.28 8.42,0.11 12.56,-0.41 z m 15.3,-190.04 c -2.97,5.5 -6.82,10.34 -10.98,14.9 13.17,6.37 25.31,15.69 35.42,25.64 12.99,-11.54 24.97,-24.11 35.61,-37.7 4.4,-5.62 8.31,-11.65 11.27,-18.01 -15.49,-14.93 -34.83,-26.17 -54.31,-34.45 -2.64,-1.13 -5.34,-2.14 -8.02,-3.19 0.05,0.39 0.16,0.75 0.21,1.14 2.03,17.62 -0.69,35.99 -9.2,51.67 z m -21.39,-62.74 c 5.7,24.24 6.09,49.17 0.85,73.29 1.03,-1.05 2.18,-1.96 3.16,-3.07 15.65,-17.67 19.74,-41.55 15.78,-64.16 -6.51,-2.24 -13.1,-4.31 -19.79,-6.06 z m -233.21,-63.26 c 8.87,-3.96 17.96,-7.42 27.21,-10.28 3.72,-1.15 7.48,-2.11 11.24,-3.08 -10.34,-0.19 -20.71,0.69 -30.75,2.98 -2.71,3.35 -5.29,6.8 -7.7,10.38 z m -16.92,8.44 c 2.56,-4.67 5.32,-9.22 8.31,-13.65 -13.72,5.41 -26.32,13.45 -36.47,24.72 -5.27,5.83 -9.71,12.29 -13.53,19.11 12.52,-11.83 26.6,-21.89 41.69,-30.18 z m -6.3,232.97 c -4.75,-10.57 -8.65,-21.53 -11.8,-32.76 -5.75,-1.54 -11.46,-3.57 -17.01,-6.01 7.88,14.13 17.58,27.21 28.81,38.77 z m 137.45,25.25 c -4.15,-4.06 -8.08,-8.34 -11.81,-12.79 -0.67,0.01 -1.34,0.02 -2.01,0.02 1.38,5.67 3.74,11.12 6.76,16.13 2.38,-1.09 4.74,-2.2 7.06,-3.36 z m 135.82,30.73 c -6.88,1.82 -13.86,3.32 -20.88,4.66 1.01,0.41 2.03,0.76 3.05,1.11 6.29,-0.97 12.31,-2.85 17.83,-5.77 z m 65.96,-46.46 c 3.89,-5.41 5.53,-11.48 2.46,-18.01 -1.11,-2.36 -2.61,-4.53 -4.27,-6.6 1.79,8.07 2.48,16.32 1.81,24.61 z m -36.14,-47.41 c 7.65,11.65 13.14,24.79 11.24,39.02 -1.12,8.46 -4.3,15.85 -8.88,22.12 -0.24,3.76 -0.86,7.5 -1.95,11.19 2.9,-1.38 5.81,-2.76 8.62,-4.33 4.07,-2.29 9.5,-5.35 14.69,-9.02 4.12,-15.75 2.6,-32.88 -3.66,-48.51 -6.54,-4.16 -13.65,-7.53 -20.06,-10.47 z m -1.73,-23.43 c -3.26,2.72 -6.73,5.18 -10.09,7.77 7.29,2.74 14.47,5.76 21.41,9.29 0.91,0.46 1.87,0.97 2.8,1.46 -4.08,-6.62 -8.88,-12.77 -14.12,-18.52 z m -42.09,-31.62 c -0.07,0.05 -0.14,0.1 -0.2,0.16 5.51,4.49 10.78,9.31 15.43,14.83 4.29,5.09 8.15,10.65 11.52,16.51 2.87,-2.23 5.6,-4.62 8.39,-6.94 -1.11,-1.07 -2.15,-2.21 -3.3,-3.24 -9.38,-8.48 -20.09,-16.22 -31.84,-21.32 z m -207.4,55.28 c 13,-0.54 25.93,-1.91 38.81,-3.64 -5.2,-3.01 -10.28,-6.25 -15.07,-9.91 -10.35,-7.93 -20.14,-17.41 -28.8,-27.95 -0.17,1 -0.44,1.96 -0.58,2.97 -1.77,12.71 -1.31,26.38 3.04,38.59 0.86,-0.03 1.74,-0.02 2.6,-0.06 z m 82.44,39.73 c -3.53,-4.64 -6.86,-9.41 -9.93,-14.32 -0.26,0.78 -0.57,1.54 -0.78,2.35 -0.23,0.86 -0.33,1.73 -0.5,2.59 2.25,3.29 4.57,6.48 6.97,9.52 0.05,0.07 0.11,0.13 0.16,0.19 1.36,-0.08 2.72,-0.21 4.08,-0.33 z m 58.37,48.96 c -1.74,-2.39 -3.35,-4.87 -4.89,-7.41 -1.41,-0.44 -2.81,-0.85 -4.22,-1.4 -9.61,-3.74 -18.36,-9.33 -26.43,-15.98 -0.75,0.45 -1.52,0.87 -2.27,1.31 11.47,9.51 24.19,17.5 37.81,23.48 z m 97.7,-11 c 0.87,-1.46 1.64,-2.94 2.29,-4.45 -6.92,4.77 -14.94,8.09 -23.33,9.83 -0.88,0.68 -1.86,1.24 -2.77,1.89 8.07,-1.98 16.04,-4.35 23.81,-7.27 z m -115.69,-25.55 c -2.75,2.02 -5.55,3.97 -8.4,5.89 4.48,3.53 9.25,6.67 14.19,9.25 -2.2,-4.95 -4.17,-9.99 -5.79,-15.14 z m 29.25,22.03 c -7.78,-9.16 -14.56,-19.09 -20.27,-28.88 -0.27,0.22 -0.52,0.44 -0.79,0.65 2.75,9.35 6.47,18.39 11.22,26.7 3.24,0.83 6.52,1.35 9.84,1.53 z m 78.6,-82.64 c -0.21,-0.07 -0.41,-0.14 -0.62,-0.21 -1.44,1.03 -2.89,2.05 -4.34,3.06 3.7,4.4 7.14,9.01 10.35,13.77 -1.17,-5.71 -3.06,-11.24 -5.39,-16.62 z m -101.35,-67.51 c 5.52,-0.99 11.41,-0.69 17.13,0.41 -15.06,-5.02 -30.59,-8.82 -45.87,-12.19 -11.37,-2.52 -23.35,-3.74 -33.3,0.96 21.27,-0.85 42.24,3.32 62.04,10.82 z m -78.89,15.39 c 2.81,18.05 8.07,35.73 15.49,52.44 11.71,-2.35 23.3,-5.21 34.78,-8.51 0.31,-0.15 0.63,-0.27 0.94,-0.41 -7.22,-19.73 -10.36,-41.98 10.74,-49.32 0.08,-0.03 0.14,-0.01 0.22,-0.03 1.11,-1.37 2.33,-2.54 3.62,-3.6 -9.57,-3 -19.39,-5.22 -29.33,-6.22 -7.84,-0.79 -15.74,-0.94 -23.61,-0.39 -2.3,0.16 -5.37,0.14 -8.03,0.7 -2.37,3.5 -4.19,7.32 -5.53,11.36 0.24,1.44 0.53,2.81 0.71,3.98 z m 5.21,54.51 c 0.12,-0.02 0.25,-0.03 0.38,-0.05 -3.63,-8.39 -6.78,-16.97 -9.33,-25.74 0.82,8.09 2.63,16.13 5.24,24 1.24,0.6 2.45,1.23 3.71,1.79 z m 21.09,6.02 c -0.67,0.14 -1.34,0.29 -2.01,0.44 0.42,0.1 0.83,0.25 1.26,0.35 0.25,-0.27 0.5,-0.53 0.75,-0.79 z m 28.86,-7.21 c -1.07,0.3 -2.14,0.63 -3.21,0.92 -1.16,0.61 -2.39,1.09 -3.53,1.74 -3.7,2.12 -7.21,4.59 -10.46,7.34 7.16,0.63 14.39,0.4 21.53,-0.61 -1.39,-2.88 -2.86,-6.04 -4.33,-9.39 z m 82.52,89.83 c -3.88,-1 -7.53,-2.38 -11.11,-3.87 -1.45,0.66 -2.92,1.29 -4.43,1.83 3.71,3.34 7.68,6.46 11.88,9.25 4.3,-1.64 8.54,-3.51 12.62,-5.69 -3.03,-0.31 -6.03,-0.77 -8.96,-1.52 z m 23.4,-39.56 c -5.38,12.04 -13.66,22.2 -23.68,29.42 7.58,2.28 15.61,3.12 24.01,2.05 13.62,-10.84 23.61,-25.5 25.49,-43.93 -5.02,-11.09 -12.19,-21.49 -19.19,-29.82 1.26,14.2 -0.48,28.52 -6.63,42.28 z m 1.61,-66.84 c 2.16,0.5 4.35,0.92 6.5,1.49 -2.79,-2.67 -5.67,-5.24 -8.63,-7.73 0.75,2.07 1.47,4.15 2.13,6.24 z m -94.82,-33.4 c -5.33,9.88 -4.05,22.76 -1.62,34.41 1.54,-0.48 3.06,-1.02 4.63,-1.44 4.6,-13.35 12.28,-25.3 23.51,-34 -3.11,-1.59 -6.22,-3.15 -9.41,-4.58 -2.32,-1.04 -4.73,-1.95 -7.11,-2.89 -4.04,1.34 -7.54,3.95 -10,8.5 z m 76.98,21.16 c 1.41,1.2 2.8,2.45 4.19,3.69 -0.94,-2.3 -1.8,-4.62 -2.85,-6.87 -0.44,1.06 -0.89,2.12 -1.34,3.18 z m -12.41,2.64 c -0.91,1.53 -1.95,2.97 -2.97,4.44 0.33,0.02 0.66,0.07 0.98,0.1 0.75,-1.45 1.54,-2.87 2.24,-4.34 -0.08,-0.06 -0.16,-0.13 -0.25,-0.2 z m -15.22,3.88 c 0.43,-0.52 0.81,-1.07 1.22,-1.61 -1.06,0.52 -2.13,1.03 -3.19,1.54 0.66,0.01 1.31,0.06 1.97,0.07 z m -41.56,27.39 c -0.01,0.14 0,0.3 -0.02,0.45 11.47,-3.72 22.28,-9.45 31.47,-17.26 0.24,-0.2 0.42,-0.43 0.65,-0.64 -7.09,0.21 -14.16,0.93 -21.12,2.08 -2.89,1.07 -5.77,2.15 -8.68,3.15 -1.1,4.01 -1.88,8.1 -2.3,12.22 z m 76.49,-13.72 c -2.12,-0.4 -4.23,-0.88 -6.36,-1.21 -3.17,-0.5 -6.42,-0.89 -9.69,-1.26 -7.56,13.5 -16.69,26.1 -27.04,37.62 16.52,-6.83 32.55,-14.98 47.8,-24.46 -0.36,-2.45 -0.71,-4.9 -1.28,-7.3 -1.12,-1.15 -2.28,-2.26 -3.43,-3.39 z m -71.61,36.97 c 1.36,2.35 2.84,4.7 4.38,7.06 0.43,-0.14 0.86,-0.26 1.29,-0.4 7.96,-7.25 15.58,-14.86 22.39,-23.21 6.11,-7.49 11.61,-15.48 16.54,-23.81 -1.09,-0.07 -2.17,-0.19 -3.27,-0.24 -12.45,13.5 -29.01,23.27 -46.64,28.38 1.13,3.09 2.32,6.16 3.61,9.21 0.57,0.99 1.13,2.03 1.7,3.01 z m 2.35,-48.47 c 11.53,-4.31 22.94,-8.95 34.02,-14.31 0.91,-0.44 1.8,-0.94 2.7,-1.39 -4.93,-3.43 -10,-6.64 -15.18,-9.66 -9.13,6.1 -16.51,15.03 -21.54,25.36 z m 32.52,-30.92 c -0.2,0.07 -0.39,0.15 -0.59,0.23 1.68,1.04 3.4,2.02 5.05,3.11 2.91,1.92 5.74,3.97 8.57,6.02 0.31,-0.81 0.6,-1.62 0.88,-2.44 -4.57,-2.5 -9.2,-4.83 -13.91,-6.92 z m 11.16,126.35 c 22.4,-12.86 31.84,-37.75 31.21,-62.36 -17.15,10.4 -35.15,19.39 -53.93,26.59 -4.08,1.56 -8.22,3.07 -12.41,4.51 -0.09,0.08 -0.19,0.18 -0.28,0.26 9.56,12.58 21.57,24.04 35.41,31 z m -12.05,4.94 c 0.18,-0.04 0.35,-0.12 0.53,-0.17 -0.48,-0.29 -1.01,-0.5 -1.49,-0.8 0.32,0.33 0.64,0.64 0.96,0.97 z m 78.95,-16.39 c -0.05,-2.57 -0.32,-5.15 -0.76,-7.74 -0.49,1.34 -0.96,2.69 -1.54,4.02 -2.03,4.64 -4.62,8.88 -7.49,12.9 3.68,-2.59 6.97,-5.7 9.79,-9.18 z m -87.13,35.75 c 0.41,0.43 0.86,0.82 1.29,1.24 4.2,-0.28 8.4,-0.61 12.58,-1.05 -3.47,-2.84 -6.82,-5.88 -10.02,-9.09 -3.58,0.48 -7.23,0.66 -10.94,0.43 2.24,2.96 4.56,5.83 7.09,8.47 z m -50.31,-41.23 c 3.26,-2.08 6.34,-4.44 9.49,-6.69 -4.44,1.09 -8.92,2.02 -13.42,2.83 1.28,1.31 2.58,2.59 3.93,3.86 z m -11.96,-12.8 c 8.03,-1.23 15.97,-2.92 23.72,-4.95 -0.51,-2.76 -1.06,-5.53 -1.43,-8.26 -0.47,-3.62 -0.74,-7.32 -0.88,-11.04 -0.45,-0.88 -0.93,-1.76 -1.38,-2.65 -11.65,2.02 -23.3,2.03 -34.64,0.15 -0.76,0.98 -1.48,1.99 -2.17,3.03 4.62,7.67 9.75,15.03 15.35,22.01 0.45,0.57 0.96,1.14 1.43,1.71 z m -29.69,-20.92 c 0.41,-0.95 0.92,-1.84 1.38,-2.76 -1.41,-2.57 -2.79,-5.12 -4.08,-7.7 -1.66,-0.56 -3.34,-1.05 -4.98,-1.68 2.13,4.73 4.49,9.35 7.06,13.83 0.22,-0.56 0.38,-1.13 0.62,-1.69 z m 29.58,-169.92 c -10.64,-6.78 -21.79,-12.53 -33.46,-16.49 -28.66,-9.73 -66.64,-6.02 -83.45,22.62 -15.02,25.59 -2.18,57.58 13.49,81.89 4.87,-12.84 11.78,-24.96 20.18,-35.6 22.06,-27.91 51.28,-44.5 83.24,-52.42 z m -54.48,37.39 c -19.23,15.81 -34.66,36.94 -41.92,60.83 0.79,1.07 1.58,2.16 2.36,3.18 10.88,14.25 24.25,26.88 39.45,36.47 -4.38,-16.93 -5.27,-34.57 -0.1,-51.16 -0.56,-5.7 -0.17,-11.43 4.4,-15.54 1.42,-1.28 3.07,-2.24 4.84,-2.96 4.67,-5.96 10.64,-10.77 18.1,-13.51 18.15,-6.66 39.68,0.94 57.5,5.52 16.89,4.35 34.24,9.8 50.47,17.34 -8.1,-10.93 -16.98,-21.22 -25.95,-30.75 -13.03,-13.85 -27.74,-27.69 -43.8,-39.39 -23.76,4.77 -46.41,14.38 -65.35,29.97 z m 95.68,-33.52 c -5.84,0.18 -11.66,0.73 -17.46,1.46 24.73,19.25 47,41.97 65.32,67.47 -0.44,-6.38 -1.56,-12.83 -3.68,-19.25 -6.23,-18.88 -18.01,-35.33 -32.03,-49.68 -4.06,-0.1 -8.11,-0.13 -12.15,0 z m 111.11,160.47 c 0.8,5.59 1.1,11.23 0.73,16.85 1.71,4.09 3.14,8.32 4.21,12.63 2.36,-10.04 -0.12,-20.16 -4.94,-29.48 z m -22.5,91.3 c 11.38,-0.1 22.59,-4 32.5,-13.29 4.97,-4.65 8.8,-9.96 11.93,-15.55 -7.52,4.5 -15.41,8.36 -23.59,11.58 -5.25,7.5 -12.5,13.28 -20.84,17.26 z m -129.49,-45.25 c 0.75,-0.42 1.49,-0.86 2.24,-1.29 -2.4,-2.36 -4.62,-4.93 -6.87,-7.47 -1.23,0.14 -2.46,0.21 -3.7,0.32 2.67,2.91 5.45,5.72 8.33,8.44 z m -34.24,-17.99 c -0.04,-2.41 0.11,-4.82 0.37,-7.22 -2.43,-3.77 -4.74,-7.63 -6.86,-11.58 -2.67,-4.96 -5.09,-10.23 -7.34,-15.6 -13.57,2.02 -27.22,3.49 -40.9,4.25 -1.23,0.07 -2.47,0.08 -3.7,0.14 0.31,0.53 0.56,1.09 0.9,1.61 7.21,11.24 18.71,18.92 31.2,23.22 8.57,2.95 17.41,4.51 26.33,5.18 z m -98.42,-227.96 c -16.5,31.32 -24.14,68.29 -25.57,103.17 -1.11,27.07 1.24,54.89 7.95,81.42 13.95,3 28.53,3.92 42.8,3.81 -0.45,-1.47 -1.09,-2.81 -1.45,-4.36 -3.72,-15.96 -2.83,-32.29 1.21,-47.92 -10.72,-15.22 -19,-32.12 -23.3,-49.51 -4.4,-17.76 -3.6,-37.3 6.96,-52.83 8.84,-12.99 22.55,-21.89 37.44,-26.44 35.25,-10.78 70.72,5.22 99.37,25.5 9.97,-1.72 20.12,-2.68 30.36,-2.93 -7.36,-6.6 -15.06,-12.74 -22.82,-18.33 -22.13,-15.93 -47,-29.66 -73.63,-36.36 -27.45,3.63 -54.22,11.44 -79.32,24.78 z m 203.04,-17.89 c -32.31,-6.79 -65.77,-10.6 -98.72,-9.12 3.76,1.48 7.51,3.01 11.17,4.71 27.15,12.59 53.5,30.53 74.87,52.33 12.78,0.51 25.55,2.09 38.13,4.51 -2.81,-8.52 -6.2,-16.87 -10.09,-24.95 -4.46,-9.25 -9.6,-18.55 -15.36,-27.48 z m 32.18,129.24 c 3.9,-22.25 2.11,-44.74 -3.63,-66.31 -10.53,-2.28 -21.19,-3.95 -31.88,-4.85 2.42,2.82 4.84,5.65 7.09,8.59 15.28,19.94 25.85,44.52 24.94,69.25 0.66,0.12 1.31,0.31 1.97,0.45 0.53,-2.37 1.09,-4.74 1.51,-7.13 z m -82.27,170.69 c 4.88,0.24 9.77,0.38 14.67,0.43 -1.79,-0.9 -3.63,-1.75 -5.37,-2.69 -10.91,-5.93 -21.18,-13.09 -30.6,-21.24 -2.94,1.55 -5.91,3.02 -8.91,4.41 8.21,9.46 18.7,15.58 30.21,19.09 z m -78.78,-14.95 c 11.37,-1.11 22.57,-4.55 33.34,-8.9 -1.35,-2.32 -2.83,-4.5 -3.93,-7.05 -1.86,-4.27 -3.18,-8.71 -4.05,-13.22 -2.71,-0.17 -5.43,-0.29 -8.14,-0.63 -26.25,-3.27 -50.59,-15.83 -62.27,-38.93 -14.65,0.3 -29.34,-0.47 -43.75,-3.07 5.13,16.94 12.2,33.19 21.37,48.25 18.02,10.01 37.45,17.81 57.4,23.73 3.31,0.15 6.65,0.15 10.03,-0.18 z m -140.95,-170.09 c 0.15,25.7 6.05,51.42 16.64,75.04 6.81,4.08 14,7.35 21.56,9.71 -7.62,-32.9 -9,-67.53 -5.33,-100.52 2.74,-24.57 8.44,-49.22 18.25,-72.03 -17.09,11.11 -32.46,24.83 -44.83,40.99 -4.39,15.26 -6.38,31.3 -6.29,46.81 z m -19.15,21.65 c 1.01,16.23 8.93,30.71 20.46,41.87 -9.86,-27.8 -13.61,-57.67 -9.96,-86.75 -6.95,13.9 -11.47,29.28 -10.5,44.88 z m 264.13,-163.58 c -21.57,-12.65 -44.95,-23.1 -69.33,-29.21 -15.68,0.64 -31.32,4.66 -45.39,11.25 -13.69,6.41 -25.42,14.96 -35.58,24.92 16.95,-2.04 34.06,-0.82 50.72,3.01 26.79,-3.51 54.11,-3.21 80.92,-0.18 11.8,1.34 23.52,3.18 35.18,5.39 -2.74,-3.6 -5.62,-7.06 -8.66,-10.39 -2.61,-1.62 -5.23,-3.25 -7.86,-4.79 z m 43.82,31.45 c -1.55,-0.37 -3.1,-0.79 -4.66,-1.16 9.68,16.41 17.15,34.15 22.35,51.59 6.72,1.59 13.38,3.35 19.89,5.4 -1.88,-6.27 -4.35,-12.35 -7.37,-18.04 -7.67,-14.44 -18.2,-26.85 -30.21,-37.79 z m 131.02,224.71 c 15.3,-30.35 18.11,-65.28 -0.36,-94.91 -2.98,-4.78 -6.45,-9.18 -10.12,-13.41 -4.07,7.6 -9.26,14.7 -14.77,21.33 -10.01,12.02 -21.17,23.06 -32.88,33.46 0.19,0.2 0.39,0.41 0.58,0.61 8.93,9.99 16.6,21.52 21.97,33.89 9.55,6.48 17.97,14.62 21.11,25.45 4.19,14.44 -5.61,25.75 -16.58,34.36 -0.19,0.61 -0.33,1.22 -0.54,1.83 -0.52,1.51 -1.13,2.98 -1.73,4.44 13.44,-14.13 24.88,-30.3 33.32,-47.05 z m -3.64,-115.77 c 23.88,26.89 32.16,62.07 21.95,96.73 -10.82,36.71 -37.41,70.35 -67.42,93.53 -28.23,21.8 -66.45,35.05 -99.47,15.29 -3.09,-1.85 -5.92,-4.01 -8.71,-6.23 -0.41,0.06 -0.82,0.17 -1.23,0.22 -14.02,1.74 -28.48,0.81 -41.88,-2.97 -6.59,-0.33 -13.16,-0.76 -19.68,-1.41 -23.4,-2.32 -47.4,-6.74 -70.72,-13.62 -13.91,-0.91 -27.27,-5.09 -39.76,-11.43 3.19,3.82 6.5,7.57 10.05,11.14 4.55,4.57 -2.52,11.64 -7.07,7.07 -9.98,-10.02 -18.58,-21.05 -25.95,-32.79 -0.6,-0.46 -1.22,-0.91 -1.82,-1.39 -27.14,-15.78 -51.05,-36.42 -68.75,-63.03 -39.12,-58.82 -43.71,-138.88 -4.34,-198.72 18.4,-27.95 44.83,-50.91 75.56,-64.31 34.51,-15.05 72.37,-16.72 108.81,-8.01 0.52,0.13 1.03,0.3 1.55,0.43 25.56,-0.38 50.28,7.85 70.5,25.05 3.91,3.34 7.64,6.95 11.23,10.73 8.17,5.21 16.08,10.77 23.63,16.63 3.66,2.83 7.22,5.79 10.68,8.87 19.88,4.92 39.97,10.27 58.95,18.02 32.83,13.42 66.34,40.63 65.14,79.63 -0.2,6.34 -1.58,12.35 -3.66,18.1 0.79,0.84 1.64,1.6 2.41,2.47"
         style="fill:#ffffff;fill-opacity:1;fill-rule:nonzero;stroke:none"
         transform="matrix(0.13333333,0,0,-0.13333333,0,666.66667)" />
      <path
         id="path63"
         d="m 1800.66,3362.04 c 39.47,-47.21 98.85,-81.06 161.24,-100.66 60.97,-19.14 128.35,-20.06 188.92,-14.24 71.46,6.86 136.84,27.6 174.32,67.16 33.41,35.26 58.06,83.58 71.76,134.98 13.19,49.52 19.16,103.81 15.76,152.92 -4,57.95 -22.44,110.97 -47.02,145.45 -29.69,41.67 -89.88,77.55 -159.89,96.86 -59.3,16.36 -127.01,19.49 -187.8,15.75 -72.6,-4.47 -135.09,-27.24 -170.43,-66.21 -30.83,-34.01 -54.98,-80.62 -68.05,-133.51 -12.21,-49.42 -16.11,-102.61 -14.17,-150.9 2.49,-62.16 11.89,-119.54 35.36,-147.6"
         style="fill:#ef2b57;fill-opacity:1;fill-rule:nonzero;stroke:none"
         transform="matrix(0.13333333,0,0,-0.13333333,0,666.66667)" />
      <path
         id="path64"
         d="m 2151.87,3128.56 c 15.91,-30.48 53.52,-42.29 84,-26.38 30.49,15.91 42.3,53.52 26.39,84 -15.91,30.48 -53.52,42.29 -84,26.38 -30.48,-15.91 -42.3,-53.52 -26.39,-84"
         style="fill:#ef2b57;fill-opacity:1;fill-rule:nonzero;stroke:none"
         transform="matrix(0.13333333,0,0,-0.13333333,0,666.66667)" />
      <path
         id="path65"
         d="m 2227.28,2977.86 c 12.12,-23.23 40.78,-32.23 64.01,-20.1 23.23,12.12 32.23,40.78 20.1,64 -12.12,23.23 -40.78,32.23 -64.01,20.11 -23.22,-12.12 -32.22,-40.78 -20.1,-64.01"
         style="fill:#ef2b57;fill-opacity:1;fill-rule:nonzero;stroke:none"
         transform="matrix(0.13333333,0,0,-0.13333333,0,666.66667)" />
      <path
         id="path66"
         d="m 2377.42,2901.93 c 8.87,-16.99 29.83,-23.57 46.81,-14.7 16.99,8.86 23.57,29.82 14.71,46.81 -8.87,16.99 -29.83,23.57 -46.82,14.7 -16.98,-8.86 -23.57,-29.82 -14.7,-46.81"
         style="fill:#ef2b57;fill-opacity:1;fill-rule:nonzero;stroke:none"
         transform="matrix(0.13333333,0,0,-0.13333333,0,666.66667)" />
      <path
         id="path67"
         d="m 1870.95,3472.66 c 6.41,41.8 15.02,83.23 25.8,124.13 -3.05,-0.4 -6.09,-0.8 -9.14,-1.2 23.39,-38.35 49.12,-79.11 91.02,-99.22 3.23,-1.55 7.68,0.25 7.53,4.31 -2.28,58.46 -4.55,116.92 -6.82,175.37 -0.25,6.42 -10.25,6.45 -10,0 2.27,-58.45 4.54,-116.91 6.82,-175.37 2.5,1.44 5.01,2.88 7.52,4.32 -40.41,19.4 -64.89,58.67 -87.44,95.64 -2.2,3.61 -8.02,3.04 -9.13,-1.19 -10.78,-40.9 -19.39,-82.33 -25.8,-124.14 -0.97,-6.29 8.66,-9 9.64,-2.65 v 0"
         style="fill:#ffffff;fill-opacity:1;fill-rule:nonzero;stroke:none"
         transform="matrix(0.13333333,0,0,-0.13333333,0,666.66667)" />
      <path
         id="path68"
         d="m 2053.53,3633.53 c -26.25,-9.62 -43.77,-34.86 -46.3,-62.39 -2.55,-27.59 14.65,-61.66 45.23,-63.72 15.72,-1.06 31.58,8.45 36.12,23.82 1.82,6.19 -7.83,8.83 -9.65,2.66 -4.6,-15.6 -23.89,-20.04 -37.26,-13.3 -13.53,6.83 -22.07,21.62 -24.19,36.29 -3.97,27.41 12.42,57.36 38.71,66.99 5.99,2.2 3.4,11.87 -2.66,9.65 v 0"
         style="fill:#ffffff;fill-opacity:1;fill-rule:nonzero;stroke:none"
         transform="matrix(0.13333333,0,0,-0.13333333,0,666.66667)" />
      <path
         id="path69"
         d="m 1996.44,3548.16 c 22.24,17.43 44.49,34.86 66.73,52.28 2.14,1.68 1.72,5.31 0,7.08 -2.08,2.12 -4.96,1.65 -7.07,0 -22.25,-17.43 -44.49,-34.86 -66.73,-52.29 -2.14,-1.68 -1.73,-5.3 0,-7.07 2.08,-2.12 4.96,-1.65 7.07,0 v 0"
         style="fill:#ffffff;fill-opacity:1;fill-rule:nonzero;stroke:none"
         transform="matrix(0.13333333,0,0,-0.13333333,0,666.66667)" />
      <path
         id="path70"
         d="m 2092.12,3648.43 c 6.52,-41.8 15.23,-83.21 26.09,-124.09 1.03,-3.87 7.3,-5.23 9.14,-1.2 11.37,24.93 22.74,49.86 34.11,74.79 -3.05,0.4 -6.09,0.79 -9.14,1.19 6.55,-27.39 17.69,-53.46 32.96,-77.13 2.11,-3.27 8.39,-3.33 9.14,1.19 8.59,51.7 10.85,104.2 6.5,156.43 -0.53,6.36 -10.53,6.42 -10,0 4.28,-51.31 2.29,-102.98 -6.14,-153.77 3.04,0.4 6.09,0.8 9.14,1.2 -14.85,23 -25.59,48.11 -31.96,74.74 -0.94,3.93 -7.33,5.16 -9.14,1.19 -11.36,-24.92 -22.73,-49.85 -34.1,-74.78 3.04,-0.4 6.09,-0.8 9.13,-1.2 -10.86,40.89 -19.57,82.3 -26.08,124.1 -0.99,6.34 -10.63,3.65 -9.65,-2.66 v 0"
         style="fill:#ffffff;fill-opacity:1;fill-rule:nonzero;stroke:none"
         transform="matrix(0.13333333,0,0,-0.13333333,0,666.66667)" />
      <path
         id="path71"
         d="m 2274.31,3693.87 c -18.27,-2.9 -43.74,-10.27 -43.99,-33.27 -0.1,-9.76 5.9,-17.75 11.85,-24.89 7.42,-8.89 15.64,-17.08 23.11,-25.93 13.57,-16.08 27.2,-39.87 17.33,-61.26 -6.6,-14.28 -28.58,-22.21 -40.02,-9.01 -4.23,4.87 -11.28,-2.23 -7.08,-7.08 8.35,-9.62 21.99,-11.64 33.72,-7.68 13.4,4.52 22.85,15.38 25.56,29.27 7.59,38.9 -26.82,64.5 -47.8,91.54 -6.99,9 -9.39,18.99 -0.38,27.74 7.94,7.71 19.9,9.27 30.35,10.93 6.34,1 3.65,10.64 -2.65,9.64 v 0"
         style="fill:#ffffff;fill-opacity:1;fill-rule:nonzero;stroke:none"
         transform="matrix(0.13333333,0,0,-0.13333333,0,666.66667)" />
      <path
         id="path72"
         d="m 2228.7,1710.89 c 129.41,110.89 289.62,262.95 446.2,320.52 180,66.18 277.74,-138.15 121.81,-275.57 0,0 -155.81,-118.33 -379.82,-266.68 -149.25,-98.85 -400.12,40.12 -188.19,221.73"
         style="fill:#f9b0dc;fill-opacity:1;fill-rule:nonzero;stroke:none"
         transform="matrix(0.13333333,0,0,-0.13333333,0,666.66667)" />
      <path
         id="path73"
         d="m 2479.03,1960.24 c 41.01,31.02 110.22,70.76 141.3,88.36 191.66,108.54 354.13,81.8 354.13,81.8 -4.55,-183.12 17.27,-552.28 -167.11,-405.36 0,0 -71.16,-68.06 -181.09,-166.33 l -147.23,401.53"
         style="fill:#6a46a7;fill-opacity:1;fill-rule:nonzero;stroke:none"
         transform="matrix(0.13333333,0,0,-0.13333333,0,666.66667)" />
      <path
         id="path74"
         d="m 2543.78,1783.65 -88.13,-165.66 88.68,118.2 60.5,-119.03 -61.05,166.49"
         style="fill:#f68bcb;fill-opacity:1;fill-rule:nonzero;stroke:none"
         transform="matrix(0.13333333,0,0,-0.13333333,0,666.66667)" />
      <path
         id="path75"
         d="m 2760.98,1952.88 c 0,0 -122.83,-193.91 -134.72,-394.17 l 83.25,75.28 51.47,318.89"
         style="fill:#5a42a3;fill-opacity:1;fill-rule:nonzero;stroke:none"
         transform="matrix(0.13333333,0,0,-0.13333333,0,666.66667)" />
      <path
         id="path76"
         d="m 3145.91,2126.25 c -95.85,7.03 -247.83,34.82 -336.2,-91.77 -90.96,-130.29 -116.11,-265.03 -138.34,-377.52 -42.9,-217.08 -42.79,-544.4 -42.79,-544.4 l 895.66,-10.33 2.05,863.88 c 0,0 -95.71,136.94 -208.86,150.59 -113.15,13.64 -107.59,4.86 -171.52,9.55"
         style="fill:#6a46a7;fill-opacity:1;fill-rule:nonzero;stroke:none"
         transform="matrix(0.13333333,0,0,-0.13333333,0,666.66667)" />
      <path
         id="path77"
         d="m 3129.96,1805.63 -67.54,-163.85 c -5.93,-14.38 5.43,-29.94 20.93,-28.67 l 145.86,11.89 c 14.8,1.2 23.61,17.07 16.81,30.27 l -78.32,151.96 c -8.13,15.76 -30.98,14.79 -37.74,-1.6"
         style="fill:#9a58b2;fill-opacity:1;fill-rule:nonzero;stroke:none"
         transform="matrix(0.13333333,0,0,-0.13333333,0,666.66667)" />
      <path
         id="path78"
         d="m 3403,1750.29 122.47,-132.3 0.16,69.22 z"
         style="fill:#5a42a3;fill-opacity:1;fill-rule:nonzero;stroke:none"
         transform="matrix(0.13333333,0,0,-0.13333333,0,666.66667)" />
      <path
         id="path79"
         d="M 4225.54,2300.07 C 4080.29,2142.54 3884.56,1913.06 3884.56,1913.06 L 3649,2019.32 c -116.25,55.18 -307.24,-215.08 -307.24,-215.08 0,0 421.88,-226.76 550.98,-226.76 122.11,0 253.26,174.61 517.26,503.11 91.42,113.76 211.74,189.03 206.58,233.04 -5.16,44 -96.28,-25.4 -96.28,-25.4 0,0 148.76,141.01 114.23,166.73 -34.54,25.72 -157.07,-92.67 -157.07,-92.67 0,0 107.59,148.43 75.52,170.81 -21.61,15.08 -91.09,-51.92 -134.06,-113.69 0,0 84.22,162.66 49.84,169.9 -34.38,7.24 -137.5,-188.95 -137.5,-188.95 0,0 36.09,143.05 -3.44,148.13 -39.53,5.09 -102.28,-248.42 -102.28,-248.42"
         style="fill:#f9b0dc;fill-opacity:1;fill-rule:nonzero;stroke:none"
         transform="matrix(0.13333333,0,0,-0.13333333,0,666.66667)" />
      <path
         id="path80"
         d="m 3774.51,1982.94 -171.34,-333.06 c 0,0 -294.07,137.75 -349.37,191.29 -55.3,53.54 33.93,276.01 84.93,271.51 89.41,-7.9 235.16,-32.79 435.78,-129.74"
         style="fill:#6a46a7;fill-opacity:1;fill-rule:nonzero;stroke:none"
         transform="matrix(0.13333333,0,0,-0.13333333,0,666.66667)" />
      <path
         id="path81"
         d="m 4481.59,2283.71 c -2.18,0 -4.18,1.43 -4.81,3.62 -11.67,40.88 -104.94,99.2 -105.88,99.79 -2.35,1.45 -3.07,4.54 -1.61,6.88 1.46,2.35 4.53,3.06 6.88,1.62 3.98,-2.47 97.5,-60.97 110.23,-105.53 0.76,-2.66 -0.78,-5.43 -3.44,-6.18 -0.46,-0.14 -0.91,-0.2 -1.37,-0.2"
         style="fill:#f575c1;fill-opacity:1;fill-rule:nonzero;stroke:none"
         transform="matrix(0.13333333,0,0,-0.13333333,0,666.66667)" />
      <path
         id="path82"
         d="m 4355.01,2280.24 c -0.19,0 -0.39,0.01 -0.59,0.04 -2.74,0.33 -4.7,2.81 -4.38,5.55 5.18,43.69 -23.11,111.9 -23.39,112.59 -1.07,2.55 0.13,5.48 2.67,6.54 2.56,1.07 5.47,-0.13 6.54,-2.67 1.21,-2.89 29.61,-71.32 24.12,-117.63 -0.31,-2.55 -2.47,-4.42 -4.97,-4.42"
         style="fill:#f575c1;fill-opacity:1;fill-rule:nonzero;stroke:none"
         transform="matrix(0.13333333,0,0,-0.13333333,0,666.66667)" />
      <path
         id="path83"
         d="m 2997.23,2116.76 c 0,0 -75.51,-132.27 89.07,-133.61 164.59,-1.34 212.83,135.68 212.83,135.68 0,0 -157.31,11.25 -224.73,13.29 -67.43,2.04 -77.17,-15.36 -77.17,-15.36"
         style="fill:#5a42a3;fill-opacity:1;fill-rule:nonzero;stroke:none"
         transform="matrix(0.13333333,0,0,-0.13333333,0,666.66667)" />
      <path
         id="path84"
         d="m 2645.97,2561.88 c -132.52,-69.17 17.02,-298.9 39.71,-289.33 22.68,9.57 53.95,338.21 -39.71,289.33"
         style="fill:#4453ad;fill-opacity:1;fill-rule:nonzero;stroke:none"
         transform="matrix(0.13333333,0,0,-0.13333333,0,666.66667)" />
      <path
         id="path85"
         d="m 3012.81,2083.39 c -4.9,17.09 -30.09,64.44 -30.09,64.44 l 169.61,205.78 100.97,-230.9 c 0,0 -49.58,-73.08 -120.25,-79.52 -38.83,-3.54 -107.96,-2.61 -120.24,40.2"
         style="fill:#f9b0dc;fill-opacity:1;fill-rule:nonzero;stroke:none"
         transform="matrix(0.13333333,0,0,-0.13333333,0,666.66667)" />
      <path
         id="path86"
         d="m 3130.82,2293.6 c 0,0 -15.94,-152.04 -133.59,-176.84 l -14.51,31.07 148.1,145.77"
         style="fill:#f68bcb;fill-opacity:1;fill-rule:nonzero;stroke:none"
         transform="matrix(0.13333333,0,0,-0.13333333,0,666.66667)" />
      <path
         id="path87"
         d="m 2659.42,2301.03 c 51.91,-135.57 203.89,-203.37 339.45,-151.46 135.56,51.92 203.37,203.9 151.45,339.46 -51.91,135.56 -203.89,203.36 -339.45,151.45 -135.56,-51.92 -203.37,-203.89 -151.45,-339.45"
         style="fill:#f9b0dc;fill-opacity:1;fill-rule:nonzero;stroke:none"
         transform="matrix(0.13333333,0,0,-0.13333333,0,666.66667)" />
      <path
         id="path88"
         d="m 3170.42,2312.43 c 54.23,26.99 118.33,342.64 -45.46,473.4 0,0 34.03,59.09 -32,85.15 -66.04,26.07 -72.96,-56.42 -72.96,-56.42 0,0 -24.39,107.75 -92.25,94.7 -67.87,-13.06 -18.42,-100.8 -18.42,-100.8 0,0 -369.67,23.15 -370.16,-182.7 -0.49,-205.86 281.39,-81.93 281.39,-81.93 68.22,33.38 135.67,58.94 135.67,58.94 0,0 219.17,-55.81 201.17,-172.08 -17.99,-116.27 13.02,-118.26 13.02,-118.26"
         style="fill:#4453ad;fill-opacity:1;fill-rule:nonzero;stroke:none"
         transform="matrix(0.13333333,0,0,-0.13333333,0,666.66667)" />
      <path
         id="path89"
         d="m 3086.3,2508.37 c 0,0 20.38,101.77 89.81,106.07 69.42,4.31 138.16,-129.32 25.21,-172.59 -60.56,-23.2 -84.07,0.54 -84.07,0.54"
         style="fill:#f9b0dc;fill-opacity:1;fill-rule:nonzero;stroke:none"
         transform="matrix(0.13333333,0,0,-0.13333333,0,666.66667)" />
      <path
         id="path90"
         d="m 3135.8,2493.49 c -1.07,0 -2.15,0.34 -3.07,1.06 -2.17,1.69 -2.56,4.84 -0.87,7.01 l 49.07,63.05 c 1.7,2.19 4.84,2.58 7.02,0.88 2.18,-1.7 2.57,-4.84 0.87,-7.02 l -49.07,-63.05 c -0.99,-1.26 -2.46,-1.93 -3.95,-1.93"
         style="fill:#f575c1;fill-opacity:1;fill-rule:nonzero;stroke:none"
         transform="matrix(0.13333333,0,0,-0.13333333,0,666.66667)" />
      <path
         id="path91"
         d="m 2911.16,2444.37 c 4.1,-10.71 16.11,-16.07 26.82,-11.97 10.71,4.1 16.07,16.11 11.96,26.82 -4.1,10.71 -16.11,16.07 -26.82,11.97 -10.71,-4.1 -16.07,-16.11 -11.96,-26.82"
         style="fill:#151520;fill-opacity:1;fill-rule:nonzero;stroke:none"
         transform="matrix(0.13333333,0,0,-0.13333333,0,666.66667)" />
      <path
         id="path92"
         d="m 2857.25,2326.13 c -10.35,0 -20.13,6.29 -24.04,16.51 -2.46,6.41 -2.27,13.39 0.53,19.67 2.8,6.26 7.87,11.07 14.28,13.51 2.55,0.97 5.4,-0.29 6.37,-2.84 0.97,-2.54 -0.3,-5.39 -2.84,-6.37 -3.95,-1.51 -7.08,-4.47 -8.8,-8.33 -1.73,-3.86 -1.84,-8.16 -0.33,-12.11 3.13,-8.16 12.32,-12.23 20.46,-9.14 2.56,0.98 5.4,-0.3 6.37,-2.84 0.97,-2.54 -0.3,-5.39 -2.85,-6.37 -3.01,-1.15 -6.1,-1.69 -9.15,-1.69"
         style="fill:#f575c1;fill-opacity:1;fill-rule:nonzero;stroke:none"
         transform="matrix(0.13333333,0,0,-0.13333333,0,666.66667)" />
      <path
         id="path93"
         d="m 2723.53,2372.51 c 4.1,-10.71 16.11,-16.07 26.82,-11.97 10.71,4.11 16.07,16.12 11.97,26.83 -4.1,10.71 -16.11,16.06 -26.82,11.96 -10.72,-4.1 -16.07,-16.11 -11.97,-26.82"
         style="fill:#151520;fill-opacity:1;fill-rule:nonzero;stroke:none"
         transform="matrix(0.13333333,0,0,-0.13333333,0,666.66667)" />
      <path
         id="path94"
         d="m 2748.99,2557.37 c 8.72,-14.86 23.27,-50.34 22.4,-63.08 -0.72,-10.46 -50.68,-87.39 -104.87,-96.19 -54.19,-8.8 -74.58,4.11 -74.58,4.11 -3.76,3.09 80.19,56.44 157.05,155.16"
         style="fill:#3b47a4;fill-opacity:1;fill-rule:nonzero;stroke:none"
         transform="matrix(0.13333333,0,0,-0.13333333,0,666.66667)" />
      <path
         id="path95"
         d="m 2814.87,2567.56 c 4.86,-16.53 20.73,-51.44 30.61,-59.53 8.11,-6.64 98.38,-22.95 141.92,10.5 43.53,33.45 48.09,57.15 48.09,57.15 0.32,4.85 -96.05,-19.76 -220.62,-8.12"
         style="fill:#3b47a4;fill-opacity:1;fill-rule:nonzero;stroke:none"
         transform="matrix(0.13333333,0,0,-0.13333333,0,666.66667)" />
      <path
         id="path96"
         d="m 2847.12,2215.32 c -0.97,0 -1.96,0.29 -2.82,0.9 -2.23,1.56 -2.78,4.62 -1.22,6.86 1.7,2.46 42.62,59.98 116.89,50.83 2.7,-0.32 4.62,-2.79 4.29,-5.49 -0.33,-2.71 -2.7,-4.67 -5.5,-4.3 -68.11,8.42 -107.21,-46.14 -107.59,-46.69 -0.96,-1.38 -2.5,-2.11 -4.05,-2.11"
         style="fill:#f250b0;fill-opacity:1;fill-rule:nonzero;stroke:none"
         transform="matrix(0.13333333,0,0,-0.13333333,0,666.66667)" />
      <path
         id="path97"
         d="m 2507.62,2265.23 c -76.52,155.5 -55.5,273.4 -6.69,313.5 24.21,19.88 54.94,5.84 32.96,-25.71 -18.84,-27.04 -27.1,-84.15 -24.56,-88.1 7.32,30.42 19.99,71.17 38.31,89.6 31.12,31.32 73.09,45.7 96.02,25.92 9.06,-7.81 0.8,-19.67 0.8,-19.67 0,0 34.83,14.11 44.37,-8.92 12.89,-31.11 -28.36,-52.48 -28.36,-52.48 0,0 31.28,22.3 43.07,-6.72 8.36,-20.59 -21.15,-41.31 -46.31,-66.63 -31.13,-31.32 3.77,-120.19 18.03,-132.63 14.27,-12.43 65.28,-70.88 47.56,-136.22 -33.72,-124.32 -302.65,-603.07 -302.65,-603.07 -124.92,-144.58 -370.56,-80.27 -231.82,183.62 l 319.27,527.51"
         style="fill:#f9b0dc;fill-opacity:1;fill-rule:nonzero;stroke:none"
         transform="matrix(0.13333333,0,0,-0.13333333,0,666.66667)" />
      <path
         id="path98"
         d="m 2548.89,2433.83 c -2.71,0 -4.94,2.17 -5,4.88 -0.72,31.22 12.6,67.15 25.49,85.12 12.14,16.92 67.02,39.11 73.23,41.58 2.57,1.04 5.48,-0.23 6.5,-2.79 1.02,-2.57 -0.23,-5.48 -2.8,-6.5 -16.14,-6.43 -59.96,-25.8 -68.81,-38.12 -10.23,-14.26 -24.32,-48.21 -23.61,-79.05 0.06,-2.77 -2.13,-5.05 -4.89,-5.12 -0.04,0 -0.08,0 -0.11,0"
         style="fill:#f575c1;fill-opacity:1;fill-rule:nonzero;stroke:none"
         transform="matrix(0.13333333,0,0,-0.13333333,0,666.66667)" />
      <path
         id="path99"
         d="m 2594.5,2385.54 c -2.71,0 -4.94,2.17 -5,4.88 -0.72,31.22 12.6,67.16 25.49,85.12 12.41,17.29 42.53,28.09 43.81,28.54 2.6,0.92 5.46,-0.44 6.38,-3.04 0.92,-2.61 -0.44,-5.46 -3.04,-6.39 -0.29,-0.1 -28.45,-10.21 -39.03,-24.95 -10.23,-14.25 -24.32,-48.21 -23.61,-79.05 0.06,-2.76 -2.13,-5.04 -4.89,-5.11 -0.04,0 -0.08,0 -0.11,0"
         style="fill:#f575c1;fill-opacity:1;fill-rule:nonzero;stroke:none"
         transform="matrix(0.13333333,0,0,-0.13333333,0,666.66667)" />
      <path
         id="path100"
         d="m 2722.82,2152.17 c -0.43,0 -0.87,0.06 -1.31,0.17 -2.67,0.73 -4.24,3.47 -3.52,6.14 16.3,60.1 -28.89,116.22 -46.01,131.14 -11.78,10.27 -30.89,56.26 -32.21,93.55 -0.74,20.74 3.94,36.34 13.91,46.37 5.01,5.04 10.18,9.89 15.2,14.61 19.02,17.84 35.45,33.26 30.03,46.62 -2.5,6.15 -6,9.8 -10.68,11.16 -6.29,1.83 -13.99,-0.76 -19.39,-3.44 -2.13,-1.39 -4.18,-2.58 -6.07,-3.56 -2.33,-1.2 -5.2,-0.4 -6.57,1.83 -1.37,2.24 -0.77,5.15 1.37,6.68 0.24,0.17 2.36,1.66 5.66,3.39 9.8,6.42 29.54,22.45 20.98,43.11 -7.52,18.15 -37.56,6.31 -37.88,6.19 -2.03,-0.83 -4.4,-0.21 -5.77,1.52 -1.38,1.73 -1.46,4.16 -0.2,5.97 0.56,0.83 5.44,8.37 0.03,13.04 -19.54,16.85 -57.9,5.83 -89.21,-25.67 -1.94,-1.96 -5.1,-1.97 -7.07,-0.02 -1.96,1.95 -1.97,5.11 -0.02,7.07 35.05,35.26 79.25,46.52 102.83,26.19 5.41,-4.66 6.51,-10.5 5.78,-15.71 14.44,3.22 33.58,2.53 40.75,-14.75 6.65,-16.07 0.71,-30.42 -8.52,-41.25 2.03,-0.09 4.07,-0.4 6.09,-0.98 7.71,-2.24 13.48,-7.97 17.15,-17.01 8.01,-19.72 -11.64,-38.15 -32.45,-57.67 -4.93,-4.63 -10.02,-9.41 -14.95,-14.37 -7.94,-7.99 -11.65,-21.1 -11.01,-38.96 1.27,-35.89 19.94,-78.65 28.79,-86.37 18.34,-15.99 66.73,-76.26 49.09,-141.3 -0.6,-2.23 -2.62,-3.69 -4.82,-3.69"
         style="fill:#f575c1;fill-opacity:1;fill-rule:nonzero;stroke:none"
         transform="matrix(0.13333333,0,0,-0.13333333,0,666.66667)" />
      <path
         id="path101"
         d="m 1430.85,1133.97 h 639.46 c 59.74,0 108.72,52.76 104.75,112.83 l -22.19,335.81 c -3.36,50.92 -44.07,89.3 -94.7,89.3 h -639.46 c -59.73,0 -108.72,-52.76 -104.75,-112.83 l 22.19,-335.81 c 3.36,-50.92 44.07,-89.3 94.7,-89.3"
         style="fill:#3b47a4;fill-opacity:1;fill-rule:nonzero;stroke:none"
         transform="matrix(0.13333333,0,0,-0.13333333,0,666.66667)" />
      <path
         id="path102"
         d="m 1397.39,1133.97 h 639.47 c 59.73,0 108.71,52.76 104.74,112.83 l -22.18,335.81 c -3.37,50.92 -44.07,89.3 -94.71,89.3 h -639.46 c -59.73,0 -108.71,-52.76 -104.75,-112.83 l 22.19,-335.81 c 3.36,-50.92 44.07,-89.3 94.7,-89.3"
         style="fill:#4453ad;fill-opacity:1;fill-rule:nonzero;stroke:none"
         transform="matrix(0.13333333,0,0,-0.13333333,0,666.66667)" />
      <path
         id="path103"
         d="m 1766.94,1356.58 -46.39,82.87 c -10.02,17.9 -36.93,14.14 -43.61,-6.09 l -27.37,-82.87 c -5.1,-15.44 5.59,-30.8 21.45,-30.8 h 73.76 c 18.7,0 31.18,20.78 22.16,36.89"
         style="fill:#ffffff;fill-opacity:1;fill-rule:nonzero;stroke:none"
         transform="matrix(0.13333333,0,0,-0.13333333,0,666.66667)" />
      <path
         id="path104"
         d="m 1347.32,1601.91 c -0.52,-10.29 7.31,-18.63 17.47,-18.63 10.17,0 18.82,8.34 19.33,18.63 0.51,10.3 -7.31,18.64 -17.48,18.64 -10.16,0 -18.81,-8.34 -19.32,-18.64"
         style="fill:#51b6e0;fill-opacity:1;fill-rule:nonzero;stroke:none"
         transform="matrix(0.13333333,0,0,-0.13333333,0,666.66667)" />
      <path
         id="path105"
         d="M 4385.5,1133.97 H 487.457 c -21.137,0 -38.273,-17.13 -38.273,-38.27 v 0 c 0,-21.14 17.136,-38.27 38.273,-38.27 H 4385.5 c 21.14,0 38.27,17.13 38.27,38.27 v 0 c 0,21.14 -17.13,38.27 -38.27,38.27"
         style="fill:#f145ab;fill-opacity:1;fill-rule:nonzero;stroke:none"
         transform="matrix(0.13333333,0,0,-0.13333333,0,666.66667)" />
      <path
         id="path106"
         d="m 3035.19,1289.24 h 466.78 c -24.58,0 -44.51,-19.93 -44.51,-44.51 v -66.51 c 0,-24.58 19.93,-44.5 44.51,-44.5 h -466.78 c -24.58,0 -44.5,19.92 -44.5,44.5 v 66.51 c 0,24.58 19.92,44.51 44.5,44.51"
         style="fill:#fac318;fill-opacity:1;fill-rule:nonzero;stroke:none"
         transform="matrix(0.13333333,0,0,-0.13333333,0,666.66667)" />
      <path
         id="path107"
         d="m 3938.96,1152.26 c -3.59,7.93 -5.59,16.71 -5.59,25.96 v 66.51 c 0,9.25 2,18.04 5.59,25.96 h -436.79 c -14.31,0 -25.95,-11.65 -25.95,-25.96 v -66.51 c 0,-14.31 11.64,-25.96 25.95,-25.96 h 436.79"
         style="fill:#ffffff;fill-opacity:1;fill-rule:nonzero;stroke:none"
         transform="matrix(0.13333333,0,0,-0.13333333,0,666.66667)" />
      <path
         id="path108"
         d="m 3933.37,1231.66 h -374.49 c -2.76,0 -5,2.24 -5,5 0,2.76 2.24,5 5,5 h 374.49 c 2.76,0 5,-2.24 5,-5 0,-2.76 -2.24,-5 -5,-5"
         style="fill:#100f0d;fill-opacity:1;fill-rule:nonzero;stroke:none"
         transform="matrix(0.13333333,0,0,-0.13333333,0,666.66667)" />
      <path
         id="path109"
         d="m 3673.5,1194.72 h -161.62 c -2.76,0 -5,2.23 -5,5 0,2.76 2.24,5 5,5 h 161.62 c 2.76,0 5,-2.24 5,-5 0,-2.77 -2.24,-5 -5,-5"
         style="fill:#100f0d;fill-opacity:1;fill-rule:nonzero;stroke:none"
         transform="matrix(0.13333333,0,0,-0.13333333,0,666.66667)" />
      <path
         id="path110"
         d="m 3013.62,1171.03 h 47.48 v 81.73 h -47.48 v -81.73"
         style="fill:#ef2b57;fill-opacity:1;fill-rule:nonzero;stroke:none"
         transform="matrix(0.13333333,0,0,-0.13333333,0,666.66667)" />
      <path
         id="path111"
         d="m 3938.96,1147.27 c -1.9,0 -3.72,1.09 -4.56,2.94 -4,8.83 -6.03,18.26 -6.03,28.01 v 66.51 c 0,9.74 2.03,19.18 6.03,28.02 1.14,2.51 4.1,3.63 6.62,2.49 2.51,-1.13 3.63,-4.09 2.5,-6.61 -3.42,-7.55 -5.15,-15.58 -5.15,-23.9 v -66.51 c 0,-8.32 1.73,-16.36 5.15,-23.89 1.13,-2.51 0.02,-5.48 -2.5,-6.61 -0.66,-0.31 -1.37,-0.45 -2.06,-0.45"
         style="fill:#100f0d;fill-opacity:1;fill-rule:nonzero;stroke:none"
         transform="matrix(0.13333333,0,0,-0.13333333,0,666.66667)" />
      <path
         id="path112"
         d="m 3962.94,1270.69 h -460.97 c -14.31,0 -25.96,-11.65 -25.96,-25.96 v -66.51 c 0,-14.31 11.65,-25.96 25.96,-25.96 h 460.97 v -18.54 h -460.97 c -24.58,0 -44.51,19.92 -44.51,44.5 v 66.51 c 0,24.58 19.93,44.51 44.51,44.51 h 460.97 v -18.55"
         style="fill:#f8a00e;fill-opacity:1;fill-rule:nonzero;stroke:none"
         transform="matrix(0.13333333,0,0,-0.13333333,0,666.66667)" />
      <path
         id="path113"
         d="m 3918.43,1444.91 h -466.77 c 24.58,0 44.5,-19.93 44.5,-44.51 v -66.51 c 0,-24.58 -19.92,-44.5 -44.5,-44.5 h 466.77 c 24.58,0 44.51,19.92 44.51,44.5 v 66.51 c 0,24.58 -19.93,44.51 -44.51,44.51"
         style="fill:#f145ab;fill-opacity:1;fill-rule:nonzero;stroke:none"
         transform="matrix(0.13333333,0,0,-0.13333333,0,666.66667)" />
      <path
         id="path114"
         d="m 3014.66,1307.94 c 3.6,7.92 5.59,16.7 5.59,25.95 v 66.51 c 0,9.25 -1.99,18.04 -5.59,25.96 h 436.79 c 14.32,0 25.96,-11.65 25.96,-25.96 v -66.51 c 0,-14.31 -11.64,-25.95 -25.96,-25.95 h -436.79"
         style="fill:#ffffff;fill-opacity:1;fill-rule:nonzero;stroke:none"
         transform="matrix(0.13333333,0,0,-0.13333333,0,666.66667)" />
      <path
         id="path115"
         d="m 3394.74,1387.33 h -374.49 c -2.76,0 -5,2.24 -5,5 0,2.77 2.24,5 5,5 h 374.49 c 2.76,0 5,-2.23 5,-5 0,-2.76 -2.24,-5 -5,-5"
         style="fill:#100f0d;fill-opacity:1;fill-rule:nonzero;stroke:none"
         transform="matrix(0.13333333,0,0,-0.13333333,0,666.66667)" />
      <path
         id="path116"
         d="m 3441.74,1350.39 h -161.61 c -2.77,0 -5,2.24 -5,5 0,2.76 2.23,5 5,5 h 161.61 c 2.76,0 5,-2.24 5,-5 0,-2.76 -2.24,-5 -5,-5"
         style="fill:#100f0d;fill-opacity:1;fill-rule:nonzero;stroke:none"
         transform="matrix(0.13333333,0,0,-0.13333333,0,666.66667)" />
      <path
         id="path117"
         d="m 3940.01,1326.7 h -47.49 v 81.73 h 47.49 v -81.73"
         style="fill:#fac318;fill-opacity:1;fill-rule:nonzero;stroke:none"
         transform="matrix(0.13333333,0,0,-0.13333333,0,666.66667)" />
      <path
         id="path118"
         d="m 3014.66,1302.94 c -0.69,0 -1.39,0.15 -2.06,0.45 -2.52,1.14 -3.63,4.1 -2.49,6.62 3.41,7.52 5.14,15.56 5.14,23.89 v 66.5 c 0,8.33 -1.73,16.37 -5.14,23.89 -1.14,2.52 -0.03,5.48 2.49,6.62 2.52,1.15 5.48,0.02 6.61,-2.48 4.01,-8.84 6.04,-18.26 6.04,-28.03 v -66.5 c 0,-9.77 -2.03,-19.19 -6.04,-28.03 -0.83,-1.84 -2.65,-2.93 -4.55,-2.93"
         style="fill:#100f0d;fill-opacity:1;fill-rule:nonzero;stroke:none"
         transform="matrix(0.13333333,0,0,-0.13333333,0,666.66667)" />
      <path
         id="path119"
         d="m 2990.69,1426.36 h 460.96 c 14.31,0 25.96,-11.65 25.96,-25.96 v -66.51 c 0,-14.31 -11.65,-25.95 -25.96,-25.95 h -460.96 v -18.55 h 460.97 c 24.58,0 44.5,19.92 44.5,44.5 v 66.51 c 0,24.58 -19.92,44.51 -44.5,44.51 h -460.97 v -18.55"
         style="fill:#d92d64;fill-opacity:1;fill-rule:nonzero;stroke:none"
         transform="matrix(0.13333333,0,0,-0.13333333,0,666.66667)" />
    </g>
  </g>
</svg>
