<?xml version="1.0" encoding="UTF-8" standalone="no"?>
<!-- Created with Inkscape (http://www.inkscape.org/) -->

<svg
   version="1.1"
   id="svg1"
   width="4000"
   height="2666.6667"
   viewBox="0 0 4000 2666.6667"
   sodipodi:docname="11145.eps"
   xmlns:inkscape="http://www.inkscape.org/namespaces/inkscape"
   xmlns:sodipodi="http://sodipodi.sourceforge.net/DTD/sodipodi-0.dtd"
   xmlns="http://www.w3.org/2000/svg"
   xmlns:svg="http://www.w3.org/2000/svg">
  <defs
     id="defs1" />
  <sodipodi:namedview
     id="namedview1"
     pagecolor="#ffffff"
     bordercolor="#000000"
     borderopacity="0.25"
     inkscape:showpageshadow="2"
     inkscape:pageopacity="0.0"
     inkscape:pagecheckerboard="0"
     inkscape:deskcolor="#d1d1d1">
    <inkscape:page
       x="0"
       y="0"
       inkscape:label="1"
       id="page1"
       width="4000"
       height="2666.6667"
       margin="0"
       bleed="0" />
  </sodipodi:namedview>
  <g
     id="g1"
     inkscape:groupmode="layer"
     inkscape:label="1">
    <g
       id="group-R5">

      <path
         id="path3"
         d="m 26993.7,3264.9 c -1549.1,0 -24115.83,-4.7 -24128.86,29.4 l -2.21,4.3 c 0,0 -2.21,4.2 -2.21,6.3 -8.63,17.1 -3477.022,4808 1915.03,8143.2 2109.75,1305 -132.03,2166.4 1545.64,3619.2 1107.75,959.1 2273.64,757.6 3471.79,556 887.22,-149.2 1792.22,-298.5 2704.32,23.6 378.9,133.6 759,348.7 1139.5,678.8 214.2,185.6 448.9,347.9 700.2,488 38.6,21.6 77.5,42.7 116.8,63.1 150.5,78.4 306.5,149.2 467.2,212.9 107.9,42.8 217.9,82.3 330,118.6 h 0.1 c 177.7,57.7 360.3,107.5 546.8,149.5 264.9,59.8 537.5,104.2 815.6,134.3 121.3,13.3 243.6,23.6 366.8,31.4 2395.5,151.2 5091.5,-699.2 6482.7,-1942.2 280.1,-250.3 1553.8,-1545.4 549.8,-3325.5 -633.9,-1123.9 2021.7,-2197.3 2965.4,-3480.7 2399.3,-3263 37.4,-5467.7 15.6,-5510.2"
         style="fill:#0261e6;fill-opacity:1;fill-rule:nonzero;stroke:none"
         transform="matrix(0.13333333,0,0,-0.13333333,0,2666.6667)" />
      <path
         id="path4"
         d="m 15659.9,10424.9 -1379.1,-291 -291.1,1379.1 1379.2,291 291,-1379.1"
         style="fill:#d9e8fe;fill-opacity:1;fill-rule:nonzero;stroke:none"
         transform="matrix(0.13333333,0,0,-0.13333333,0,2666.6667)" />
      <path
         id="path5"
         d="m 15465.6,9692.7 -1321.9,489.4 489.3,1321.8 1321.9,-489.3 -489.3,-1321.9"
         style="fill:#f5fbff;fill-opacity:1;fill-rule:nonzero;stroke:none"
         transform="matrix(0.13333333,0,0,-0.13333333,0,2666.6667)" />
      <path
         id="path6"
         d="m 14368.5,12496.2 h -1804.3 c -86.3,0 -157,70.7 -157,157 v 1891.7 c 0,86.3 70.7,157 157,157 h 1804.3 c 86.3,0 157,-70.7 157,-157 v -1891.7 c 0,-86.3 -70.7,-157 -157,-157"
         style="fill:#8fadef;fill-opacity:1;fill-rule:nonzero;stroke:none"
         transform="matrix(0.13333333,0,0,-0.13333333,0,2666.6667)" />
      <path
         id="path7"
         d="m 14290.3,12591.8 h -1647.9 c -78.9,0 -143.4,64.5 -143.4,143.4 v 1727.7 c 0,78.9 64.5,143.4 143.4,143.4 h 1647.9 c 78.9,0 143.4,-64.5 143.4,-143.4 v -1727.7 c 0,-78.9 -64.5,-143.4 -143.4,-143.4"
         style="fill:#dfebfd;fill-opacity:1;fill-rule:nonzero;stroke:none"
         transform="matrix(0.13333333,0,0,-0.13333333,0,2666.6667)" />
      <path
         id="path8"
         d="m 13422.5,14405 c 0,26 19.6,47.1 43.8,47.1 24.3,0 43.9,-21.1 43.9,-47.1 0,-26 -19.6,-47.1 -43.9,-47.1 -24.2,0 -43.8,21.1 -43.8,47.1"
         style="fill:#8fadef;fill-opacity:1;fill-rule:nonzero;stroke:none"
         transform="matrix(0.13333333,0,0,-0.13333333,0,2666.6667)" />
      <path
         id="path9"
         d="m 13776.5,14338.4 c 11.8,22.8 38.5,31 59.7,18.3 21.2,-12.6 28.8,-41.3 17,-64 -11.7,-22.7 -38.5,-30.9 -59.6,-18.3 -21.2,12.7 -28.8,41.3 -17.1,64"
         style="fill:#8fadef;fill-opacity:1;fill-rule:nonzero;stroke:none"
         transform="matrix(0.13333333,0,0,-0.13333333,0,2666.6667)" />
      <path
         id="path10"
         d="m 14079.9,14079.8 c 20.3,14.1 47.5,7.8 60.6,-14 13.1,-21.9 7.3,-51 -13.1,-65.1 -20.3,-14.1 -47.5,-7.9 -60.6,14 -13.2,21.9 -7.3,51 13.1,65.1"
         style="fill:#8fadef;fill-opacity:1;fill-rule:nonzero;stroke:none"
         transform="matrix(0.13333333,0,0,-0.13333333,0,2666.6667)" />
      <path
         id="path11"
         d="m 14230.1,13679.5 c 24.2,0 43.9,-21.1 43.9,-47.1 0,-26 -19.7,-47.1 -43.9,-47.1 -24.2,0 -43.9,21.1 -43.9,47.1 0,26 19.7,47.1 43.9,47.1"
         style="fill:#8fadef;fill-opacity:1;fill-rule:nonzero;stroke:none"
         transform="matrix(0.13333333,0,0,-0.13333333,0,2666.6667)" />
      <path
         id="path12"
         d="m 14153.4,13214.9 c 17.1,-18.4 17.1,-48.2 0,-66.6 -17.1,-18.4 -44.9,-18.4 -62.1,0 -17.1,18.4 -17.1,48.2 0,66.6 17.2,18.4 45,18.4 62.1,0"
         style="fill:#8fadef;fill-opacity:1;fill-rule:nonzero;stroke:none"
         transform="matrix(0.13333333,0,0,-0.13333333,0,2666.6667)" />
      <path
         id="path13"
         d="m 13877.9,12918.4 c 17.1,-18.4 17.1,-48.2 0,-66.6 -17.2,-18.4 -45,-18.4 -62.1,0 -17.1,18.4 -17.1,48.2 0,66.6 17.1,18.4 44.9,18.4 62.1,0"
         style="fill:#8fadef;fill-opacity:1;fill-rule:nonzero;stroke:none"
         transform="matrix(0.13333333,0,0,-0.13333333,0,2666.6667)" />
      <path
         id="path14"
         d="m 13422.5,12765.6 c 0,26 19.6,47 43.8,47 24.3,0 43.9,-21 43.9,-47 0,-26.1 -19.6,-47.2 -43.9,-47.2 -24.2,0 -43.8,21.1 -43.8,47.2"
         style="fill:#8fadef;fill-opacity:1;fill-rule:nonzero;stroke:none"
         transform="matrix(0.13333333,0,0,-0.13333333,0,2666.6667)" />
      <path
         id="path15"
         d="m 13154.8,14338.4 c -11.8,22.8 -38.5,31 -59.7,18.3 -21.2,-12.6 -28.8,-41.3 -17,-64 11.7,-22.7 38.4,-30.9 59.6,-18.3 21.2,12.7 28.8,41.3 17.1,64"
         style="fill:#8fadef;fill-opacity:1;fill-rule:nonzero;stroke:none"
         transform="matrix(0.13333333,0,0,-0.13333333,0,2666.6667)" />
      <path
         id="path16"
         d="m 12851.4,14079.8 c -20.3,14.1 -47.5,7.8 -60.6,-14 -13.2,-21.9 -7.3,-51 13.1,-65.1 20.3,-14.1 47.5,-7.9 60.6,14 13.2,21.9 7.3,51 -13.1,65.1"
         style="fill:#8fadef;fill-opacity:1;fill-rule:nonzero;stroke:none"
         transform="matrix(0.13333333,0,0,-0.13333333,0,2666.6667)" />
      <path
         id="path17"
         d="m 12701.2,13679.5 c -24.2,0 -43.9,-21.1 -43.9,-47.1 0,-26 19.7,-47.1 43.9,-47.1 24.2,0 43.9,21.1 43.9,47.1 0,26 -19.7,47.1 -43.9,47.1"
         style="fill:#8fadef;fill-opacity:1;fill-rule:nonzero;stroke:none"
         transform="matrix(0.13333333,0,0,-0.13333333,0,2666.6667)" />
      <path
         id="path18"
         d="m 12777.9,13214.9 c -17.1,-18.4 -17.1,-48.2 0,-66.6 17.1,-18.4 44.9,-18.4 62.1,0 17.1,18.4 17.1,48.2 0,66.6 -17.2,18.4 -45,18.4 -62.1,0"
         style="fill:#8fadef;fill-opacity:1;fill-rule:nonzero;stroke:none"
         transform="matrix(0.13333333,0,0,-0.13333333,0,2666.6667)" />
      <path
         id="path19"
         d="m 13053.4,12918.4 c -17.1,-18.4 -17.1,-48.2 0,-66.6 17.2,-18.4 45,-18.4 62.1,0 17.1,18.4 17.1,48.2 0,66.6 -17.1,18.4 -44.9,18.4 -62.1,0"
         style="fill:#8fadef;fill-opacity:1;fill-rule:nonzero;stroke:none"
         transform="matrix(0.13333333,0,0,-0.13333333,0,2666.6667)" />
      <path
         id="path20"
         d="m 13454.5,13632.4 c 0,26 19.7,47.1 43.9,47.1 24.2,0 43.9,-21.1 43.9,-47.1 0,-26 -19.7,-47.1 -43.9,-47.1 -24.2,0 -43.9,21.1 -43.9,47.1"
         style="fill:#8fadef;fill-opacity:1;fill-rule:nonzero;stroke:none"
         transform="matrix(0.13333333,0,0,-0.13333333,0,2666.6667)" />
      <path
         id="path21"
         d="m 13504.4,13632.4 h -12 v 588.3 h 12 v -588.3"
         style="fill:#8fadef;fill-opacity:1;fill-rule:nonzero;stroke:none"
         transform="matrix(0.13333333,0,0,-0.13333333,0,2666.6667)" />
      <path
         id="path22"
         d="m 13504,13618 -22.2,30.4 290.6,244.8 22.2,-30.3 -290.6,-244.9"
         style="fill:#8fadef;fill-opacity:1;fill-rule:nonzero;stroke:none"
         transform="matrix(0.13333333,0,0,-0.13333333,0,2666.6667)" />
      <path
         id="path23"
         d="m 17855.4,15223.6 -58.3,32 c -62.2,34.1 -85,112.4 -50.9,174.6 l 268.1,488.7 c 34.1,62.2 112.4,85.1 174.6,51 l 83.4,-45.8 c 12.2,-6.7 16.7,-22 10,-34.2 -6.7,-12.2 -22,-16.6 -34.2,-9.9 l -83.4,45.7 c -37.9,20.8 -85.5,6.9 -106.3,-31 l -268.1,-488.7 c -20.7,-37.8 -6.8,-85.5 31,-106.3 l 58.3,-31.9 c 37.8,-20.8 85.5,-6.9 106.2,31 l 178,324.4 c 6.7,12.2 22,16.6 34.2,10 12.2,-6.7 16.6,-22 9.9,-34.2 l -177.9,-324.4 c -34.1,-62.2 -112.5,-85.1 -174.6,-51"
         style="fill:#9fc1f4;fill-opacity:1;fill-rule:nonzero;stroke:none"
         transform="matrix(0.13333333,0,0,-0.13333333,0,2666.6667)" />
      <path
         id="path24"
         d="m 17606.6,14710.4 -104.4,57.3 c -97,53.2 -129.5,180.9 -72.5,284.8 l 403,734.8 c 6.7,12.1 22,16.6 34.2,9.9 12.2,-6.7 16.6,-22 9.9,-34.1 l -403,-734.8 c -43.6,-79.5 -20,-176.6 52.6,-216.5 l 104.4,-57.2 c 72.6,-39.9 167.2,-7.6 210.8,72 l 459.1,836.9 c 43.6,79.5 20,176.6 -52.6,216.5 -12.2,6.7 -16.6,21.9 -10,34.1 6.7,12.2 22,16.7 34.2,10 97,-53.2 129.5,-180.9 72.5,-284.8 l -459.1,-836.9 c -56.9,-103.9 -182.1,-145.2 -279.1,-92"
         style="fill:#9fc1f4;fill-opacity:1;fill-rule:nonzero;stroke:none"
         transform="matrix(0.13333333,0,0,-0.13333333,0,2666.6667)" />
      <path
         id="path25"
         d="m 21949,13134.6 46.1,47.8 c 49.3,51 130.9,52.4 181.9,3.2 l 401.1,-387.1 c 51,-49.3 52.5,-130.8 3.2,-181.9 l -66.1,-68.4 c -9.6,-10 -25.6,-10.3 -35.6,-0.7 -10,9.7 -10.2,25.6 -0.6,35.6 l 66.1,68.5 c 30,31 29.1,80.7 -2,110.7 l -401.1,387.1 c -31,29.9 -80.7,29 -110.7,-2 l -46.1,-47.8 c -30,-31.1 -29.1,-80.7 2,-110.7 l 266.2,-257 c 10,-9.6 10.3,-25.5 0.7,-35.5 -9.7,-10 -25.6,-10.3 -35.6,-0.7 l -266.3,257 c -51,49.2 -52.5,130.8 -3.2,181.9"
         style="fill:#ff8c64;fill-opacity:1;fill-rule:nonzero;stroke:none"
         transform="matrix(0.13333333,0,0,-0.13333333,0,2666.6667)" />
      <path
         id="path26"
         d="m 21519.2,13509.4 82.7,85.7 c 76.8,79.6 208.6,77.4 293.8,-4.9 l 603,-581.9 c 10,-9.7 10.3,-25.6 0.7,-35.6 -9.7,-10 -25.6,-10.3 -35.6,-0.6 l -603,581.9 c -65.3,63 -165.2,65.8 -222.7,6.2 l -82.7,-85.7 c -57.5,-59.6 -51.2,-159.3 14.1,-222.3 l 686.8,-662.9 c 65.3,-63 165.2,-65.8 222.7,-6.2 9.7,10 25.6,10.3 35.6,0.7 10,-9.7 10.3,-25.6 0.6,-35.6 -76.7,-79.6 -208.6,-77.4 -293.8,4.9 l -686.9,662.9 c -85.2,82.2 -92.1,213.9 -15.3,293.4"
         style="fill:#ff8c64;fill-opacity:1;fill-rule:nonzero;stroke:none"
         transform="matrix(0.13333333,0,0,-0.13333333,0,2666.6667)" />
      <path
         id="path27"
         d="m 12808.5,8264.6 c 0,0 -82.3,1360.3 -317.5,1786.1 h 1238.3 V 8267.4 l -920.8,-2.8"
         style="fill:#d9e8fe;fill-opacity:1;fill-rule:nonzero;stroke:none"
         transform="matrix(0.13333333,0,0,-0.13333333,0,2666.6667)" />
      <path
         id="path28"
         d="m 13427.7,8264.6 c 0,0 -82.3,1360.3 -317.5,1786.1 h 1238.3 V 8267.4 l -920.8,-2.8"
         style="fill:#bbc9f9;fill-opacity:1;fill-rule:nonzero;stroke:none"
         transform="matrix(0.13333333,0,0,-0.13333333,0,2666.6667)" />
      <path
         id="path29"
         d="m 15092.1,6916.1 h -1198.5 v 3866.3 h 1198.5 V 6916.1"
         style="fill:#35488b;fill-opacity:1;fill-rule:nonzero;stroke:none"
         transform="matrix(0.13333333,0,0,-0.13333333,0,2666.6667)" />
      <path
         id="path30"
         d="m 17982.3,6916.1 h -2890.2 v 3866.3 h 2890.2 V 6916.1"
         style="fill:#2c3a64;fill-opacity:1;fill-rule:nonzero;stroke:none"
         transform="matrix(0.13333333,0,0,-0.13333333,0,2666.6667)" />
      <path
         id="path31"
         d="m 14292.8,10299.5 c 0,110.5 89.6,200.1 200,200.1 110.5,0 200.1,-89.6 200.1,-200.1 0,-110.4 -89.6,-200 -200.1,-200 -110.4,0 -200,89.6 -200,200"
         style="fill:#dde7fe;fill-opacity:1;fill-rule:nonzero;stroke:none"
         transform="matrix(0.13333333,0,0,-0.13333333,0,2666.6667)" />
      <path
         id="path32"
         d="m 14351.4,10299.5 c 0,78.2 63.3,141.5 141.4,141.5 78.2,0 141.5,-63.3 141.5,-141.5 0,-78.1 -63.3,-141.4 -141.5,-141.4 -78.1,0 -141.4,63.3 -141.4,141.4"
         style="fill:#6c7aff;fill-opacity:1;fill-rule:nonzero;stroke:none"
         transform="matrix(0.13333333,0,0,-0.13333333,0,2666.6667)" />
      <path
         id="path33"
         d="m 14779.1,8799.3 h -563.7 v 1018.3 h 563.7 V 8799.3"
         style="fill:#8fadef;fill-opacity:1;fill-rule:nonzero;stroke:none"
         transform="matrix(0.13333333,0,0,-0.13333333,0,2666.6667)" />
      <path
         id="path34"
         d="m 18263.1,8267.4 h -2299.8 v 741.3 h 2299.8 v -741.3"
         style="fill:#cde2fc;fill-opacity:1;fill-rule:nonzero;stroke:none"
         transform="matrix(0.13333333,0,0,-0.13333333,0,2666.6667)" />
      <path
         id="path35"
         d="m 20563,8267.4 h -2299.9 v 741.3 H 20563 v -741.3"
         style="fill:#a4c8f4;fill-opacity:1;fill-rule:nonzero;stroke:none"
         transform="matrix(0.13333333,0,0,-0.13333333,0,2666.6667)" />
      <path
         id="path36"
         d="m 16537.2,8630 h -573.9 v 16.1 h 573.9 V 8630"
         style="fill:#8fadef;fill-opacity:1;fill-rule:nonzero;stroke:none"
         transform="matrix(0.13333333,0,0,-0.13333333,0,2666.6667)" />
      <path
         id="path37"
         d="m 18263.1,8858.1 h -1585.2 v 16.1 h 1585.2 v -16.1"
         style="fill:#8fadef;fill-opacity:1;fill-rule:nonzero;stroke:none"
         transform="matrix(0.13333333,0,0,-0.13333333,0,2666.6667)" />
      <path
         id="path38"
         d="m 16977.9,8430.4 h -1014.6 v 16.1 h 1014.6 v -16.1"
         style="fill:#8fadef;fill-opacity:1;fill-rule:nonzero;stroke:none"
         transform="matrix(0.13333333,0,0,-0.13333333,0,2666.6667)" />
      <path
         id="path39"
         d="M 17549.8,9008.7 H 15250 V 9750 h 2299.8 v -741.3"
         style="fill:#d9e8fe;fill-opacity:1;fill-rule:nonzero;stroke:none"
         transform="matrix(0.13333333,0,0,-0.13333333,0,2666.6667)" />
      <path
         id="path40"
         d="M 19849.7,9008.7 H 17549.8 V 9750 h 2299.9 v -741.3"
         style="fill:#bbc9f9;fill-opacity:1;fill-rule:nonzero;stroke:none"
         transform="matrix(0.13333333,0,0,-0.13333333,0,2666.6667)" />
      <path
         id="path41"
         d="M 15823.9,9371.3 H 15250 v 16.1 h 573.9 v -16.1"
         style="fill:#8fadef;fill-opacity:1;fill-rule:nonzero;stroke:none"
         transform="matrix(0.13333333,0,0,-0.13333333,0,2666.6667)" />
      <path
         id="path42"
         d="m 17549.8,9599.4 h -1585.2 v 16.1 h 1585.2 v -16.1"
         style="fill:#8fadef;fill-opacity:1;fill-rule:nonzero;stroke:none"
         transform="matrix(0.13333333,0,0,-0.13333333,0,2666.6667)" />
      <path
         id="path43"
         d="M 16264.6,9171.7 H 15250 v 16.1 h 1014.6 v -16.1"
         style="fill:#8fadef;fill-opacity:1;fill-rule:nonzero;stroke:none"
         transform="matrix(0.13333333,0,0,-0.13333333,0,2666.6667)" />
      <path
         id="path44"
         d="M 16537.2,11098.7 H 18837 v 741.332 h -2299.8 z"
         style="fill:#d4e5fd;fill-opacity:1;fill-rule:nonzero;stroke:none"
         transform="matrix(0.13333333,0,0,-0.13333333,0,2666.6667)" />
      <path
         id="path45"
         d="M 21136.9,11098.7 H 18837 v 741.3 h 2299.9 v -741.3"
         style="fill:#a4c8f4;fill-opacity:1;fill-rule:nonzero;stroke:none"
         transform="matrix(0.13333333,0,0,-0.13333333,0,2666.6667)" />
      <path
         id="path46"
         d="m 17111.1,11461.3 h -573.9 v 16.1 h 573.9 v -16.1"
         style="fill:#8fadef;fill-opacity:1;fill-rule:nonzero;stroke:none"
         transform="matrix(0.13333333,0,0,-0.13333333,0,2666.6667)" />
      <path
         id="path47"
         d="m 18837,11689.4 h -1585.2 v 16.1 H 18837 v -16.1"
         style="fill:#8fadef;fill-opacity:1;fill-rule:nonzero;stroke:none"
         transform="matrix(0.13333333,0,0,-0.13333333,0,2666.6667)" />
      <path
         id="path48"
         d="m 17551.8,11272 h -1014.6 v 16.1 h 1014.6 v -16.1"
         style="fill:#8fadef;fill-opacity:1;fill-rule:nonzero;stroke:none"
         transform="matrix(0.13333333,0,0,-0.13333333,0,2666.6667)" />
      <path
         id="path49"
         d="m 18123.7,11840 h -2299.8 v 741.3 h 2299.8 V 11840"
         style="fill:#f5fbff;fill-opacity:1;fill-rule:nonzero;stroke:none"
         transform="matrix(0.13333333,0,0,-0.13333333,0,2666.6667)" />
      <path
         id="path50"
         d="m 20423.6,11840 h -2299.9 v 741.3 h 2299.9 V 11840"
         style="fill:#bdd8ff;fill-opacity:1;fill-rule:nonzero;stroke:none"
         transform="matrix(0.13333333,0,0,-0.13333333,0,2666.6667)" />
      <path
         id="path51"
         d="m 16397.8,12202.6 h -573.9 v 16.1 h 573.9 v -16.1"
         style="fill:#8fadef;fill-opacity:1;fill-rule:nonzero;stroke:none"
         transform="matrix(0.13333333,0,0,-0.13333333,0,2666.6667)" />
      <path
         id="path52"
         d="m 18579,12202.6 h -573.9 v 16.1 h 573.9 v -16.1"
         style="fill:#8fadef;fill-opacity:1;fill-rule:nonzero;stroke:none"
         transform="matrix(0.13333333,0,0,-0.13333333,0,2666.6667)" />
      <path
         id="path53"
         d="M 19378.2,12430.7 H 17793 v 16.1 h 1585.2 v -16.1"
         style="fill:#8fadef;fill-opacity:1;fill-rule:nonzero;stroke:none"
         transform="matrix(0.13333333,0,0,-0.13333333,0,2666.6667)" />
      <path
         id="path54"
         d="m 16838.5,12003 h -1014.6 v 16.1 h 1014.6 v -16.1"
         style="fill:#8fadef;fill-opacity:1;fill-rule:nonzero;stroke:none"
         transform="matrix(0.13333333,0,0,-0.13333333,0,2666.6667)" />
      <path
         id="path55"
         d="m 18414.8,9750.1 h 2299.8 v 1349.6 H 18414.8 V 9750.1"
         style="fill:#bdd8ff;fill-opacity:1;fill-rule:nonzero;stroke:none"
         transform="matrix(0.13333333,0,0,-0.13333333,0,2666.6667)" />
      <path
         id="path56"
         d="m 16114.9,9750.1 h 2299.9 v 1349.6 H 16114.9 V 9750.1"
         style="fill:#f5fbff;fill-opacity:1;fill-rule:nonzero;stroke:none"
         transform="matrix(0.13333333,0,0,-0.13333333,0,2666.6667)" />
      <path
         id="path57"
         d="m 20714.6,10414 h -573.9 v 21.7 h 573.9 v -21.7"
         style="fill:#8fadef;fill-opacity:1;fill-rule:nonzero;stroke:none"
         transform="matrix(0.13333333,0,0,-0.13333333,0,2666.6667)" />
      <path
         id="path58"
         d="m 20000,10834.2 h -3161.5 v 11.8 H 20000 v -11.8"
         style="fill:#35488b;fill-opacity:1;fill-rule:nonzero;stroke:none"
         transform="matrix(0.13333333,0,0,-0.13333333,0,2666.6667)" />
      <path
         id="path59"
         d="M 20714.6,10050.7 H 19700 v 21.7 h 1014.6 v -21.7"
         style="fill:#8fadef;fill-opacity:1;fill-rule:nonzero;stroke:none"
         transform="matrix(0.13333333,0,0,-0.13333333,0,2666.6667)" />
      <path
         id="path60"
         d="m 18837.1,10592.5 h -1090 v 11.7 h 1090 v -11.7"
         style="fill:#35488b;fill-opacity:1;fill-rule:nonzero;stroke:none"
         transform="matrix(0.13333333,0,0,-0.13333333,0,2666.6667)" />
      <path
         id="path61"
         d="m 21705.2,3261.7 h -6771.4 v 5002.9 h 6771.4 V 3261.7"
         style="fill:#f77d48;fill-opacity:1;fill-rule:nonzero;stroke:none"
         transform="matrix(0.13333333,0,0,-0.13333333,0,2666.6667)" />
      <path
         id="path62"
         d="m 18076.5,3261.7 h -5368.8 v 5002.9 h 5368.8 V 3261.7"
         style="fill:#ff8c64;fill-opacity:1;fill-rule:nonzero;stroke:none"
         transform="matrix(0.13333333,0,0,-0.13333333,0,2666.6667)" />
      <path
         id="path63"
         d="m 15781.4,7447.9 h -1390.7 c -86.1,0 -156.6,70.4 -156.6,156.5 v 20.3 c 0,86.1 70.5,156.5 156.6,156.5 h 1390.7 c 86.1,0 156.5,-70.4 156.5,-156.5 v -20.3 c 0,-86.1 -70.4,-156.5 -156.5,-156.5"
         style="fill:#2c3a64;fill-opacity:1;fill-rule:nonzero;stroke:none"
         transform="matrix(0.13333333,0,0,-0.13333333,0,2666.6667)" />
      <path
         id="path64"
         d="m 15914.7,5187.8 -1267.8,222.6 222.6,1267.8 1267.8,-222.6 -222.6,-1267.8"
         style="fill:#9fc1f4;fill-opacity:1;fill-rule:nonzero;stroke:none"
         transform="matrix(0.13333333,0,0,-0.13333333,0,2666.6667)" />
      <path
         id="path65"
         d="m 16101.4,6250.7 -1267.9,222.7 36,204.8 1267.8,-222.6 -35.9,-204.9"
         style="fill:#8fadef;fill-opacity:1;fill-rule:nonzero;stroke:none"
         transform="matrix(0.13333333,0,0,-0.13333333,0,2666.6667)" />
      <path
         id="path66"
         d="m 17763.9,6457.1 -1245,-327 -327,1245 1245,327 327,-1245"
         style="fill:#ffb93e;fill-opacity:1;fill-rule:nonzero;stroke:none"
         transform="matrix(0.13333333,0,0,-0.13333333,0,2666.6667)" />
      <path
         id="path67"
         d="m 17489.7,7500.9 -1245,-327 -52.8,201.2 1245,327 52.8,-201.2"
         style="fill:#ffa412;fill-opacity:1;fill-rule:nonzero;stroke:none"
         transform="matrix(0.13333333,0,0,-0.13333333,0,2666.6667)" />
      <path
         id="path68"
         d="m 12739.7,9656 c -34.8,192.9 -135.7,390 -136.7,392 l 10.5,5.3 c 1,-1.9 102.7,-200.6 137.7,-395.2 l -11.5,-2.1"
         style="fill:#8fadef;fill-opacity:1;fill-rule:nonzero;stroke:none"
         transform="matrix(0.13333333,0,0,-0.13333333,0,2666.6667)" />
      <path
         id="path69"
         d="m 13043.4,9170.1 c -72.5,519.5 -224.7,874.7 -226.2,878.2 l 10.8,4.7 c 1.5,-3.6 154.3,-360.2 227.1,-881.2 l -11.7,-1.7"
         style="fill:#8fadef;fill-opacity:1;fill-rule:nonzero;stroke:none"
         transform="matrix(0.13333333,0,0,-0.13333333,0,2666.6667)" />
      <path
         id="path70"
         d="m 25935.5,3264.8 h -5101.1 v 3768.9 h 5101.1 V 3264.8"
         style="fill:#8fadef;fill-opacity:1;fill-rule:nonzero;stroke:none"
         transform="matrix(0.13333333,0,0,-0.13333333,0,2666.6667)" />
      <path
         id="path71"
         d="m 23201.9,3264.8 h -4044.5 v 3768.9 h 4044.5 V 3264.8"
         style="fill:#9fc1f4;fill-opacity:1;fill-rule:nonzero;stroke:none"
         transform="matrix(0.13333333,0,0,-0.13333333,0,2666.6667)" />
      <path
         id="path72"
         d="m 21472.9,6418.4 h -1047.6 c -64.9,0 -118,53.1 -118,118 v 15.2 c 0,64.9 53.1,118 118,118 h 1047.6 c 64.9,0 118,-53.1 118,-118 v -15.2 c 0,-64.9 -53.1,-118 -118,-118"
         style="fill:#35488b;fill-opacity:1;fill-rule:nonzero;stroke:none"
         transform="matrix(0.13333333,0,0,-0.13333333,0,2666.6667)" />
      <path
         id="path73"
         d="M 23201.9,6844.7 H 18959.1 V 7675 h 4242.8 v -830.3"
         style="fill:#bdd8ff;fill-opacity:1;fill-rule:nonzero;stroke:none"
         transform="matrix(0.13333333,0,0,-0.13333333,0,2666.6667)" />
      <path
         id="path74"
         d="M 26062.7,6844.7 H 23201.9 V 7675 h 2860.8 v -830.3"
         style="fill:#7da4ea;fill-opacity:1;fill-rule:nonzero;stroke:none"
         transform="matrix(0.13333333,0,0,-0.13333333,0,2666.6667)" />
      <path
         id="path75"
         d="m 23003.5,4949.5 -1297.3,-340.8 -340.8,1297.3 1297.3,340.8 340.8,-1297.3"
         style="fill:#ff8c64;fill-opacity:1;fill-rule:nonzero;stroke:none"
         transform="matrix(0.13333333,0,0,-0.13333333,0,2666.6667)" />
      <path
         id="path76"
         d="m 22717.8,6037.2 -1297.4,-340.9 -55,209.7 1297.3,340.8 55.1,-209.6"
         style="fill:#f77d48;fill-opacity:1;fill-rule:nonzero;stroke:none"
         transform="matrix(0.13333333,0,0,-0.13333333,0,2666.6667)" />
      <path
         id="path77"
         d="m 21781.9,9367 1063.6,856.3 1578.1,-192.9 V 9367 h -2641.7"
         style="fill:#f77d48;fill-opacity:1;fill-rule:nonzero;stroke:none"
         transform="matrix(0.13333333,0,0,-0.13333333,0,2666.6667)" />
      <path
         id="path78"
         d="m 20203.7,9362.8 v 864.6 h 2641.8 v -864.6 h -2641.8"
         style="fill:#ff8c64;fill-opacity:1;fill-rule:nonzero;stroke:none"
         transform="matrix(0.13333333,0,0,-0.13333333,0,2666.6667)" />
      <path
         id="path79"
         d="m 22515.5,9929.7 c 75.5,0 136.7,-61.1 136.7,-136.6 0,-75.5 -61.2,-136.7 -136.7,-136.7 -75.5,0 -136.6,61.2 -136.6,136.7 0,75.5 61.1,136.6 136.6,136.6"
         style="fill:#dde7fe;fill-opacity:1;fill-rule:nonzero;stroke:none"
         transform="matrix(0.13333333,0,0,-0.13333333,0,2666.6667)" />
      <path
         id="path80"
         d="m 22515.5,9869.5 c 42.2,0 76.5,-34.2 76.5,-76.4 0,-42.2 -34.3,-76.4 -76.5,-76.4 -42.2,0 -76.4,34.2 -76.4,76.4 0,42.2 34.2,76.4 76.4,76.4"
         style="fill:#0b0755;fill-opacity:1;fill-rule:nonzero;stroke:none"
         transform="matrix(0.13333333,0,0,-0.13333333,0,2666.6667)" />
      <path
         id="path81"
         d="m 21368.6,9597.5 v 385.2 h 817.7 v -385.2 h -817.7"
         style="fill:#bdd8ff;fill-opacity:1;fill-rule:nonzero;stroke:none"
         transform="matrix(0.13333333,0,0,-0.13333333,0,2666.6667)" />
      <path
         id="path82"
         d="m 22980.4,7675 h -2618 v 843.9 h 2618 V 7675"
         style="fill:#dde7fe;fill-opacity:1;fill-rule:nonzero;stroke:none"
         transform="matrix(0.13333333,0,0,-0.13333333,0,2666.6667)" />
      <path
         id="path83"
         d="m 25598.5,7675 h -2618.1 v 843.9 h 2618.1 V 7675"
         style="fill:#b5c6e8;fill-opacity:1;fill-rule:nonzero;stroke:none"
         transform="matrix(0.13333333,0,0,-0.13333333,0,2666.6667)" />
      <path
         id="path84"
         d="m 21015.7,8087.8 h -653.3 v 18.3 h 653.3 v -18.3"
         style="fill:#35488b;fill-opacity:1;fill-rule:nonzero;stroke:none"
         transform="matrix(0.13333333,0,0,-0.13333333,0,2666.6667)" />
      <path
         id="path85"
         d="m 22980.4,8347.5 h -1804.6 v 18.3 h 1804.6 v -18.3"
         style="fill:#35488b;fill-opacity:1;fill-rule:nonzero;stroke:none"
         transform="matrix(0.13333333,0,0,-0.13333333,0,2666.6667)" />
      <path
         id="path86"
         d="m 21517.4,7860.6 h -1155 v 18.3 h 1155 v -18.3"
         style="fill:#35488b;fill-opacity:1;fill-rule:nonzero;stroke:none"
         transform="matrix(0.13333333,0,0,-0.13333333,0,2666.6667)" />
      <path
         id="path87"
         d="m 22168.5,8518.9 h -2618.1 v 843.9 h 2618.1 v -843.9"
         style="fill:#e9f0ff;fill-opacity:1;fill-rule:nonzero;stroke:none"
         transform="matrix(0.13333333,0,0,-0.13333333,0,2666.6667)" />
      <path
         id="path88"
         d="m 24786.5,8518.9 h -2618 v 843.9 h 2618 v -843.9"
         style="fill:#bbc9f9;fill-opacity:1;fill-rule:nonzero;stroke:none"
         transform="matrix(0.13333333,0,0,-0.13333333,0,2666.6667)" />
      <path
         id="path89"
         d="m 20203.7,8931.7 h -653.3 v 18.3 h 653.3 v -18.3"
         style="fill:#8fadef;fill-opacity:1;fill-rule:nonzero;stroke:none"
         transform="matrix(0.13333333,0,0,-0.13333333,0,2666.6667)" />
      <path
         id="path90"
         d="m 22168.5,9191.4 h -1804.6 v 18.3 h 1804.6 v -18.3"
         style="fill:#8fadef;fill-opacity:1;fill-rule:nonzero;stroke:none"
         transform="matrix(0.13333333,0,0,-0.13333333,0,2666.6667)" />
      <path
         id="path91"
         d="m 20705.4,8704.5 h -1155 v 18.3 h 1155 v -18.3"
         style="fill:#8fadef;fill-opacity:1;fill-rule:nonzero;stroke:none"
         transform="matrix(0.13333333,0,0,-0.13333333,0,2666.6667)" />
      <path
         id="path92"
         d="m 5839.54,11640.3 c 49.6,-71.6 334.39,10.4 761.81,219.3 445.63,217.8 1008.06,550.9 1583.69,938.1 1068.62,718.7 1908.76,1442.7 1954.36,1684.2 3.7,19.4 1.7,34.9 -6,45.9 -49.6,71.6 -334.35,-10.4 -761.79,-219.3 -445.63,-217.8 -1008.07,-550.9 -1583.7,-938.1 -1068.61,-718.6 -1908.8,-1442.7 -1954.36,-1684.1 -3.67,-19.5 -1.66,-34.9 5.99,-46 z m 75.81,-48.4 c -46.39,0 -78.89,11.2 -95.31,34.9 -11.39,16.5 -14.69,38 -9.8,63.9 47.37,251 873.53,965.8 1964.43,1699.4 1064.91,716.2 2245.63,1342.6 2378.23,1151.2 11.4,-16.4 14.7,-37.9 9.8,-63.8 -47.4,-251.1 -873.52,-965.8 -1964.42,-1699.5 -932.96,-627.5 -1954.85,-1186.1 -2282.93,-1186.1"
         style="fill:#f99746;fill-opacity:1;fill-rule:nonzero;stroke:none"
         transform="matrix(0.13333333,0,0,-0.13333333,0,2666.6667)" />
      <path
         id="path93"
         d="m 11940.9,7840.4 c -741.7,238.1 -5474.1,-1798.2 -5474.1,-1798.2 0,0 -770.54,-547.1 -34.76,-1692.4 610.93,-950.9 5206.76,1954.2 5290.06,1589.3 198.9,-871.3 1894.1,-2542.9 1894.1,-2542.9 283.1,-92.8 913.2,285.2 913.2,285.2 -662,1005.7 -1996,3968.8 -2588.5,4159"
         style="fill:#2c3a64;fill-opacity:1;fill-rule:nonzero;stroke:none"
         transform="matrix(0.13333333,0,0,-0.13333333,0,2666.6667)" />
      <path
         id="path94"
         d="m 9529.15,11048.5 c 0,0 -103.9,164.3 -120.65,330.7 -16.76,166.4 9.38,634.9 -107.9,744.2 -117.28,109.4 -488.78,379.9 -622.8,321.9 -134.02,-58 305.66,-328.4 318.95,-465.4 13.29,-136.9 4.91,-152 -46.33,-161.1 -51.24,-9.2 -220.34,192.3 -221.11,128.2 -0.77,-64 164.6,-416.5 246.9,-487.2 82.3,-70.6 204.57,-613.6 204.57,-613.6 l 348.37,202.3"
         style="fill:#ed975d;fill-opacity:1;fill-rule:nonzero;stroke:none"
         transform="matrix(0.13333333,0,0,-0.13333333,0,2666.6667)" />
      <path
         id="path95"
         d="m 9529.15,11280.5 c 0,0 -438.36,0 -512.53,-353.5 0,0 22.61,-1199.3 180.09,-2273.1 -945.09,892.9 -595.23,879.3 -1363.49,1460.9 -312.2,236.4 -593.49,-576.6 -585.7,-1151.7 7.78,-575.2 2013.2,-1889.7 2529.46,-1728.2 559.92,175.2 674.62,1429.4 -247.83,4045.6"
         style="fill:#8fadef;fill-opacity:1;fill-rule:nonzero;stroke:none"
         transform="matrix(0.13333333,0,0,-0.13333333,0,2666.6667)" />
      <path
         id="path96"
         d="m 17603.4,3305.1 c 2.4,1.7 16,19.9 18.9,22.5 l 889.4,1493.9 c 28.9,45.5 3.1,105.2 -49.6,116.5 -108.9,23.4 -254.4,-2 -351.4,-127.9 -178,-231.2 -562.4,-590.9 -939.6,-513.8 -12,2.5 -24.2,5.5 -36.4,8.8 -388.4,109.3 -241.4,-700.7 -241.4,-700.7 0,0 12.8,-9.2 35.1,-24.3 119.9,-81.8 563.2,-353.4 675,-275"
         style="fill:#2c3a64;fill-opacity:1;fill-rule:nonzero;stroke:none"
         transform="matrix(0.13333333,0,0,-0.13333333,0,2666.6667)" />
      <path
         id="path97"
         d="m 5622.46,5575.9 c 0,0 4121.29,182.2 5714.64,-230.8 0,0 1583.8,-1114 261.9,-1484 -514.5,-143.9 -2273,-565.4 -3225.18,-565.4 -1562.93,0 -3058.66,-10 -3058.66,-10 -240.85,106 -278.34,818.4 -317.26,1010.3 -270.72,1334 624.56,1279.9 624.56,1279.9"
         style="fill:#35488b;fill-opacity:1;fill-rule:nonzero;stroke:none"
         transform="matrix(0.13333333,0,0,-0.13333333,0,2666.6667)" />
      <path
         id="path98"
         d="m 11239.4,5369 c 0,0 4319.6,-819.9 5996.9,-1081.8 0,0 -182.4,-704.5 -455,-860.7 0,0 -997.8,-65.3 -1995.5,-130.8 -1231.8,-80.9 -2446.9,70.1 -3185.6,366.8 -1668.08,669.8 -360.8,1706.5 -360.8,1706.5"
         style="fill:#35488b;fill-opacity:1;fill-rule:nonzero;stroke:none"
         transform="matrix(0.13333333,0,0,-0.13333333,0,2666.6667)" />
      <path
         id="path99"
         d="m 7998.96,9248.7 c -760.11,33.9 -1751.88,1203.8 -1751.88,1203.8 0,0 561.61,170.1 935.32,808.4 72.55,123.9 137.89,265.4 190.93,426.7 l 252.49,-418.9 372.2,-617.7 c 0,0 -33.72,-90 -109.29,-248.5 v -0.2 c -25.19,-52.9 -54.94,-113.5 -89.79,-180.7 -41.86,-80.9 -90.73,-171.4 -147.17,-270.7 233.92,-267.8 347.19,-702.2 347.19,-702.2"
         style="fill:#ffb27d;fill-opacity:1;fill-rule:nonzero;stroke:none"
         transform="matrix(0.13333333,0,0,-0.13333333,0,2666.6667)" />
      <path
         id="path100"
         d="m 7998.02,10651 c 0,0 -33.72,-90 -109.29,-248.5 -536.99,365.3 -584.73,890.6 -584.73,890.6 0,0 41.67,6.2 321.82,-24.4 l 372.2,-617.7"
         style="fill:#ed975d;fill-opacity:1;fill-rule:nonzero;stroke:none"
         transform="matrix(0.13333333,0,0,-0.13333333,0,2666.6667)" />
      <path
         id="path101"
         d="m 8214.69,10517.4 c 0,0 -1147.56,399.9 -887.47,1110.8 260.09,710.8 287.14,1241.1 1030.83,1015.8 743.68,-225.3 785.99,-548.4 756.89,-806.7 -29.11,-258.4 -595.04,-1405.7 -900.25,-1319.9"
         style="fill:#ffb27d;fill-opacity:1;fill-rule:nonzero;stroke:none"
         transform="matrix(0.13333333,0,0,-0.13333333,0,2666.6667)" />
      <path
         id="path102"
         d="m 7117.49,12923.4 c -8.5,15.3 -32.13,31.2 -88.95,46.4 0,0 52,19.6 113.77,8.3 28.91,78.7 101.33,213.5 246.16,219.8 0,0 -82.25,-24.6 -109.87,-108.9 193.9,133 560.47,182.9 1490.03,-89.6 1225.06,-359.2 645.88,-1083.8 464.49,-1146.8 -181.4,-63 -532.29,286.2 -837.84,324.6 -305.54,38.3 -454.48,-390.8 -569.02,-430.1 -114.53,-39.3 -52.18,59.3 -176.93,151.3 -124.76,92.1 -186.18,-137.3 -177.75,-296.5 8.42,-159.2 -263.45,-295.8 -263.45,-295.8 0,0 -27.14,93.3 -107,226.3 -149.28,248.5 -143.78,1174.1 -17.34,1345.1 11.17,15.1 22.29,30.5 33.7,45.9"
         style="fill:#2b478b;fill-opacity:1;fill-rule:nonzero;stroke:none"
         transform="matrix(0.13333333,0,0,-0.13333333,0,2666.6667)" />
      <path
         id="path103"
         d="m 8321.91,8475.6 c -86.37,-2226.4 -833.42,-1882.8 -444.93,-2541.8 247.57,-419.7 -269.72,-751 -837.59,-1178.9 -16.67,-12.5 -33.34,-25.2 -50,-37.9 -162.9,-123.9 -335.26,-245.1 -507.63,-355.3 -267.26,-170.9 -534.9,-316 -768.26,-405 -238.09,-91.1 -440.58,-124.2 -570.89,-67.6 -4.17,1.7 -7.96,3.2 -11.75,5.1 -111.37,54.9 -203.8,203.8 -279.38,405.5 -135.81,359.5 -290,1781.5 -333.94,2206.3 -7.76,76.4 -12.12,120.5 -12.12,120.5 -252.11,3099.6 2321.07,4188.3 2321.07,4188.3 0,0 225.21,-672.8 952.56,-631.5 1.33,-1.1 579.42,-764.3 542.86,-1707.7"
         style="fill:#9fc1f4;fill-opacity:1;fill-rule:nonzero;stroke:none"
         transform="matrix(0.13333333,0,0,-0.13333333,0,2666.6667)" />
      <path
         id="path104"
         d="m 7039.39,4754.9 c -16.67,-12.5 -33.34,-25.2 -50,-37.9 -162.9,-123.9 -335.26,-245.1 -507.63,-355.3 -267.26,-170.9 -534.9,-316 -768.26,-405 -258.17,-73.3 -471.83,-105.7 -570.89,-67.6 -4.17,1.7 -7.96,3.2 -11.75,5.1 -111.37,54.9 -203.8,203.8 -279.38,405.5 -135.81,359.5 -290,1781.5 -333.94,2206.3 315.76,908.8 749.89,1936 1231.76,2396.1 950.1,907.3 1239.71,-474.5 1239.71,-474.5 0,0 -734.92,-1813 50.38,-3672.7"
         style="fill:#8fadef;fill-opacity:1;fill-rule:nonzero;stroke:none"
         transform="matrix(0.13333333,0,0,-0.13333333,0,2666.6667)" />
      <path
         id="path105"
         d="M 6065.31,9736.3 C 5688.58,8799.8 4906.34,6993.5 5184.62,6114.8 c 0,0 1126.49,-297.3 1159.2,51.3 182.81,1948.8 1859.24,4080.4 565.23,4038.6 -361.98,-11.7 -708.57,-132.4 -843.74,-468.4"
         style="fill:#9fc1f4;fill-opacity:1;fill-rule:nonzero;stroke:none"
         transform="matrix(0.13333333,0,0,-0.13333333,0,2666.6667)" />
      <path
         id="path106"
         d="m 7684.41,10071.9 c 0,0 898.34,-2712.9 378.07,-5329.9 l -772.6,-265.6 -189.26,549.4 c 0,0 1001.55,2559.3 459.14,5017.3 l 124.65,28.8"
         style="fill:#f77d48;fill-opacity:1;fill-rule:nonzero;stroke:none"
         transform="matrix(0.13333333,0,0,-0.13333333,0,2666.6667)" />
      <path
         id="path107"
         d="m 6030.2,3925 c 0,0 293.59,-400.9 653.48,-344.1 359.88,56.8 492.47,-47.3 653.47,-132.6 161,-85.2 205.26,-130.1 147.62,-152.6 -43.4,-17 -829.63,-8.4 -1215.72,-3.1 -126.8,1.7 -489.83,340.4 -489.83,340.4 l 250.98,292"
         style="fill:#ffb27d;fill-opacity:1;fill-rule:nonzero;stroke:none"
         transform="matrix(0.13333333,0,0,-0.13333333,0,2666.6667)" />
      <path
         id="path108"
         d="m 5137.84,6369 c -54.71,-1463.8 450.04,-2462.5 586.99,-2974.3 0,0 166.46,-79 295.9,-36.3 283.07,93.2 279.73,317.8 279.73,317.8 0,0 7.54,1821 43.36,2489.9 34.9,651.9 -1194.56,508.4 -1205.98,202.9"
         style="fill:#9fc1f4;fill-opacity:1;fill-rule:nonzero;stroke:none"
         transform="matrix(0.13333333,0,0,-0.13333333,0,2666.6667)" />
      <path
         id="path109"
         d="m 6989.02,10986 c 0,0 -241.35,-65 -360.95,-271.1 0,0 94.05,-406.5 1012.71,-633.8 l -34.69,106.2 c 0,0 -524.82,257.9 -617.07,798.7"
         style="fill:#f77d48;fill-opacity:1;fill-rule:nonzero;stroke:none"
         transform="matrix(0.13333333,0,0,-0.13333333,0,2666.6667)" />
      <path
         id="path110"
         d="m 7606.09,10187.3 c 0,0 187.35,69.6 226.75,100.8 0,0 46.96,-107 27.79,-194.2 0,0 -60.65,-38 -219.85,-12.8 -159.2,25.1 -34.69,106.2 -34.69,106.2"
         style="fill:#f77d48;fill-opacity:1;fill-rule:nonzero;stroke:none"
         transform="matrix(0.13333333,0,0,-0.13333333,0,2666.6667)" />
      <path
         id="path111"
         d="m 7684.41,10188.3 c 0,0 -183.1,15.6 -202.04,-8 -18.94,-23.6 107.03,-239.9 169.4,-229.4 62.36,10.5 83.15,212.1 32.64,237.4"
         style="fill:#f77d48;fill-opacity:1;fill-rule:nonzero;stroke:none"
         transform="matrix(0.13333333,0,0,-0.13333333,0,2666.6667)" />
      <path
         id="path112"
         d="m 5932.58,11596.3 c -46.39,0 -78.88,11.2 -95.31,34.9 l 19.5,13.5 c 95.87,-138.4 1061.23,293.6 2345.51,1157.3 1068.61,718.7 1908.82,1442.8 1954.32,1684.2 3.7,19.5 1.7,34.9 -6,45.9 l 19.5,13.5 c 11.4,-16.4 14.7,-37.9 9.8,-63.8 -47.3,-251 -873.48,-965.8 -1964.38,-1699.5 -932.97,-627.4 -1954.87,-1186 -2282.94,-1186"
         style="fill:#f99746;fill-opacity:1;fill-rule:nonzero;stroke:none"
         transform="matrix(0.13333333,0,0,-0.13333333,0,2666.6667)" />
      <path
         id="path113"
         d="m 9712.11,13779.9 c -2.86,0 -5.69,0 -8.56,0 -529.17,-0.9 -1207.99,-77.6 -1911.44,-216.1 -1247.07,-245.6 -2272.81,-630.2 -2438.99,-914.4 -21.31,-36.5 -27.06,-70.3 -17.09,-100.6 42.3,-128.3 359.14,-201.8 869.73,-201.8 2.85,0 5.69,0 8.55,0 529.17,0.9 1207.99,77.6 1911.44,216.1 1247.07,245.6 2272.85,630.2 2438.95,914.5 21.4,36.4 27.1,70.2 17.1,100.5 -42.3,128.3 -359.1,201.8 -869.69,201.8 z M 6205.54,12317.6 c -254.82,0 -461.19,17.7 -613.54,52.7 -163.8,37.6 -259.33,94.6 -283.96,169.3 -12.73,38.6 -6.13,80.6 19.64,124.6 111.24,190.3 558.48,381.8 815.18,479 446.66,169.1 1030.35,328.7 1643.56,449.5 705.25,138.8 1386.08,215.8 1917.09,216.6 258.55,0.6 468.29,-17.3 622.39,-52.7 163.8,-37.6 259.3,-94.6 283.9,-169.3 12.8,-38.6 6.2,-80.5 -19.6,-124.6 -111.2,-190.3 -558.5,-381.8 -815.2,-479 -446.66,-169.1 -1030.35,-328.7 -1643.56,-449.5 -705.24,-138.8 -1386.08,-215.8 -1917.08,-216.6 -2.94,0 -5.89,0 -8.82,0"
         style="fill:#f99746;fill-opacity:1;fill-rule:nonzero;stroke:none"
         transform="matrix(0.13333333,0,0,-0.13333333,0,2666.6667)" />
      <path
         id="path114"
         d="m 6071.1,13162.8 -74.03,-58.8 91.66,-23 32.99,-88.6 50.22,80.1 94.42,4 -60.62,72.5 25.36,91 -87.68,-35.2 -78.75,52.2 6.43,-94.2"
         style="fill:#ffb93e;fill-opacity:1;fill-rule:nonzero;stroke:none"
         transform="matrix(0.13333333,0,0,-0.13333333,0,2666.6667)" />
      <path
         id="path115"
         d="m 9876.84,14163.1 -30.26,-89.5 89.46,30.4 75.76,-56.4 -1.3,94.5 77.1,54.6 -90.23,28 -28.15,90.2 -54.48,-77.2 -94.51,1.1 56.61,-75.7"
         style="fill:#ffb93e;fill-opacity:1;fill-rule:nonzero;stroke:none"
         transform="matrix(0.13333333,0,0,-0.13333333,0,2666.6667)" />
      <path
         id="path116"
         d="m 8856.59,14808.6 -39.9,-85.6 92.27,20.4 69.14,-64.4 9.07,94.1 82.64,45.8 -86.66,37.7 -18.07,92.8 -62.64,-70.8 -93.8,11.5 47.95,-81.5"
         style="fill:#f99746;fill-opacity:1;fill-rule:nonzero;stroke:none"
         transform="matrix(0.13333333,0,0,-0.13333333,0,2666.6667)" />
      <path
         id="path117"
         d="m 10005,12447.8 -39.9,-85.6 92.3,20.4 69.1,-64.4 9.1,94 82.6,45.9 -86.6,37.7 -18.1,92.7 -62.6,-70.7 -93.84,11.5 47.94,-81.5"
         style="fill:#f99746;fill-opacity:1;fill-rule:nonzero;stroke:none"
         transform="matrix(0.13333333,0,0,-0.13333333,0,2666.6667)" />
      <path
         id="path118"
         d="m 6335.48,11812.4 -78.31,-52.9 89.62,-30 26.11,-90.8 56.21,75.9 94.45,-3.2 -54.88,76.9 32.26,88.9 -90.13,-28.5 -74.51,58.2 -0.82,-94.5"
         style="fill:#ffb93e;fill-opacity:1;fill-rule:nonzero;stroke:none"
         transform="matrix(0.13333333,0,0,-0.13333333,0,2666.6667)" />
      <path
         id="path119"
         d="m 4449.2,12218.5 501.81,-169.9 -58.95,205 293.67,-56 -515.7,257.8 89.76,-239.5 -310.59,2.6"
         style="fill:#f99746;fill-opacity:1;fill-rule:nonzero;stroke:none"
         transform="matrix(0.13333333,0,0,-0.13333333,0,2666.6667)" />
      <path
         id="path120"
         d="m 7780.94,15143.9 -32.6,-811 275.72,175.3 44.75,-455.8 155.81,869.4 -313.06,-235.5 -130.62,457.6"
         style="fill:#f99746;fill-opacity:1;fill-rule:nonzero;stroke:none"
         transform="matrix(0.13333333,0,0,-0.13333333,0,2666.6667)" />
      <path
         id="path121"
         d="m 18559.9,3844.2 c 14.5,-34.9 41.2,-219.7 98.1,-374.2 v -0.2 c 34.3,-93 79.3,-174.8 139.1,-206.8 159.6,-85.3 442,30.2 442,30.2 0,0 468.6,-80.6 515.7,-61.3 47,19.2 132.1,724.6 132.1,724.6 0,0 -345.8,401.4 -378,414.1 -32.1,12.7 -308.5,-114 -354.4,-111.4 -45.8,2.5 -304.7,192.7 -379.2,152.7 -74.5,-40.2 -238.6,-511.8 -215.4,-567.7"
         style="fill:#ffffff;fill-opacity:1;fill-rule:nonzero;stroke:none"
         transform="matrix(0.13333333,0,0,-0.13333333,0,2666.6667)" />
      <path
         id="path122"
         d="m 19154.5,4259.2 c 0,0 71.7,-189.7 93.7,-207.3 22,-17.6 260.7,318.7 260.7,318.7 -32.1,12.7 -308.5,-114 -354.4,-111.4"
         style="fill:#f2f7fe;fill-opacity:1;fill-rule:nonzero;stroke:none"
         transform="matrix(0.13333333,0,0,-0.13333333,0,2666.6667)" />
      <path
         id="path123"
         d="m 18770.6,4227.6 c 0,0 318,-328.9 312,-357.7 -6,-28.8 -375.5,-215.9 -388.2,-207.9 -12.7,8 89.9,239 87.7,279.1 -2.2,40.2 -11.5,286.5 -11.5,286.5"
         style="fill:#f2f7fe;fill-opacity:1;fill-rule:nonzero;stroke:none"
         transform="matrix(0.13333333,0,0,-0.13333333,0,2666.6667)" />
      <path
         id="path124"
         d="m 18559.9,3844.2 c 14.5,-34.9 41.2,-219.7 98.1,-374.2 v -0.2 h 0.1 l -20.8,348.3 138,593.8 c -74.5,-40.2 -238.6,-511.8 -215.4,-567.7"
         style="fill:#f2f7fe;fill-opacity:1;fill-rule:nonzero;stroke:none"
         transform="matrix(0.13333333,0,0,-0.13333333,0,2666.6667)" />
      <path
         id="path125"
         d="m 19239.1,3293.2 c 0,0 468.6,-80.6 515.7,-61.3 47,19.2 132.1,724.6 132.1,724.6 0,0 -122.7,-357.4 -126,-375.4 -3.2,-17.9 -146.2,29.7 -146.2,29.7 l -375.6,-317.6"
         style="fill:#f2f7fe;fill-opacity:1;fill-rule:nonzero;stroke:none"
         transform="matrix(0.13333333,0,0,-0.13333333,0,2666.6667)" />
      <path
         id="path126"
         d="m 19764,3963.3 -62.8,-184.9 -108.1,6 84.7,74.4 86.2,104.5"
         style="fill:#f2f7fe;fill-opacity:1;fill-rule:nonzero;stroke:none"
         transform="matrix(0.13333333,0,0,-0.13333333,0,2666.6667)" />
      <path
         id="path127"
         d="m 21209.7,3683.4 c 11.3,-23.7 32,-148.9 76.2,-254 v -0.2 c 26.6,-63.2 61.6,-119.1 108,-141.3 123.8,-59.5 342.8,15.3 342.8,15.3 0,0 363.6,-59.9 400.1,-47.4 36.5,12.5 102.2,488.3 102.2,488.3 0,0 -268.4,275.3 -293.3,284.3 -24.9,8.9 -239.3,-73.5 -274.9,-71.3 -35.6,2.2 -236.4,133.8 -294.2,107.6 -57.8,-26.3 -184.9,-343.2 -166.9,-381.3"
         style="fill:#ffffff;fill-opacity:1;fill-rule:nonzero;stroke:none"
         transform="matrix(0.13333333,0,0,-0.13333333,0,2666.6667)" />
      <path
         id="path128"
         d="m 21670.8,3957.1 c 0,0 55.6,-129 72.7,-141.2 17.1,-12.1 202.2,212.5 202.2,212.5 -24.9,8.9 -239.3,-73.5 -274.9,-71.3"
         style="fill:#c4d9e8;fill-opacity:1;fill-rule:nonzero;stroke:none"
         transform="matrix(0.13333333,0,0,-0.13333333,0,2666.6667)" />
      <path
         id="path129"
         d="m 21373,3940.2 c 0,0 246.8,-226 242.2,-245.4 -4.7,-19.4 -291.3,-141.6 -301.1,-136.1 -9.9,5.6 69.6,160.5 67.9,187.7 -1.7,27.2 -9,193.8 -9,193.8"
         style="fill:#dfebf5;fill-opacity:1;fill-rule:nonzero;stroke:none"
         transform="matrix(0.13333333,0,0,-0.13333333,0,2666.6667)" />
      <path
         id="path130"
         d="m 21209.7,3683.4 c 11.3,-23.7 32,-148.9 76.2,-254 v -0.2 h 0.1 l -16.3,235.7 106.9,399.8 c -57.8,-26.3 -184.9,-343.2 -166.9,-381.3"
         style="fill:#c4d9e8;fill-opacity:1;fill-rule:nonzero;stroke:none"
         transform="matrix(0.13333333,0,0,-0.13333333,0,2666.6667)" />
      <path
         id="path131"
         d="m 21736.7,3303.2 c 0,0 363.6,-59.9 400.1,-47.4 36.5,12.5 102.2,488.3 102.2,488.3 0,0 -95.1,-240.2 -97.5,-252.3 -2.5,-12.1 -113.5,21.8 -113.5,21.8 l -291.3,-210.4"
         style="fill:#dfebf5;fill-opacity:1;fill-rule:nonzero;stroke:none"
         transform="matrix(0.13333333,0,0,-0.13333333,0,2666.6667)" />
      <path
         id="path132"
         d="m 22143.7,3750.1 -48.6,-124.3 -83.9,5.3 65.6,49.4 66.9,69.6"
         style="fill:#dfebf5;fill-opacity:1;fill-rule:nonzero;stroke:none"
         transform="matrix(0.13333333,0,0,-0.13333333,0,2666.6667)" />
      <path
         id="path133"
         d="m 21751.4,10620.7 c 11.2,-23.8 32,-149 76.2,-254.1 v -0.2 c 26.6,-63.2 61.6,-119 108,-141.3 123.8,-59.5 342.8,15.3 342.8,15.3 0,0 363.6,-59.8 400.1,-47.4 36.4,12.5 102.2,488.3 102.2,488.3 0,0 -268.4,275.3 -293.3,284.3 -25,9 -239.3,-73.5 -274.9,-71.3 -35.6,2.3 -236.5,133.8 -294.2,107.6 -57.8,-26.3 -184.9,-343.2 -166.9,-381.2"
         style="fill:#ffffff;fill-opacity:1;fill-rule:nonzero;stroke:none"
         transform="matrix(0.13333333,0,0,-0.13333333,0,2666.6667)" />
      <path
         id="path134"
         d="m 22212.5,10894.3 c 0,0 55.6,-129 72.7,-141.2 17.1,-12.1 202.2,212.5 202.2,212.5 -25,9 -239.3,-73.5 -274.9,-71.3"
         style="fill:#c4d9e8;fill-opacity:1;fill-rule:nonzero;stroke:none"
         transform="matrix(0.13333333,0,0,-0.13333333,0,2666.6667)" />
      <path
         id="path135"
         d="m 21914.7,10877.4 c 0,0 246.8,-226 242.1,-245.4 -4.6,-19.4 -291.2,-141.6 -301.1,-136.1 -9.8,5.6 69.7,160.6 68,187.7 -1.7,27.2 -9,193.8 -9,193.8"
         style="fill:#dfebf5;fill-opacity:1;fill-rule:nonzero;stroke:none"
         transform="matrix(0.13333333,0,0,-0.13333333,0,2666.6667)" />
      <path
         id="path136"
         d="m 21751.4,10620.7 c 11.2,-23.8 32,-149 76.2,-254.1 v -0.2 h 0.1 l -16.3,235.7 106.9,399.8 c -57.8,-26.3 -184.9,-343.2 -166.9,-381.2"
         style="fill:#c4d9e8;fill-opacity:1;fill-rule:nonzero;stroke:none"
         transform="matrix(0.13333333,0,0,-0.13333333,0,2666.6667)" />
      <path
         id="path137"
         d="m 22278.4,10240.4 c 0,0 363.6,-59.8 400.1,-47.4 36.4,12.5 102.2,488.3 102.2,488.3 0,0 -95.1,-240.2 -97.6,-252.3 -2.5,-12.1 -113.4,21.8 -113.4,21.8 l -291.3,-210.4"
         style="fill:#dfebf5;fill-opacity:1;fill-rule:nonzero;stroke:none"
         transform="matrix(0.13333333,0,0,-0.13333333,0,2666.6667)" />
      <path
         id="path138"
         d="m 22685.4,10687.3 -48.7,-124.2 -83.8,5.3 65.6,49.3 66.9,69.6"
         style="fill:#dfebf5;fill-opacity:1;fill-rule:nonzero;stroke:none"
         transform="matrix(0.13333333,0,0,-0.13333333,0,2666.6667)" />
      <path
         id="path139"
         d="M 28539.3,3228.9 H 1497.33 c -16.89,0 -30.7,13.8 -30.7,30.7 v 10.5 c 0,16.9 13.81,30.7 30.7,30.7 H 28539.3 c 16.9,0 30.7,-13.8 30.7,-30.7 v -10.5 c 0,-16.9 -13.8,-30.7 -30.7,-30.7"
         style="fill:#233862;fill-opacity:1;fill-rule:nonzero;stroke:none"
         transform="matrix(0.13333333,0,0,-0.13333333,0,2666.6667)" />
    </g>
  </g>
</svg>
