<?xml version="1.0" encoding="UTF-8" standalone="no"?>
<svg width="1920" height="715" viewBox="0 0 1920 715" xmlns="http://www.w3.org/2000/svg">
    <path d="M 0,0 0,390 3,393 3,394 1,396 0,396 0,401 1,401 3,403 3,405 2,406 0,406 0,411 3,414 0,417 0,435 2,437 2,438 0,440 0,451 2,451 4,453 4,454 2,456 1,456 0,455 0,470 1,470 3,472 3,473 4,473 5,474 5,475 7,477 7,478 8,478 9,479 9,481 10,482 10,483 12,485 12,486 13,487 13,490 14,491 13,492 14,493 14,494 13,495 14,496 14,497 13,498 13,499 14,500 13,501 13,504 12,505 12,507 11,508 10,508 8,506 10,504 9,503 9,502 10,501 10,499 11,498 10,497 10,496 11,495 10,494 10,492 9,491 10,490 9,489 9,487 8,486 8,485 6,483 6,482 5,481 5,480 3,478 3,477 2,477 1,476 1,475 0,475 0,525 2,527 0,529 0,546 1,547 1,548 0,549 0,560 1,560 2,561 2,562 1,563 0,563 0,574 1,575 1,576 0,577 0,609 1,610 1,611 0,612 0,714 215,714 216,713 217,714 274,714 275,713 276,714 278,714 278,713 279,712 280,713 280,714 330,714 330,713 331,712 332,712 333,713 332,714 360,714 361,713 363,713 364,714 388,714 388,713 390,711 391,712 391,714 412,714 413,713 414,713 415,714 482,714 483,713 484,713 485,714 525,714 525,712 526,711 528,713 528,714 559,714 561,712 562,713 562,714 573,714 574,713 575,713 576,714 588,714 588,713 589,712 590,713 590,714 596,714 597,713 598,714 1919,714 1919,74 1918,74 1916,72 1918,70 1919,71 1919,50 1917,50 1916,49 1916,47 1917,46 1918,46 1917,45 1917,43 1918,42 1919,42 1919,26 1918,26 1916,24 1917,23 1917,22 1918,21 1919,21 1919,18 1918,19 1915,19 1913,21 1911,19 1911,17 1913,15 1914,16 1915,16 1915,15 1916,14 1918,14 1919,13 1919,0 1914,0 1915,1 1915,3 1914,4 1914,5 1909,10 1909,12 1908,13 1906,13 1906,14 1905,15 1903,15 1901,17 1899,17 1898,18 1895,18 1895,19 1894,20 1892,20 1891,19 1891,20 1890,21 1887,21 1886,20 1886,18 1888,16 1889,16 1890,17 1892,15 1895,15 1895,14 1896,13 1898,13 1899,12 1901,12 1903,10 1904,10 1904,8 1909,3 1909,2 1910,1 1910,0 Z" fill="black"/>
</svg>
